<?xml version="1.0" encoding="utf-8" ?>
<svg baseProfile="full" height="298.31mm" version="1.1" viewBox="0 0 330.00 298.31" width="330.00mm" xmlns="http://www.w3.org/2000/svg" xmlns:ev="http://www.w3.org/2001/xml-events" xmlns:xlink="http://www.w3.org/1999/xlink"><defs /><title>topo2laser output</title><g id="layer-00-water-18m-to-59m"><path d="M 300.000,150.923 L 300.000,117.384 L 295.312,88.038 L 285.938,62.885 L 271.875,41.923 L 253.125,25.154 L 229.688,12.577 L 201.562,4.192 L 168.750,0.000 L 131.250,0.000 L 98.438,4.192 L 70.312,12.577 L 46.875,25.154 L 28.125,41.923 L 14.062,62.885 L 4.688,88.038 L 0.000,117.384 L 0.000,150.923 L 4.688,180.269 L 14.062,205.423 L 28.125,226.384 L 46.875,243.154 L 70.312,255.730 L 98.438,264.115 L 131.250,268.307 L 168.750,268.307 L 201.562,264.115 L 229.688,255.730 L 253.125,243.154 L 271.875,226.384 L 285.938,205.423 L 295.312,180.269 L 300.000,150.923 Z" fill="none" stroke="#FF0000" stroke-width="0.01mm" transform="translate(15.000,15.000)" /><path d="M 300.000,150.923 L 300.000,117.384 L 295.312,88.038 L 285.938,62.885 L 271.875,41.923 L 253.125,25.154 L 229.688,12.577 L 201.562,4.192 L 168.750,0.000 L 131.250,0.000 L 98.438,4.192 L 70.312,12.577 L 46.875,25.154 L 28.125,41.923 L 14.062,62.885 L 4.688,88.038 L 0.000,117.384 L 0.000,150.923 L 4.688,180.269 L 14.062,205.423 L 28.125,226.384 L 46.875,243.154 L 70.312,255.730 L 98.438,264.115 L 131.250,268.307 L 168.750,268.307 L 201.562,264.115 L 229.688,255.730 L 253.125,243.154 L 271.875,226.384 L 285.938,205.423 L 295.312,180.269 L 300.000,150.923 Z" fill="none" stroke="#0000FF" stroke-width="0.01mm" transform="translate(15.000,15.000)" /></g><g id="layer-01-water-59m-to-100m"><path d="M 300.000,150.923 L 300.000,117.384 L 295.312,88.038 L 285.938,62.885 L 271.875,41.923 L 253.125,25.154 L 229.688,12.577 L 201.562,4.192 L 168.750,0.000 L 131.250,0.000 L 98.438,4.192 L 70.312,12.577 L 46.875,25.154 L 28.125,41.923 L 14.062,62.885 L 4.688,88.038 L 0.000,117.384 L 0.000,150.923 L 4.688,180.269 L 14.062,205.423 L 28.125,226.384 L 46.875,243.154 L 70.312,255.730 L 98.438,264.115 L 131.250,268.307 L 168.750,268.307 L 201.562,264.115 L 229.688,255.730 L 253.125,243.154 L 271.875,226.384 L 285.938,205.423 L 295.312,180.269 L 300.000,150.923 Z" fill="none" stroke="#FF0000" stroke-width="0.01mm" transform="translate(15.000,15.000)" /><path d="M 297.884,4.784 L 295.882,6.510 L 295.371,8.814 L 293.837,9.505 L 293.389,11.733 L 291.793,12.500 L 291.359,14.709 L 289.748,15.495 L 289.009,18.022 L 281.804,18.742 L 280.386,21.304 L 275.550,21.750 L 274.913,23.766 L 273.332,24.513 L 272.911,26.702 L 271.285,27.508 L 270.834,29.735 L 267.256,30.739 L 266.745,32.716 L 265.134,33.501 L 264.430,35.996 L 257.183,36.743 L 255.763,39.304 L 250.924,39.747 L 250.286,41.763 L 248.704,42.509 L 248.281,44.698 L 246.654,45.502 L 246.246,47.671 L 244.604,48.494 L 244.121,50.760 L 240.967,51.583 L 240.473,52.356 L 240.501,53.467 L 242.280,54.489 L 242.639,56.218 L 245.756,56.774 L 246.761,59.196 L 249.817,59.712 L 250.785,61.972 L 251.761,62.247 L 260.704,62.146 L 261.649,60.111 L 263.000,59.395 L 285.523,58.988 L 286.350,57.026 L 287.782,56.321 L 290.985,56.611 L 292.227,59.057 L 298.522,59.299 L 299.972,60.393 L 300.000,177.371 L 295.312,200.105 L 285.938,219.591 L 271.875,235.830 L 253.125,248.821 L 229.688,258.564 L 201.562,265.060 L 168.750,268.307 L 131.250,268.307 L 98.438,264.350 L 70.312,256.436 L 46.875,244.565 L 28.125,228.737 L 14.062,208.952 L 4.688,185.210 L 0.000,157.511 L 0.044,3.606 L 0.701,0.043 L 297.240,0.046 L 297.884,4.784 Z" fill="none" stroke="#0000FF" stroke-width="0.01mm" transform="translate(15.000,15.000)" /></g><g id="layer-02-water-100m-to-142m"><path d="M 297.884,4.784 L 295.882,6.510 L 295.371,8.814 L 293.837,9.505 L 293.389,11.733 L 291.793,12.500 L 291.359,14.709 L 289.748,15.495 L 289.009,18.022 L 281.804,18.742 L 280.386,21.304 L 275.550,21.750 L 274.913,23.766 L 273.332,24.513 L 272.911,26.702 L 271.285,27.508 L 270.834,29.735 L 267.256,30.739 L 266.745,32.716 L 265.134,33.501 L 264.430,35.996 L 257.183,36.743 L 255.763,39.304 L 250.924,39.747 L 250.286,41.763 L 248.704,42.509 L 248.281,44.698 L 246.654,45.502 L 246.246,47.671 L 244.604,48.494 L 244.121,50.760 L 240.967,51.583 L 240.473,52.356 L 240.501,53.467 L 242.280,54.489 L 242.639,56.218 L 245.756,56.774 L 246.761,59.196 L 249.817,59.712 L 250.785,61.972 L 251.761,62.247 L 260.704,62.146 L 261.649,60.111 L 263.000,59.395 L 285.523,58.988 L 286.350,57.026 L 287.782,56.321 L 290.985,56.611 L 292.227,59.057 L 298.522,59.299 L 299.972,60.393 L 300.000,177.371 L 295.312,200.105 L 285.938,219.591 L 271.875,235.830 L 253.125,248.821 L 229.688,258.564 L 201.562,265.060 L 168.750,268.307 L 131.250,268.307 L 98.438,264.350 L 70.312,256.436 L 46.875,244.565 L 28.125,228.737 L 14.062,208.952 L 4.688,185.210 L 0.000,157.511 L 0.044,3.606 L 0.701,0.043 L 297.240,0.046 L 297.884,4.784 Z" fill="none" stroke="#FF0000" stroke-width="0.01mm" transform="translate(15.000,15.000)" /><path d="M 291.719,4.806 L 289.716,6.533 L 289.681,10.813 L 288.892,12.123 L 285.801,12.676 L 285.049,14.898 L 281.700,15.678 L 280.309,18.347 L 273.387,18.862 L 272.989,20.585 L 271.266,21.532 L 271.004,23.473 L 269.219,24.526 L 268.198,27.249 L 261.272,27.769 L 260.024,30.236 L 255.014,30.774 L 253.985,33.159 L 250.813,33.772 L 249.880,36.157 L 246.806,36.693 L 245.609,39.261 L 240.640,39.772 L 240.001,41.788 L 238.419,42.534 L 237.638,45.090 L 232.620,45.688 L 231.375,48.164 L 228.319,48.685 L 227.692,50.758 L 226.094,51.522 L 225.350,54.048 L 222.158,54.672 L 221.402,56.893 L 218.048,57.667 L 216.849,60.234 L 213.838,60.738 L 213.324,62.715 L 211.710,63.498 L 210.947,66.039 L 207.772,66.646 L 207.015,68.867 L 203.659,69.639 L 202.351,72.264 L 197.485,72.712 L 196.491,75.067 L 193.373,75.627 L 192.435,78.013 L 189.557,78.697 L 189.062,80.636 L 189.717,82.962 L 194.195,83.666 L 195.407,86.084 L 206.170,86.480 L 207.898,89.148 L 214.881,89.662 L 215.947,92.123 L 219.108,92.709 L 220.265,95.103 L 227.165,95.566 L 228.416,98.152 L 231.777,98.914 L 232.539,101.054 L 237.116,101.368 L 238.233,102.236 L 238.726,104.028 L 243.852,104.608 L 244.917,107.079 L 248.361,107.929 L 248.873,110.211 L 250.476,110.968 L 250.979,112.869 L 256.156,113.485 L 257.131,116.164 L 258.900,117.164 L 259.238,118.822 L 264.200,119.321 L 265.364,121.684 L 298.492,122.009 L 299.980,122.765 L 300.000,204.644 L 295.312,220.560 L 285.938,234.202 L 271.875,245.571 L 253.125,254.665 L 229.688,261.486 L 201.562,266.034 L 168.750,268.307 L 131.250,268.307 L 98.438,264.350 L 70.312,256.436 L 46.875,244.565 L 28.125,228.737 L 14.062,208.952 L 4.688,185.210 L 0.000,157.511 L 0.044,3.606 L 0.701,0.043 L 291.061,0.056 L 291.719,4.806 Z" fill="none" stroke="#0000FF" stroke-width="0.01mm" transform="translate(15.000,15.000)" /></g><g id="layer-03-water-142m-to-183m"><path d="M 291.719,4.806 L 289.716,6.533 L 289.681,10.813 L 288.892,12.123 L 285.801,12.676 L 285.049,14.898 L 281.700,15.678 L 280.309,18.347 L 273.387,18.862 L 272.989,20.585 L 271.266,21.532 L 271.004,23.473 L 269.219,24.526 L 268.198,27.249 L 261.272,27.769 L 260.024,30.236 L 255.014,30.774 L 253.985,33.159 L 250.813,33.772 L 249.880,36.157 L 246.806,36.693 L 245.609,39.261 L 240.640,39.772 L 240.001,41.788 L 238.419,42.534 L 237.638,45.090 L 232.620,45.688 L 231.375,48.164 L 228.319,48.685 L 227.692,50.758 L 226.094,51.522 L 225.350,54.048 L 222.158,54.672 L 221.402,56.893 L 218.048,57.667 L 216.849,60.234 L 213.838,60.738 L 213.324,62.715 L 211.710,63.498 L 210.947,66.039 L 207.772,66.646 L 207.015,68.867 L 203.659,69.639 L 202.351,72.264 L 197.485,72.712 L 196.491,75.067 L 193.373,75.627 L 192.435,78.013 L 189.557,78.697 L 189.062,80.636 L 189.717,82.962 L 194.195,83.666 L 195.407,86.084 L 206.170,86.480 L 207.898,89.148 L 214.881,89.662 L 215.947,92.123 L 219.108,92.709 L 220.265,95.103 L 227.165,95.566 L 228.416,98.152 L 231.777,98.914 L 232.539,101.054 L 237.116,101.368 L 238.233,102.236 L 238.726,104.028 L 243.852,104.608 L 244.917,107.079 L 248.361,107.929 L 248.873,110.211 L 250.476,110.968 L 250.979,112.869 L 256.156,113.485 L 257.131,116.164 L 258.900,117.164 L 259.238,118.822 L 264.200,119.321 L 265.364,121.684 L 298.492,122.009 L 299.980,122.765 L 300.000,204.644 L 295.312,220.560 L 285.938,234.202 L 271.875,245.571 L 253.125,254.665 L 229.688,261.486 L 201.562,266.034 L 168.750,268.307 L 131.250,268.307 L 98.438,264.350 L 70.312,256.436 L 46.875,244.565 L 28.125,228.737 L 14.062,208.952 L 4.688,185.210 L 0.000,157.511 L 0.044,3.606 L 0.701,0.043 L 291.061,0.056 L 291.719,4.806 Z" fill="none" stroke="#FF0000" stroke-width="0.01mm" transform="translate(15.000,15.000)" /><path d="M 88.103,179.001 L 88.159,171.878 L 88.819,170.550 L 93.190,170.301 L 94.240,173.034 L 96.030,174.084 L 96.300,176.026 L 98.264,175.873 L 98.899,173.802 L 100.503,173.043 L 100.922,170.876 L 102.571,170.058 L 102.657,165.633 L 104.641,164.085 L 105.186,158.778 L 108.702,157.883 L 109.097,156.090 L 110.840,155.129 L 111.113,153.189 L 112.906,152.144 L 113.877,149.463 L 122.859,148.932 L 123.714,146.900 L 125.165,146.182 L 130.349,146.437 L 131.401,149.169 L 133.168,150.175 L 133.535,151.926 L 136.964,152.738 L 137.587,155.147 L 139.412,156.260 L 139.649,158.135 L 141.428,159.161 L 141.712,161.123 L 143.467,162.107 L 143.774,164.111 L 145.377,164.872 L 146.009,166.944 L 149.375,167.712 L 149.964,170.086 L 151.582,170.867 L 152.100,172.842 L 159.624,173.617 L 160.589,178.675 L 163.806,179.643 L 164.414,182.034 L 166.077,182.873 L 166.480,185.020 L 168.128,185.840 L 168.545,188.007 L 170.164,188.787 L 170.683,190.762 L 173.751,191.285 L 174.714,193.546 L 175.695,193.823 L 184.679,193.739 L 186.528,191.089 L 192.974,190.975 L 198.221,191.110 L 199.887,193.723 L 207.097,193.790 L 209.218,191.069 L 217.813,190.709 L 218.617,188.732 L 219.892,187.975 L 230.098,187.698 L 231.044,185.664 L 232.395,184.948 L 253.481,184.907 L 254.934,185.847 L 255.305,187.870 L 255.636,185.866 L 257.023,184.908 L 275.706,184.499 L 277.146,182.020 L 282.114,181.491 L 283.328,179.012 L 288.166,178.575 L 288.934,176.412 L 292.281,175.650 L 293.583,173.022 L 299.047,172.845 L 299.942,173.309 L 300.000,226.768 L 295.312,237.153 L 285.938,246.054 L 271.875,253.472 L 253.125,259.406 L 229.688,263.857 L 201.562,266.824 L 168.750,268.307 L 131.250,268.307 L 98.438,264.350 L 70.312,256.436 L 46.875,244.565 L 28.125,228.737 L 14.062,208.952 L 4.688,185.210 L 0.000,157.511 L 0.044,3.606 L 0.687,0.055 L 285.051,0.231 L 285.581,7.621 L 284.791,9.135 L 277.664,9.793 L 276.520,12.193 L 273.468,12.717 L 272.957,14.631 L 271.248,15.557 L 270.962,17.541 L 269.201,18.551 L 269.004,20.360 L 267.916,21.402 L 252.837,21.909 L 252.312,23.813 L 250.715,24.578 L 250.308,26.747 L 248.666,27.571 L 248.199,29.818 L 244.735,30.723 L 243.703,33.185 L 236.610,33.806 L 235.463,36.205 L 232.310,36.803 L 231.376,39.187 L 228.203,39.799 L 227.690,41.776 L 226.077,42.559 L 225.443,44.987 L 222.043,45.786 L 221.530,47.763 L 219.916,48.546 L 219.507,50.715 L 217.864,51.537 L 217.063,54.109 L 211.867,54.766 L 210.835,57.150 L 207.660,57.760 L 206.724,60.144 L 203.548,60.754 L 202.612,63.137 L 199.436,63.747 L 198.500,66.130 L 195.323,66.739 L 194.386,69.123 L 191.209,69.731 L 190.293,72.100 L 187.095,72.723 L 186.178,75.092 L 183.080,75.637 L 182.450,77.710 L 180.850,78.472 L 180.438,80.640 L 178.793,81.461 L 178.321,83.707 L 174.850,84.606 L 173.773,87.094 L 166.513,87.768 L 165.984,89.670 L 164.383,90.432 L 163.878,92.715 L 160.437,93.575 L 159.419,96.021 L 154.125,96.734 L 153.627,98.636 L 152.026,99.397 L 151.386,101.823 L 147.979,102.616 L 147.462,104.592 L 145.845,105.372 L 145.431,107.540 L 143.785,108.360 L 142.938,110.959 L 137.968,111.500 L 136.715,113.973 L 133.552,114.563 L 133.034,116.539 L 131.417,117.318 L 131.013,125.441 L 129.764,126.242 L 125.398,126.509 L 124.752,128.523 L 123.158,129.279 L 122.888,131.224 L 125.119,132.696 L 125.191,136.314 L 124.563,137.683 L 123.159,138.227 L 122.651,140.509 L 121.386,141.194 L 118.314,141.061 L 117.268,140.075 L 116.973,138.220 L 116.526,140.428 L 114.629,141.227 L 114.870,145.318 L 114.262,146.621 L 108.884,147.408 L 107.961,149.700 L 104.758,150.314 L 103.906,152.618 L 100.629,153.297 L 99.994,155.368 L 98.390,156.127 L 98.388,158.102 L 100.387,159.751 L 99.853,164.478 L 96.486,165.241 L 95.965,167.153 L 94.709,168.024 L 81.837,168.484 L 81.573,170.045 L 85.040,170.352 L 85.985,173.022 L 87.739,174.008 L 88.103,179.001 Z" fill="none" stroke="#0000FF" stroke-width="0.01mm" transform="translate(15.000,15.000)" /><path d="M 63.538,215.831 L 63.174,217.605 L 63.227,217.791 L 63.538,215.831 Z" fill="none" stroke="#0000FF" stroke-width="0.01mm" transform="translate(15.000,15.000)" /><path d="M 71.465,208.846 L 73.605,208.850 L 74.438,206.267 L 77.438,205.497 L 78.393,200.458 L 82.163,199.883 L 82.088,195.130 L 83.958,193.931 L 84.535,191.576 L 86.035,190.916 L 86.031,188.972 L 84.356,188.109 L 83.971,185.979 L 79.525,185.951 L 78.181,185.131 L 77.783,182.983 L 75.821,181.500 L 76.002,176.981 L 75.192,179.229 L 73.588,179.987 L 73.571,181.870 L 75.574,183.564 L 75.625,193.916 L 77.599,195.446 L 77.633,202.103 L 76.552,203.672 L 73.611,204.119 L 73.090,206.093 L 71.469,206.871 L 71.465,208.846 Z" fill="none" stroke="#0000FF" stroke-width="0.01mm" transform="translate(15.000,15.000)" /><path d="M 79.872,172.996 L 79.789,171.051 L 79.511,173.032 L 79.872,172.996 Z" fill="none" stroke="#0000FF" stroke-width="0.01mm" transform="translate(15.000,15.000)" /><path d="M 77.803,175.980 L 77.720,174.035 L 77.441,176.016 L 77.803,175.980 Z" fill="none" stroke="#0000FF" stroke-width="0.01mm" transform="translate(15.000,15.000)" /></g><g id="layer-04-land-183m-to-228m"><path d="M 88.103,179.001 L 88.159,171.878 L 88.819,170.550 L 93.190,170.301 L 94.240,173.034 L 96.030,174.084 L 96.300,176.026 L 98.264,175.873 L 98.899,173.802 L 100.503,173.043 L 100.922,170.876 L 102.571,170.058 L 102.657,165.633 L 104.641,164.085 L 105.186,158.778 L 108.702,157.883 L 109.097,156.090 L 110.840,155.129 L 111.113,153.189 L 112.906,152.144 L 113.877,149.463 L 122.859,148.932 L 123.714,146.900 L 125.165,146.182 L 130.349,146.437 L 131.401,149.169 L 133.168,150.175 L 133.535,151.926 L 136.964,152.738 L 137.587,155.147 L 139.412,156.260 L 139.649,158.135 L 141.428,159.161 L 141.712,161.123 L 143.467,162.107 L 143.774,164.111 L 145.377,164.872 L 146.009,166.944 L 149.375,167.712 L 149.964,170.086 L 151.582,170.867 L 152.100,172.842 L 159.624,173.617 L 160.589,178.675 L 163.806,179.643 L 164.414,182.034 L 166.077,182.873 L 166.480,185.020 L 168.128,185.840 L 168.545,188.007 L 170.164,188.787 L 170.683,190.762 L 173.751,191.285 L 174.714,193.546 L 175.695,193.823 L 184.679,193.739 L 186.528,191.089 L 192.974,190.975 L 198.221,191.110 L 199.887,193.723 L 207.097,193.790 L 209.218,191.069 L 217.813,190.709 L 218.617,188.732 L 219.892,187.975 L 230.098,187.698 L 231.044,185.664 L 232.395,184.948 L 253.481,184.907 L 254.934,185.847 L 255.305,187.870 L 255.636,185.866 L 257.023,184.908 L 275.706,184.499 L 277.146,182.020 L 282.114,181.491 L 283.328,179.012 L 288.166,178.575 L 288.934,176.412 L 292.281,175.650 L 293.583,173.022 L 299.047,172.845 L 299.942,173.309 L 300.000,226.768 L 295.312,237.153 L 285.938,246.054 L 271.875,253.472 L 253.125,259.406 L 229.688,263.857 L 201.562,266.824 L 168.750,268.307 L 131.250,268.307 L 98.438,264.350 L 70.312,256.436 L 46.875,244.565 L 28.125,228.737 L 14.062,208.952 L 4.688,185.210 L 0.000,157.511 L 0.044,3.606 L 0.687,0.055 L 285.051,0.231 L 285.581,7.621 L 284.791,9.135 L 277.664,9.793 L 276.520,12.193 L 273.468,12.717 L 272.957,14.631 L 271.248,15.557 L 270.962,17.541 L 269.201,18.551 L 269.004,20.360 L 267.916,21.402 L 252.837,21.909 L 252.312,23.813 L 250.715,24.578 L 250.308,26.747 L 248.666,27.571 L 248.199,29.818 L 244.735,30.723 L 243.703,33.185 L 236.610,33.806 L 235.463,36.205 L 232.310,36.803 L 231.376,39.187 L 228.203,39.799 L 227.690,41.776 L 226.077,42.559 L 225.443,44.987 L 222.043,45.786 L 221.530,47.763 L 219.916,48.546 L 219.507,50.715 L 217.864,51.537 L 217.063,54.109 L 211.867,54.766 L 210.835,57.150 L 207.660,57.760 L 206.724,60.144 L 203.548,60.754 L 202.612,63.137 L 199.436,63.747 L 198.500,66.130 L 195.323,66.739 L 194.386,69.123 L 191.209,69.731 L 190.293,72.100 L 187.095,72.723 L 186.178,75.092 L 183.080,75.637 L 182.450,77.710 L 180.850,78.472 L 180.438,80.640 L 178.793,81.461 L 178.321,83.707 L 174.850,84.606 L 173.773,87.094 L 166.513,87.768 L 165.984,89.670 L 164.383,90.432 L 163.878,92.715 L 160.437,93.575 L 159.419,96.021 L 154.125,96.734 L 153.627,98.636 L 152.026,99.397 L 151.386,101.823 L 147.979,102.616 L 147.462,104.592 L 145.845,105.372 L 145.431,107.540 L 143.785,108.360 L 142.938,110.959 L 137.968,111.500 L 136.715,113.973 L 133.552,114.563 L 133.034,116.539 L 131.417,117.318 L 131.013,125.441 L 129.764,126.242 L 125.398,126.509 L 124.752,128.523 L 123.158,129.279 L 122.888,131.224 L 125.119,132.696 L 125.191,136.314 L 124.563,137.683 L 123.159,138.227 L 122.651,140.509 L 121.386,141.194 L 118.314,141.061 L 117.268,140.075 L 116.973,138.220 L 116.526,140.428 L 114.629,141.227 L 114.870,145.318 L 114.262,146.621 L 108.884,147.408 L 107.961,149.700 L 104.758,150.314 L 103.906,152.618 L 100.629,153.297 L 99.994,155.368 L 98.390,156.127 L 98.388,158.102 L 100.387,159.751 L 99.853,164.478 L 96.486,165.241 L 95.965,167.153 L 94.709,168.024 L 81.837,168.484 L 81.573,170.045 L 85.040,170.352 L 85.985,173.022 L 87.739,174.008 L 88.103,179.001 Z M 63.538,215.831 L 63.174,217.605 L 63.227,217.791 L 63.538,215.831 Z M 71.465,208.846 L 73.605,208.850 L 74.438,206.267 L 77.438,205.497 L 78.393,200.458 L 82.163,199.883 L 82.088,195.130 L 83.958,193.931 L 84.535,191.576 L 86.035,190.916 L 86.031,188.972 L 84.356,188.109 L 83.971,185.979 L 79.525,185.951 L 78.181,185.131 L 77.783,182.983 L 75.821,181.500 L 76.002,176.981 L 75.192,179.229 L 73.588,179.987 L 73.571,181.870 L 75.574,183.564 L 75.625,193.916 L 77.599,195.446 L 77.633,202.103 L 76.552,203.672 L 73.611,204.119 L 73.090,206.093 L 71.469,206.871 L 71.465,208.846 Z M 79.872,172.996 L 79.789,171.051 L 79.511,173.032 L 79.872,172.996 Z M 77.803,175.980 L 77.720,174.035 L 77.441,176.016 L 77.803,175.980 Z" fill="none" stroke="#FF0000" stroke-width="0.01mm" transform="translate(15.000,15.000)" /><path d="M 220.550,235.626 L 220.863,227.435 L 222.126,226.796 L 230.536,226.442 L 230.969,224.720 L 232.698,223.775 L 232.912,221.944 L 234.014,220.916 L 237.068,220.800 L 238.325,221.498 L 238.905,226.749 L 239.614,224.255 L 242.726,223.380 L 243.626,218.371 L 249.215,217.761 L 249.418,215.953 L 250.484,214.921 L 259.176,214.516 L 260.072,212.425 L 261.609,211.756 L 264.468,211.934 L 265.748,214.497 L 268.082,214.702 L 268.121,209.688 L 271.744,208.581 L 272.270,206.647 L 273.557,205.781 L 279.187,206.070 L 280.104,208.709 L 281.901,209.751 L 282.254,211.691 L 282.254,201.629 L 282.840,200.316 L 286.173,199.572 L 286.943,197.332 L 290.292,196.570 L 291.821,193.846 L 299.977,194.182 L 300.000,235.887 L 297.465,243.992 L 292.395,250.939 L 284.790,256.728 L 274.650,261.360 L 261.974,264.834 L 246.764,267.149 L 229.019,268.307 L 137.751,268.289 L 137.676,264.440 L 138.418,263.130 L 145.833,262.374 L 146.237,260.653 L 147.970,259.711 L 148.189,257.881 L 149.292,256.855 L 156.175,256.399 L 156.553,254.719 L 158.311,253.735 L 159.366,251.003 L 163.339,250.979 L 164.485,253.733 L 165.072,251.395 L 168.479,250.590 L 169.769,247.977 L 176.851,247.428 L 177.240,245.727 L 178.985,244.763 L 179.172,243.000 L 180.169,241.964 L 186.988,241.537 L 187.639,239.641 L 188.877,238.823 L 197.485,238.446 L 198.472,236.141 L 201.646,235.546 L 202.747,233.056 L 207.877,232.457 L 208.246,230.735 L 209.976,229.791 L 210.181,227.982 L 211.270,226.942 L 219.570,227.332 L 220.171,232.152 L 218.175,233.777 L 218.147,234.888 L 218.726,235.659 L 220.550,235.626 Z" fill="none" stroke="#0000FF" stroke-width="0.01mm" transform="translate(15.000,15.000)" /><path d="M 5.295,226.585 L 9.468,226.274 L 9.791,224.644 L 6.288,224.266 L 5.388,221.619 L 0.047,221.219 L 0.022,9.126 L 0.059,1.373 L 0.701,0.043 L 264.519,0.315 L 264.988,4.991 L 263.000,6.619 L 262.969,10.851 L 262.287,12.117 L 252.846,12.946 L 252.273,14.869 L 250.692,15.615 L 249.835,18.231 L 244.704,18.849 L 243.675,21.234 L 240.503,21.847 L 239.570,24.231 L 236.398,24.844 L 235.885,26.820 L 234.273,27.605 L 233.865,29.773 L 232.223,30.597 L 231.785,32.805 L 228.191,33.824 L 227.678,35.800 L 226.065,36.584 L 225.396,39.045 L 222.131,39.734 L 220.825,42.359 L 218.022,42.729 L 216.824,45.296 L 211.853,45.804 L 210.822,48.188 L 207.647,48.798 L 206.711,51.181 L 203.536,51.791 L 203.022,53.767 L 201.408,54.550 L 200.737,57.010 L 197.470,57.697 L 196.162,60.322 L 193.258,60.766 L 192.905,62.497 L 191.129,63.525 L 190.267,66.140 L 187.090,66.748 L 186.575,68.724 L 184.960,69.506 L 184.548,71.674 L 182.904,72.495 L 182.157,75.020 L 178.962,75.640 L 177.541,78.316 L 170.822,78.710 L 169.671,81.107 L 166.612,81.623 L 165.981,83.695 L 164.381,84.457 L 163.688,86.933 L 158.243,87.770 L 157.746,89.673 L 156.145,90.434 L 155.731,92.602 L 154.086,93.422 L 153.464,95.831 L 150.139,96.564 L 149.179,98.965 L 146.317,99.584 L 145.115,104.893 L 141.897,105.526 L 140.428,108.218 L 135.712,108.589 L 134.735,110.927 L 131.891,111.530 L 131.045,116.438 L 127.368,117.548 L 126.850,119.523 L 125.233,120.303 L 124.816,122.470 L 123.169,123.289 L 122.767,125.436 L 121.106,126.275 L 120.703,128.422 L 119.042,129.261 L 118.308,131.769 L 110.863,132.565 L 109.903,134.868 L 106.738,135.456 L 106.219,137.431 L 104.600,138.210 L 103.847,140.733 L 98.448,141.513 L 97.947,143.415 L 96.344,144.174 L 95.700,146.599 L 92.287,147.387 L 91.766,149.362 L 90.148,150.140 L 89.503,152.565 L 86.089,153.353 L 85.569,155.328 L 83.950,156.106 L 83.530,158.273 L 81.881,159.090 L 81.476,161.237 L 79.813,162.073 L 79.407,164.221 L 77.744,165.057 L 77.338,167.204 L 75.675,168.041 L 75.283,170.168 L 73.605,171.025 L 73.207,176.139 L 69.537,177.223 L 69.015,179.197 L 67.395,179.975 L 66.974,182.141 L 65.324,182.958 L 64.953,193.986 L 63.233,194.903 L 62.194,197.621 L 57.066,198.525 L 57.026,199.852 L 59.029,201.527 L 58.362,206.347 L 49.108,207.051 L 48.233,209.100 L 46.742,209.798 L 43.485,209.419 L 42.452,206.956 L 39.035,206.125 L 38.472,203.803 L 38.321,208.275 L 36.926,209.696 L 32.846,209.113 L 31.612,203.845 L 30.239,204.011 L 29.634,206.079 L 27.813,206.774 L 28.138,215.366 L 28.989,217.700 L 30.124,217.472 L 30.565,215.618 L 31.954,214.744 L 37.210,214.926 L 38.195,215.942 L 38.416,217.728 L 38.696,215.877 L 39.791,214.877 L 42.871,214.779 L 44.175,215.577 L 44.586,217.745 L 45.918,218.228 L 46.597,219.470 L 45.954,224.235 L 46.588,228.823 L 45.938,230.210 L 46.613,232.690 L 47.750,229.960 L 52.729,229.485 L 53.236,227.672 L 54.411,226.804 L 60.906,226.517 L 62.614,223.856 L 71.583,223.789 L 72.975,224.472 L 73.402,229.248 L 71.421,230.770 L 71.391,241.537 L 73.302,243.004 L 73.407,246.956 L 72.439,248.417 L 69.619,249.157 L 69.306,253.654 L 70.955,254.477 L 71.368,256.645 L 72.987,257.429 L 73.501,259.405 L 76.446,259.864 L 77.732,262.478 L 81.204,263.362 L 81.553,268.264 L 35.672,268.307 L 26.754,267.615 L 19.110,266.230 L 12.740,264.152 L 7.644,261.382 L 3.822,257.919 L 1.274,253.764 L 0.000,248.917 L 0.043,223.954 L 3.961,223.714 L 5.084,224.752 L 5.295,226.585 Z" fill="none" stroke="#0000FF" stroke-width="0.01mm" transform="translate(15.000,15.000)" /><path d="M 23.971,205.580 L 24.034,203.914 L 23.702,203.769 L 23.971,205.580 Z" fill="none" stroke="#0000FF" stroke-width="0.01mm" transform="translate(15.000,15.000)" /></g><g id="layer-05-land-228m-to-274m"><path d="M 220.550,235.626 L 220.863,227.435 L 222.126,226.796 L 230.536,226.442 L 230.969,224.720 L 232.698,223.775 L 232.912,221.944 L 234.014,220.916 L 237.068,220.800 L 238.325,221.498 L 238.905,226.749 L 239.614,224.255 L 242.726,223.380 L 243.626,218.371 L 249.215,217.761 L 249.418,215.953 L 250.484,214.921 L 259.176,214.516 L 260.072,212.425 L 261.609,211.756 L 264.468,211.934 L 265.748,214.497 L 268.082,214.702 L 268.121,209.688 L 271.744,208.581 L 272.270,206.647 L 273.557,205.781 L 279.187,206.070 L 280.104,208.709 L 281.901,209.751 L 282.254,211.691 L 282.254,201.629 L 282.840,200.316 L 286.173,199.572 L 286.943,197.332 L 290.292,196.570 L 291.821,193.846 L 299.977,194.182 L 300.000,235.887 L 297.465,243.992 L 292.395,250.939 L 284.790,256.728 L 274.650,261.360 L 261.974,264.834 L 246.764,267.149 L 229.019,268.307 L 137.751,268.289 L 137.676,264.440 L 138.418,263.130 L 145.833,262.374 L 146.237,260.653 L 147.970,259.711 L 148.189,257.881 L 149.292,256.855 L 156.175,256.399 L 156.553,254.719 L 158.311,253.735 L 159.366,251.003 L 163.339,250.979 L 164.485,253.733 L 165.072,251.395 L 168.479,250.590 L 169.769,247.977 L 176.851,247.428 L 177.240,245.727 L 178.985,244.763 L 179.172,243.000 L 180.169,241.964 L 186.988,241.537 L 187.639,239.641 L 188.877,238.823 L 197.485,238.446 L 198.472,236.141 L 201.646,235.546 L 202.747,233.056 L 207.877,232.457 L 208.246,230.735 L 209.976,229.791 L 210.181,227.982 L 211.270,226.942 L 219.570,227.332 L 220.171,232.152 L 218.175,233.777 L 218.147,234.888 L 218.726,235.659 L 220.550,235.626 Z" fill="none" stroke="#FF0000" stroke-width="0.01mm" transform="translate(15.000,15.000)" /><path d="M 5.295,226.585 L 9.468,226.274 L 9.791,224.644 L 6.288,224.266 L 5.388,221.619 L 0.047,221.219 L 0.022,9.126 L 0.059,1.373 L 0.701,0.043 L 264.519,0.315 L 264.988,4.991 L 263.000,6.619 L 262.969,10.851 L 262.287,12.117 L 252.846,12.946 L 252.273,14.869 L 250.692,15.615 L 249.835,18.231 L 244.704,18.849 L 243.675,21.234 L 240.503,21.847 L 239.570,24.231 L 236.398,24.844 L 235.885,26.820 L 234.273,27.605 L 233.865,29.773 L 232.223,30.597 L 231.785,32.805 L 228.191,33.824 L 227.678,35.800 L 226.065,36.584 L 225.396,39.045 L 222.131,39.734 L 220.825,42.359 L 218.022,42.729 L 216.824,45.296 L 211.853,45.804 L 210.822,48.188 L 207.647,48.798 L 206.711,51.181 L 203.536,51.791 L 203.022,53.767 L 201.408,54.550 L 200.737,57.010 L 197.470,57.697 L 196.162,60.322 L 193.258,60.766 L 192.905,62.497 L 191.129,63.525 L 190.267,66.140 L 187.090,66.748 L 186.575,68.724 L 184.960,69.506 L 184.548,71.674 L 182.904,72.495 L 182.157,75.020 L 178.962,75.640 L 177.541,78.316 L 170.822,78.710 L 169.671,81.107 L 166.612,81.623 L 165.981,83.695 L 164.381,84.457 L 163.688,86.933 L 158.243,87.770 L 157.746,89.673 L 156.145,90.434 L 155.731,92.602 L 154.086,93.422 L 153.464,95.831 L 150.139,96.564 L 149.179,98.965 L 146.317,99.584 L 145.115,104.893 L 141.897,105.526 L 140.428,108.218 L 135.712,108.589 L 134.735,110.927 L 131.891,111.530 L 131.045,116.438 L 127.368,117.548 L 126.850,119.523 L 125.233,120.303 L 124.816,122.470 L 123.169,123.289 L 122.767,125.436 L 121.106,126.275 L 120.703,128.422 L 119.042,129.261 L 118.308,131.769 L 110.863,132.565 L 109.903,134.868 L 106.738,135.456 L 106.219,137.431 L 104.600,138.210 L 103.847,140.733 L 98.448,141.513 L 97.947,143.415 L 96.344,144.174 L 95.700,146.599 L 92.287,147.387 L 91.766,149.362 L 90.148,150.140 L 89.503,152.565 L 86.089,153.353 L 85.569,155.328 L 83.950,156.106 L 83.530,158.273 L 81.881,159.090 L 81.476,161.237 L 79.813,162.073 L 79.407,164.221 L 77.744,165.057 L 77.338,167.204 L 75.675,168.041 L 75.283,170.168 L 73.605,171.025 L 73.207,176.139 L 69.537,177.223 L 69.015,179.197 L 67.395,179.975 L 66.974,182.141 L 65.324,182.958 L 64.953,193.986 L 63.233,194.903 L 62.194,197.621 L 57.066,198.525 L 57.026,199.852 L 59.029,201.527 L 58.362,206.347 L 49.108,207.051 L 48.233,209.100 L 46.742,209.798 L 43.485,209.419 L 42.452,206.956 L 39.035,206.125 L 38.472,203.803 L 38.321,208.275 L 36.926,209.696 L 32.846,209.113 L 31.612,203.845 L 30.239,204.011 L 29.634,206.079 L 27.813,206.774 L 28.138,215.366 L 28.989,217.700 L 30.124,217.472 L 30.565,215.618 L 31.954,214.744 L 37.210,214.926 L 38.195,215.942 L 38.416,217.728 L 38.696,215.877 L 39.791,214.877 L 42.871,214.779 L 44.175,215.577 L 44.586,217.745 L 45.918,218.228 L 46.597,219.470 L 45.954,224.235 L 46.588,228.823 L 45.938,230.210 L 46.613,232.690 L 47.750,229.960 L 52.729,229.485 L 53.236,227.672 L 54.411,226.804 L 60.906,226.517 L 62.614,223.856 L 71.583,223.789 L 72.975,224.472 L 73.402,229.248 L 71.421,230.770 L 71.391,241.537 L 73.302,243.004 L 73.407,246.956 L 72.439,248.417 L 69.619,249.157 L 69.306,253.654 L 70.955,254.477 L 71.368,256.645 L 72.987,257.429 L 73.501,259.405 L 76.446,259.864 L 77.732,262.478 L 81.204,263.362 L 81.553,268.264 L 35.672,268.307 L 26.754,267.615 L 19.110,266.230 L 12.740,264.152 L 7.644,261.382 L 3.822,257.919 L 1.274,253.764 L 0.000,248.917 L 0.043,223.954 L 3.961,223.714 L 5.084,224.752 L 5.295,226.585 Z M 23.971,205.580 L 24.034,203.914 L 23.702,203.769 L 23.971,205.580 Z" fill="none" stroke="#FF0000" stroke-width="0.01mm" transform="translate(15.000,15.000)" /><path d="M 226.475,250.674 L 236.790,250.329 L 237.495,248.260 L 240.849,247.502 L 242.134,244.887 L 249.019,244.418 L 250.332,241.915 L 257.281,241.409 L 257.972,239.451 L 259.335,238.663 L 266.050,238.650 L 267.604,239.825 L 267.686,244.226 L 265.752,245.616 L 265.804,253.566 L 266.155,251.561 L 267.910,250.572 L 268.134,248.719 L 269.293,247.688 L 273.016,247.850 L 274.114,250.555 L 274.916,247.981 L 280.140,247.315 L 281.690,244.661 L 287.239,244.694 L 288.278,245.688 L 288.549,247.518 L 289.128,245.178 L 292.532,244.362 L 293.836,241.734 L 299.987,241.851 L 300.000,256.737 L 297.982,259.630 L 293.947,262.109 L 287.893,264.175 L 279.822,265.828 L 269.733,267.068 L 243.501,268.307 L 170.848,268.274 L 170.785,264.364 L 171.696,262.998 L 176.763,262.458 L 177.251,260.664 L 178.366,259.793 L 182.966,259.466 L 183.980,257.097 L 189.168,256.473 L 190.677,253.838 L 197.340,253.476 L 199.039,250.810 L 219.405,250.456 L 220.377,250.254 L 221.377,247.965 L 224.135,247.692 L 225.773,248.200 L 226.475,250.674 Z" fill="none" stroke="#0000FF" stroke-width="0.01mm" transform="translate(15.000,15.000)" /><path d="M 31.291,200.476 L 16.343,201.120 L 15.109,206.104 L 11.736,206.860 L 10.766,209.258 L 7.894,209.866 L 7.237,214.383 L 5.336,215.646 L 4.593,218.151 L 0.052,218.227 L 0.022,9.126 L 0.059,1.373 L 0.701,0.043 L 248.081,0.360 L 248.282,5.717 L 244.579,6.899 L 244.067,8.876 L 242.456,9.660 L 242.049,11.829 L 240.407,12.653 L 240.014,14.802 L 238.359,15.645 L 237.965,17.794 L 236.310,18.637 L 235.930,20.766 L 234.260,21.629 L 233.881,23.758 L 232.211,24.621 L 231.542,27.082 L 222.041,27.953 L 221.056,30.259 L 217.903,30.855 L 216.846,33.321 L 212.030,33.776 L 210.783,36.251 L 207.630,36.847 L 207.116,38.823 L 205.503,39.606 L 205.093,41.775 L 203.450,42.597 L 202.814,45.024 L 199.513,45.744 L 198.205,48.369 L 195.303,48.814 L 194.788,50.790 L 193.175,51.572 L 192.822,56.648 L 189.140,57.783 L 188.625,59.759 L 187.010,60.541 L 186.599,62.710 L 184.955,63.531 L 184.558,65.679 L 182.899,66.520 L 182.502,68.669 L 180.843,69.510 L 180.170,71.970 L 176.054,72.369 L 174.170,69.668 L 168.566,69.841 L 168.035,71.744 L 166.436,72.506 L 166.023,74.674 L 164.378,75.494 L 163.965,77.662 L 162.320,78.483 L 161.816,80.766 L 158.376,81.625 L 157.745,83.698 L 156.144,84.459 L 155.863,86.421 L 154.085,87.447 L 153.849,89.322 L 152.026,90.435 L 151.455,92.791 L 145.886,93.746 L 145.388,95.648 L 143.787,96.409 L 143.181,101.788 L 139.838,102.538 L 138.391,105.221 L 133.653,105.601 L 133.008,107.614 L 131.422,108.356 L 130.763,110.798 L 127.372,111.573 L 126.854,113.548 L 125.237,114.328 L 124.820,116.495 L 123.174,117.314 L 122.984,122.065 L 121.108,123.287 L 120.535,125.643 L 119.044,126.273 L 118.402,128.699 L 115.091,129.412 L 114.622,131.240 L 113.527,132.137 L 106.740,132.561 L 106.192,134.482 L 104.604,135.222 L 103.812,137.776 L 98.583,138.434 L 97.936,140.447 L 96.348,141.187 L 95.613,143.694 L 92.391,144.323 L 91.388,146.752 L 88.262,147.304 L 87.297,149.703 L 84.430,150.318 L 83.703,155.014 L 80.128,156.472 L 79.664,160.758 L 77.749,162.070 L 77.329,164.237 L 73.788,165.204 L 73.152,167.275 L 71.548,168.033 L 71.378,172.715 L 69.472,174.004 L 68.911,176.341 L 67.401,176.987 L 67.256,181.600 L 65.324,182.958 L 65.179,187.571 L 63.246,188.928 L 63.108,193.518 L 61.168,194.899 L 60.466,197.373 L 56.247,197.696 L 55.249,196.693 L 55.002,194.884 L 54.719,196.780 L 52.901,197.867 L 52.198,200.341 L 48.398,200.800 L 47.121,199.919 L 46.607,198.005 L 43.292,197.280 L 42.487,195.083 L 37.760,194.698 L 36.398,192.079 L 34.332,191.840 L 33.937,193.968 L 32.258,194.823 L 32.187,199.127 L 31.291,200.476 Z" fill="none" stroke="#0000FF" stroke-width="0.01mm" transform="translate(15.000,15.000)" /><path d="M 14.203,223.991 L 13.902,215.799 L 15.329,214.707 L 18.637,214.879 L 19.610,215.907 L 19.792,217.671 L 21.570,218.703 L 21.848,220.665 L 23.589,221.634 L 23.905,223.660 L 25.633,224.607 L 25.962,226.654 L 27.796,227.794 L 28.472,235.298 L 31.381,236.097 L 32.126,238.623 L 34.010,239.875 L 34.137,243.800 L 33.493,245.113 L 34.131,246.444 L 34.091,252.908 L 32.078,254.572 L 31.552,259.841 L 28.093,260.690 L 26.793,263.298 L 23.946,263.664 L 22.711,266.237 L 15.755,266.701 L 15.280,268.270 L 6.677,268.307 L 3.577,266.649 L 0.715,260.014 L 0.000,252.827 L 0.028,232.902 L 3.111,232.396 L 4.591,229.709 L 9.326,229.354 L 10.371,226.975 L 13.567,226.381 L 14.203,223.991 Z" fill="none" stroke="#0000FF" stroke-width="0.01mm" transform="translate(15.000,15.000)" /></g><g id="layer-06-land-274m-to-319m"><path d="M 226.475,250.674 L 236.790,250.329 L 237.495,248.260 L 240.849,247.502 L 242.134,244.887 L 249.019,244.418 L 250.332,241.915 L 257.281,241.409 L 257.972,239.451 L 259.335,238.663 L 266.050,238.650 L 267.604,239.825 L 267.686,244.226 L 265.752,245.616 L 265.804,253.566 L 266.155,251.561 L 267.910,250.572 L 268.134,248.719 L 269.293,247.688 L 273.016,247.850 L 274.114,250.555 L 274.916,247.981 L 280.140,247.315 L 281.690,244.661 L 287.239,244.694 L 288.278,245.688 L 288.549,247.518 L 289.128,245.178 L 292.532,244.362 L 293.836,241.734 L 299.987,241.851 L 300.000,256.737 L 297.982,259.630 L 293.947,262.109 L 287.893,264.175 L 279.822,265.828 L 269.733,267.068 L 243.501,268.307 L 170.848,268.274 L 170.785,264.364 L 171.696,262.998 L 176.763,262.458 L 177.251,260.664 L 178.366,259.793 L 182.966,259.466 L 183.980,257.097 L 189.168,256.473 L 190.677,253.838 L 197.340,253.476 L 199.039,250.810 L 219.405,250.456 L 220.377,250.254 L 221.377,247.965 L 224.135,247.692 L 225.773,248.200 L 226.475,250.674 Z" fill="none" stroke="#FF0000" stroke-width="0.01mm" transform="translate(15.000,15.000)" /><path d="M 31.291,200.476 L 16.343,201.120 L 15.109,206.104 L 11.736,206.860 L 10.766,209.258 L 7.894,209.866 L 7.237,214.383 L 5.336,215.646 L 4.593,218.151 L 0.052,218.227 L 0.022,9.126 L 0.059,1.373 L 0.701,0.043 L 248.081,0.360 L 248.282,5.717 L 244.579,6.899 L 244.067,8.876 L 242.456,9.660 L 242.049,11.829 L 240.407,12.653 L 240.014,14.802 L 238.359,15.645 L 237.965,17.794 L 236.310,18.637 L 235.930,20.766 L 234.260,21.629 L 233.881,23.758 L 232.211,24.621 L 231.542,27.082 L 222.041,27.953 L 221.056,30.259 L 217.903,30.855 L 216.846,33.321 L 212.030,33.776 L 210.783,36.251 L 207.630,36.847 L 207.116,38.823 L 205.503,39.606 L 205.093,41.775 L 203.450,42.597 L 202.814,45.024 L 199.513,45.744 L 198.205,48.369 L 195.303,48.814 L 194.788,50.790 L 193.175,51.572 L 192.822,56.648 L 189.140,57.783 L 188.625,59.759 L 187.010,60.541 L 186.599,62.710 L 184.955,63.531 L 184.558,65.679 L 182.899,66.520 L 182.502,68.669 L 180.843,69.510 L 180.170,71.970 L 176.054,72.369 L 174.170,69.668 L 168.566,69.841 L 168.035,71.744 L 166.436,72.506 L 166.023,74.674 L 164.378,75.494 L 163.965,77.662 L 162.320,78.483 L 161.816,80.766 L 158.376,81.625 L 157.745,83.698 L 156.144,84.459 L 155.863,86.421 L 154.085,87.447 L 153.849,89.322 L 152.026,90.435 L 151.455,92.791 L 145.886,93.746 L 145.388,95.648 L 143.787,96.409 L 143.181,101.788 L 139.838,102.538 L 138.391,105.221 L 133.653,105.601 L 133.008,107.614 L 131.422,108.356 L 130.763,110.798 L 127.372,111.573 L 126.854,113.548 L 125.237,114.328 L 124.820,116.495 L 123.174,117.314 L 122.984,122.065 L 121.108,123.287 L 120.535,125.643 L 119.044,126.273 L 118.402,128.699 L 115.091,129.412 L 114.622,131.240 L 113.527,132.137 L 106.740,132.561 L 106.192,134.482 L 104.604,135.222 L 103.812,137.776 L 98.583,138.434 L 97.936,140.447 L 96.348,141.187 L 95.613,143.694 L 92.391,144.323 L 91.388,146.752 L 88.262,147.304 L 87.297,149.703 L 84.430,150.318 L 83.703,155.014 L 80.128,156.472 L 79.664,160.758 L 77.749,162.070 L 77.329,164.237 L 73.788,165.204 L 73.152,167.275 L 71.548,168.033 L 71.378,172.715 L 69.472,174.004 L 68.911,176.341 L 67.401,176.987 L 67.256,181.600 L 65.324,182.958 L 65.179,187.571 L 63.246,188.928 L 63.108,193.518 L 61.168,194.899 L 60.466,197.373 L 56.247,197.696 L 55.249,196.693 L 55.002,194.884 L 54.719,196.780 L 52.901,197.867 L 52.198,200.341 L 48.398,200.800 L 47.121,199.919 L 46.607,198.005 L 43.292,197.280 L 42.487,195.083 L 37.760,194.698 L 36.398,192.079 L 34.332,191.840 L 33.937,193.968 L 32.258,194.823 L 32.187,199.127 L 31.291,200.476 Z" fill="none" stroke="#FF0000" stroke-width="0.01mm" transform="translate(15.000,15.000)" /><path d="M 14.203,223.991 L 13.902,215.799 L 15.329,214.707 L 18.637,214.879 L 19.610,215.907 L 19.792,217.671 L 21.570,218.703 L 21.848,220.665 L 23.589,221.634 L 23.905,223.660 L 25.633,224.607 L 25.962,226.654 L 27.796,227.794 L 28.472,235.298 L 31.381,236.097 L 32.126,238.623 L 34.010,239.875 L 34.137,243.800 L 33.493,245.113 L 34.131,246.444 L 34.091,252.908 L 32.078,254.572 L 31.552,259.841 L 28.093,260.690 L 26.793,263.298 L 23.946,263.664 L 22.711,266.237 L 15.755,266.701 L 15.280,268.270 L 6.677,268.307 L 3.577,266.649 L 0.715,260.014 L 0.000,252.827 L 0.028,232.902 L 3.111,232.396 L 4.591,229.709 L 9.326,229.354 L 10.371,226.975 L 13.567,226.381 L 14.203,223.991 Z" fill="none" stroke="#FF0000" stroke-width="0.01mm" transform="translate(15.000,15.000)" /><path d="M 61.364,194.890 L 52.908,194.879 L 52.686,196.709 L 51.580,197.732 L 45.944,197.680 L 44.824,196.391 L 44.424,192.242 L 41.371,191.413 L 40.436,189.026 L 37.176,188.351 L 36.487,185.873 L 34.885,185.107 L 34.458,183.311 L 27.437,182.966 L 25.639,183.505 L 24.164,185.132 L 23.470,191.141 L 20.049,191.951 L 18.749,194.559 L 15.909,194.925 L 14.717,197.474 L 11.668,197.975 L 11.143,199.948 L 9.522,200.723 L 9.097,202.890 L 7.445,203.703 L 6.703,206.209 L 0.003,206.206 L 0.022,9.125 L 0.566,0.179 L 227.361,0.232 L 228.025,1.631 L 227.683,8.833 L 226.422,9.657 L 222.075,9.935 L 220.546,12.579 L 215.914,12.933 L 215.274,14.948 L 213.692,15.693 L 213.268,17.881 L 211.641,18.684 L 211.108,21.005 L 207.840,22.050 L 207.401,26.315 L 205.486,27.656 L 205.076,29.824 L 201.452,30.881 L 200.938,32.857 L 199.325,33.639 L 198.915,35.808 L 197.272,36.630 L 197.209,41.007 L 195.222,42.607 L 194.992,47.470 L 193.171,48.585 L 192.604,50.942 L 191.117,51.575 L 190.631,53.839 L 189.063,54.564 L 188.607,56.791 L 187.008,57.554 L 186.567,59.761 L 184.952,60.543 L 184.417,62.864 L 180.639,63.519 L 179.011,62.266 L 178.867,52.487 L 179.513,51.074 L 178.795,48.598 L 178.168,50.990 L 175.557,51.588 L 174.963,52.521 L 174.206,62.778 L 172.847,63.527 L 167.978,63.464 L 166.755,62.474 L 166.456,60.555 L 166.207,62.408 L 164.374,63.544 L 163.990,65.672 L 162.310,66.548 L 162.043,68.493 L 164.273,69.962 L 164.348,73.580 L 163.721,74.950 L 162.319,75.495 L 161.906,77.663 L 158.276,78.715 L 157.759,80.691 L 156.144,81.472 L 155.730,83.639 L 154.085,84.459 L 153.239,87.059 L 148.077,87.679 L 147.100,90.017 L 144.259,90.621 L 143.620,95.140 L 141.727,96.409 L 140.996,98.917 L 137.779,99.550 L 136.309,102.242 L 131.594,102.612 L 130.949,104.626 L 129.363,105.367 L 128.756,107.758 L 125.711,108.539 L 125.042,113.126 L 123.176,114.326 L 122.957,119.144 L 121.110,120.300 L 120.537,122.656 L 119.047,123.286 L 118.555,125.550 L 116.983,126.272 L 116.392,128.645 L 115.112,129.249 L 104.746,129.571 L 104.118,131.511 L 102.546,132.232 L 102.495,136.464 L 101.826,137.711 L 96.390,138.523 L 95.889,140.425 L 94.286,141.184 L 93.760,143.485 L 90.329,144.320 L 89.078,146.907 L 84.002,147.467 L 83.501,149.368 L 81.897,150.127 L 81.478,152.294 L 79.829,153.111 L 79.424,155.258 L 77.761,156.095 L 77.355,158.242 L 75.692,159.078 L 75.309,164.173 L 71.724,165.667 L 71.357,169.796 L 69.478,171.016 L 69.171,175.986 L 67.401,176.987 L 67.170,178.839 L 65.331,179.970 L 64.818,182.252 L 63.260,182.953 L 62.888,193.982 L 61.364,194.890 Z" fill="none" stroke="#0000FF" stroke-width="0.01mm" transform="translate(15.000,15.000)" /><path d="M 212.133,256.679 L 213.918,257.964 L 214.049,261.794 L 213.408,263.132 L 212.020,263.662 L 211.560,265.889 L 210.080,266.649 L 204.618,266.228 L 203.823,263.674 L 201.825,262.079 L 202.204,254.463 L 203.538,253.716 L 208.356,253.747 L 209.615,254.654 L 210.011,256.446 L 212.133,256.679 Z" fill="none" stroke="#0000FF" stroke-width="0.01mm" transform="translate(15.000,15.000)" /></g><g id="layer-07-land-319m-to-364m"><path d="M 61.364,194.890 L 52.908,194.879 L 52.686,196.709 L 51.580,197.732 L 45.944,197.680 L 44.824,196.391 L 44.424,192.242 L 41.371,191.413 L 40.436,189.026 L 37.176,188.351 L 36.487,185.873 L 34.885,185.107 L 34.458,183.311 L 27.437,182.966 L 25.639,183.505 L 24.164,185.132 L 23.470,191.141 L 20.049,191.951 L 18.749,194.559 L 15.909,194.925 L 14.717,197.474 L 11.668,197.975 L 11.143,199.948 L 9.522,200.723 L 9.097,202.890 L 7.445,203.703 L 6.703,206.209 L 0.003,206.206 L 0.022,9.125 L 0.566,0.179 L 227.361,0.232 L 228.025,1.631 L 227.683,8.833 L 226.422,9.657 L 222.075,9.935 L 220.546,12.579 L 215.914,12.933 L 215.274,14.948 L 213.692,15.693 L 213.268,17.881 L 211.641,18.684 L 211.108,21.005 L 207.840,22.050 L 207.401,26.315 L 205.486,27.656 L 205.076,29.824 L 201.452,30.881 L 200.938,32.857 L 199.325,33.639 L 198.915,35.808 L 197.272,36.630 L 197.209,41.007 L 195.222,42.607 L 194.992,47.470 L 193.171,48.585 L 192.604,50.942 L 191.117,51.575 L 190.631,53.839 L 189.063,54.564 L 188.607,56.791 L 187.008,57.554 L 186.567,59.761 L 184.952,60.543 L 184.417,62.864 L 180.639,63.519 L 179.011,62.266 L 178.867,52.487 L 179.513,51.074 L 178.795,48.598 L 178.168,50.990 L 175.557,51.588 L 174.963,52.521 L 174.206,62.778 L 172.847,63.527 L 167.978,63.464 L 166.755,62.474 L 166.456,60.555 L 166.207,62.408 L 164.374,63.544 L 163.990,65.672 L 162.310,66.548 L 162.043,68.493 L 164.273,69.962 L 164.348,73.580 L 163.721,74.950 L 162.319,75.495 L 161.906,77.663 L 158.276,78.715 L 157.759,80.691 L 156.144,81.472 L 155.730,83.639 L 154.085,84.459 L 153.239,87.059 L 148.077,87.679 L 147.100,90.017 L 144.259,90.621 L 143.620,95.140 L 141.727,96.409 L 140.996,98.917 L 137.779,99.550 L 136.309,102.242 L 131.594,102.612 L 130.949,104.626 L 129.363,105.367 L 128.756,107.758 L 125.711,108.539 L 125.042,113.126 L 123.176,114.326 L 122.957,119.144 L 121.110,120.300 L 120.537,122.656 L 119.047,123.286 L 118.555,125.550 L 116.983,126.272 L 116.392,128.645 L 115.112,129.249 L 104.746,129.571 L 104.118,131.511 L 102.546,132.232 L 102.495,136.464 L 101.826,137.711 L 96.390,138.523 L 95.889,140.425 L 94.286,141.184 L 93.760,143.485 L 90.329,144.320 L 89.078,146.907 L 84.002,147.467 L 83.501,149.368 L 81.897,150.127 L 81.478,152.294 L 79.829,153.111 L 79.424,155.258 L 77.761,156.095 L 77.355,158.242 L 75.692,159.078 L 75.309,164.173 L 71.724,165.667 L 71.357,169.796 L 69.478,171.016 L 69.171,175.986 L 67.401,176.987 L 67.170,178.839 L 65.331,179.970 L 64.818,182.252 L 63.260,182.953 L 62.888,193.982 L 61.364,194.890 Z" fill="none" stroke="#FF0000" stroke-width="0.01mm" transform="translate(15.000,15.000)" /><path d="M 212.133,256.679 L 213.918,257.964 L 214.049,261.794 L 213.408,263.132 L 212.020,263.662 L 211.560,265.889 L 210.080,266.649 L 204.618,266.228 L 203.823,263.674 L 201.825,262.079 L 202.204,254.463 L 203.538,253.716 L 208.356,253.747 L 209.615,254.654 L 210.011,256.446 L 212.133,256.679 Z" fill="none" stroke="#FF0000" stroke-width="0.01mm" transform="translate(15.000,15.000)" /><path d="M 10.019,158.914 L 8.387,161.731 L 3.299,161.849 L 1.804,160.895 L 1.491,158.868 L 0.019,158.250 L 0.044,3.604 L 0.701,0.042 L 196.727,0.473 L 197.068,11.482 L 195.927,12.598 L 193.208,12.965 L 192.693,14.941 L 191.080,15.723 L 190.670,17.891 L 189.028,18.713 L 188.320,21.206 L 183.034,21.937 L 182.392,23.952 L 180.809,24.696 L 180.101,27.188 L 174.814,27.919 L 173.304,30.553 L 162.307,30.679 L 162.033,32.642 L 163.844,33.342 L 164.439,35.412 L 167.206,35.792 L 168.339,36.980 L 168.269,47.447 L 166.426,48.605 L 166.096,50.651 L 164.370,51.593 L 164.065,53.598 L 162.313,54.582 L 162.033,56.543 L 160.256,57.570 L 160.021,59.445 L 158.199,60.558 L 157.561,62.984 L 151.751,63.561 L 151.928,74.018 L 149.967,75.497 L 149.237,78.005 L 146.320,78.811 L 145.374,86.705 L 144.030,87.434 L 139.159,87.368 L 137.936,86.376 L 137.611,84.458 L 137.195,89.613 L 135.985,90.389 L 133.213,90.451 L 133.156,95.465 L 131.428,96.406 L 130.620,98.975 L 127.611,99.764 L 127.154,104.051 L 125.242,105.365 L 124.719,107.666 L 121.590,108.816 L 120.636,119.557 L 119.243,120.290 L 106.656,120.718 L 106.221,122.512 L 104.618,123.272 L 104.201,125.439 L 102.553,126.257 L 102.429,130.824 L 100.484,132.229 L 99.991,134.493 L 94.463,135.440 L 93.816,137.453 L 92.228,138.193 L 92.176,142.425 L 91.507,143.672 L 79.845,144.148 L 79.476,149.222 L 77.772,150.120 L 76.920,152.717 L 73.646,153.423 L 72.957,155.574 L 73.527,160.583 L 71.560,162.058 L 70.965,164.431 L 69.213,165.055 L 69.208,169.968 L 67.414,171.012 L 67.172,172.886 L 65.344,173.995 L 64.732,176.385 L 61.678,177.581 L 61.140,190.095 L 60.443,191.430 L 56.239,191.711 L 55.016,188.909 L 54.722,190.827 L 53.473,191.822 L 45.578,191.485 L 44.769,190.005 L 45.032,182.928 L 39.221,182.348 L 38.568,179.904 L 36.668,178.606 L 36.215,174.294 L 33.109,173.417 L 32.374,170.923 L 32.016,172.926 L 30.623,173.875 L 25.598,173.805 L 24.449,172.902 L 24.075,171.221 L 20.621,170.886 L 17.954,171.201 L 16.645,173.691 L 13.833,173.848 L 12.264,173.141 L 11.499,171.086 L 4.480,170.524 L 3.566,169.107 L 3.738,165.019 L 4.948,163.943 L 9.363,163.239 L 10.019,158.914 Z" fill="none" stroke="#0000FF" stroke-width="0.01mm" transform="translate(15.000,15.000)" /><path d="M 21.785,154.920 L 25.757,155.753 L 26.358,157.787 L 28.241,157.485 L 28.320,155.973 L 26.647,155.108 L 26.267,152.979 L 24.594,152.114 L 24.213,149.985 L 22.555,149.140 L 22.090,146.990 L 21.785,154.920 Z" fill="none" stroke="#0000FF" stroke-width="0.01mm" transform="translate(15.000,15.000)" /></g><g id="layer-08-land-364m-to-410m"><path d="M 10.019,158.914 L 8.387,161.731 L 3.299,161.849 L 1.804,160.895 L 1.491,158.868 L 0.019,158.250 L 0.044,3.604 L 0.701,0.042 L 196.727,0.473 L 197.068,11.482 L 195.927,12.598 L 193.208,12.965 L 192.693,14.941 L 191.080,15.723 L 190.670,17.891 L 189.028,18.713 L 188.320,21.206 L 183.034,21.937 L 182.392,23.952 L 180.809,24.696 L 180.101,27.188 L 174.814,27.919 L 173.304,30.553 L 162.307,30.679 L 162.033,32.642 L 163.844,33.342 L 164.439,35.412 L 167.206,35.792 L 168.339,36.980 L 168.269,47.447 L 166.426,48.605 L 166.096,50.651 L 164.370,51.593 L 164.065,53.598 L 162.313,54.582 L 162.033,56.543 L 160.256,57.570 L 160.021,59.445 L 158.199,60.558 L 157.561,62.984 L 151.751,63.561 L 151.928,74.018 L 149.967,75.497 L 149.237,78.005 L 146.320,78.811 L 145.374,86.705 L 144.030,87.434 L 139.159,87.368 L 137.936,86.376 L 137.611,84.458 L 137.195,89.613 L 135.985,90.389 L 133.213,90.451 L 133.156,95.465 L 131.428,96.406 L 130.620,98.975 L 127.611,99.764 L 127.154,104.051 L 125.242,105.365 L 124.719,107.666 L 121.590,108.816 L 120.636,119.557 L 119.243,120.290 L 106.656,120.718 L 106.221,122.512 L 104.618,123.272 L 104.201,125.439 L 102.553,126.257 L 102.429,130.824 L 100.484,132.229 L 99.991,134.493 L 94.463,135.440 L 93.816,137.453 L 92.228,138.193 L 92.176,142.425 L 91.507,143.672 L 79.845,144.148 L 79.476,149.222 L 77.772,150.120 L 76.920,152.717 L 73.646,153.423 L 72.957,155.574 L 73.527,160.583 L 71.560,162.058 L 70.965,164.431 L 69.213,165.055 L 69.208,169.968 L 67.414,171.012 L 67.172,172.886 L 65.344,173.995 L 64.732,176.385 L 61.678,177.581 L 61.140,190.095 L 60.443,191.430 L 56.239,191.711 L 55.016,188.909 L 54.722,190.827 L 53.473,191.822 L 45.578,191.485 L 44.769,190.005 L 45.032,182.928 L 39.221,182.348 L 38.568,179.904 L 36.668,178.606 L 36.215,174.294 L 33.109,173.417 L 32.374,170.923 L 32.016,172.926 L 30.623,173.875 L 25.598,173.805 L 24.449,172.902 L 24.075,171.221 L 20.621,170.886 L 17.954,171.201 L 16.645,173.691 L 13.833,173.848 L 12.264,173.141 L 11.499,171.086 L 4.480,170.524 L 3.566,169.107 L 3.738,165.019 L 4.948,163.943 L 9.363,163.239 L 10.019,158.914 Z M 21.785,154.920 L 25.757,155.753 L 26.358,157.787 L 28.241,157.485 L 28.320,155.973 L 26.647,155.108 L 26.267,152.979 L 24.594,152.114 L 24.213,149.985 L 22.555,149.140 L 22.090,146.990 L 21.785,154.920 Z" fill="none" stroke="#FF0000" stroke-width="0.01mm" transform="translate(15.000,15.000)" /><path d="M 168.580,2.782 L 170.580,2.776 L 171.689,0.011 L 181.921,0.114 L 182.818,1.695 L 182.498,11.843 L 178.919,12.901 L 177.430,15.603 L 172.210,15.695 L 170.867,14.713 L 170.585,12.752 L 168.860,11.811 L 168.528,9.764 L 168.264,11.574 L 167.242,12.585 L 161.835,12.690 L 160.501,11.554 L 160.331,8.520 L 159.555,7.402 L 151.558,6.717 L 150.071,5.014 L 150.103,1.369 L 151.148,0.013 L 167.349,0.012 L 168.580,2.782 Z" fill="none" stroke="#0000FF" stroke-width="0.01mm" transform="translate(15.000,15.000)" /><path d="M 8.236,2.525 L 8.939,0.056 L 148.853,0.014 L 149.936,1.635 L 149.896,14.171 L 148.418,15.685 L 143.517,15.727 L 143.825,23.695 L 144.109,21.798 L 145.320,20.792 L 150.208,20.721 L 151.521,21.412 L 152.025,23.695 L 153.544,24.363 L 154.081,26.683 L 156.041,28.161 L 156.054,38.119 L 154.611,39.580 L 149.968,39.644 L 149.909,43.975 L 148.959,45.341 L 143.796,45.619 L 142.723,48.364 L 137.664,48.931 L 136.946,51.083 L 137.587,52.398 L 137.446,56.322 L 136.303,57.437 L 133.678,57.722 L 133.046,59.794 L 131.446,60.555 L 131.399,64.786 L 130.732,66.034 L 127.499,66.682 L 127.032,68.510 L 125.914,69.415 L 119.357,69.741 L 118.584,71.792 L 117.030,72.495 L 117.394,74.162 L 122.760,75.256 L 123.202,77.463 L 125.142,78.873 L 125.146,83.020 L 123.984,84.301 L 121.310,84.603 L 120.764,86.556 L 119.391,87.413 L 115.931,87.087 L 114.960,84.442 L 114.280,86.920 L 114.922,88.260 L 114.717,92.294 L 113.447,93.334 L 110.555,93.422 L 110.831,95.378 L 112.785,96.835 L 112.744,101.029 L 110.823,102.366 L 110.267,104.703 L 108.760,105.351 L 108.152,107.742 L 105.106,108.661 L 104.567,115.650 L 103.636,117.003 L 100.330,117.278 L 98.971,116.528 L 98.519,111.314 L 96.874,110.492 L 96.462,108.324 L 94.832,107.521 L 94.406,105.333 L 92.821,104.589 L 92.356,102.358 L 92.001,102.321 L 92.196,109.731 L 90.208,111.302 L 89.510,113.777 L 82.132,114.431 L 80.987,116.957 L 77.555,117.276 L 77.785,121.440 L 76.936,122.870 L 69.843,123.448 L 68.518,125.945 L 65.009,126.134 L 63.717,125.122 L 63.462,123.203 L 61.609,122.019 L 61.446,118.076 L 62.512,116.446 L 65.466,115.988 L 65.830,114.228 L 62.432,113.957 L 61.062,111.401 L 56.342,111.004 L 54.986,108.477 L 48.043,107.960 L 47.101,106.699 L 46.721,102.622 L 44.899,102.243 L 44.768,106.811 L 42.822,108.214 L 42.357,110.439 L 38.865,111.345 L 37.479,113.996 L 33.128,114.534 L 32.292,118.932 L 30.714,120.110 L 27.923,120.062 L 26.667,119.112 L 26.397,111.153 L 24.483,109.809 L 24.356,105.172 L 22.228,105.165 L 21.534,110.610 L 15.748,111.138 L 15.669,122.106 L 13.924,123.062 L 12.946,125.741 L 9.376,125.980 L 8.147,125.109 L 7.639,123.272 L 2.493,122.647 L 1.637,120.030 L 0.026,119.248 L 0.047,4.360 L 0.695,3.025 L 2.078,2.502 L 2.762,0.045 L 7.506,0.053 L 8.236,2.525 Z" fill="none" stroke="#0000FF" stroke-width="0.01mm" transform="translate(15.000,15.000)" /><path d="M 142.033,14.609 L 141.720,12.988 L 139.416,12.775 L 139.865,14.577 L 142.033,14.609 Z" fill="none" stroke="#0000FF" stroke-width="0.01mm" transform="translate(15.000,15.000)" /><path d="M 141.812,40.108 L 141.464,39.664 L 141.804,41.622 L 141.812,40.108 Z" fill="none" stroke="#0000FF" stroke-width="0.01mm" transform="translate(15.000,15.000)" /><path d="M 106.724,92.232 L 106.774,90.565 L 106.452,90.421 L 106.724,92.232 Z" fill="none" stroke="#0000FF" stroke-width="0.01mm" transform="translate(15.000,15.000)" /><path d="M 90.217,101.312 L 90.301,99.368 L 89.946,99.331 L 90.217,101.312 Z" fill="none" stroke="#0000FF" stroke-width="0.01mm" transform="translate(15.000,15.000)" /><path d="M 88.168,98.336 L 88.285,97.630 L 88.198,96.361 L 88.168,98.336 Z" fill="none" stroke="#0000FF" stroke-width="0.01mm" transform="translate(15.000,15.000)" /><path d="M 67.246,113.248 L 67.656,112.530 L 67.568,111.261 L 67.246,113.248 Z" fill="none" stroke="#0000FF" stroke-width="0.01mm" transform="translate(15.000,15.000)" /></g><g id="layer-09-land-410m-to-455m"><path d="M 168.580,2.782 L 170.580,2.776 L 171.689,0.011 L 181.921,0.114 L 182.818,1.695 L 182.498,11.843 L 178.919,12.901 L 177.430,15.603 L 172.210,15.695 L 170.867,14.713 L 170.585,12.752 L 168.860,11.811 L 168.528,9.764 L 168.264,11.574 L 167.242,12.585 L 161.835,12.690 L 160.501,11.554 L 160.331,8.520 L 159.555,7.402 L 151.558,6.717 L 150.071,5.014 L 150.103,1.369 L 151.148,0.013 L 167.349,0.012 L 168.580,2.782 Z" fill="none" stroke="#FF0000" stroke-width="0.01mm" transform="translate(15.000,15.000)" /><path d="M 8.236,2.525 L 8.939,0.056 L 148.853,0.014 L 149.936,1.635 L 149.896,14.171 L 148.418,15.685 L 143.517,15.727 L 143.825,23.695 L 144.109,21.798 L 145.320,20.792 L 150.208,20.721 L 151.521,21.412 L 152.025,23.695 L 153.544,24.363 L 154.081,26.683 L 156.041,28.161 L 156.054,38.119 L 154.611,39.580 L 149.968,39.644 L 149.909,43.975 L 148.959,45.341 L 143.796,45.619 L 142.723,48.364 L 137.664,48.931 L 136.946,51.083 L 137.587,52.398 L 137.446,56.322 L 136.303,57.437 L 133.678,57.722 L 133.046,59.794 L 131.446,60.555 L 131.399,64.786 L 130.732,66.034 L 127.499,66.682 L 127.032,68.510 L 125.914,69.415 L 119.357,69.741 L 118.584,71.792 L 117.030,72.495 L 117.394,74.162 L 122.760,75.256 L 123.202,77.463 L 125.142,78.873 L 125.146,83.020 L 123.984,84.301 L 121.310,84.603 L 120.764,86.556 L 119.391,87.413 L 115.931,87.087 L 114.960,84.442 L 114.280,86.920 L 114.922,88.260 L 114.717,92.294 L 113.447,93.334 L 110.555,93.422 L 110.831,95.378 L 112.785,96.835 L 112.744,101.029 L 110.823,102.366 L 110.267,104.703 L 108.760,105.351 L 108.152,107.742 L 105.106,108.661 L 104.567,115.650 L 103.636,117.003 L 100.330,117.278 L 98.971,116.528 L 98.519,111.314 L 96.874,110.492 L 96.462,108.324 L 94.832,107.521 L 94.406,105.333 L 92.821,104.589 L 92.356,102.358 L 92.001,102.321 L 92.196,109.731 L 90.208,111.302 L 89.510,113.777 L 82.132,114.431 L 80.987,116.957 L 77.555,117.276 L 77.785,121.440 L 76.936,122.870 L 69.843,123.448 L 68.518,125.945 L 65.009,126.134 L 63.717,125.122 L 63.462,123.203 L 61.609,122.019 L 61.446,118.076 L 62.512,116.446 L 65.466,115.988 L 65.830,114.228 L 62.432,113.957 L 61.062,111.401 L 56.342,111.004 L 54.986,108.477 L 48.043,107.960 L 47.101,106.699 L 46.721,102.622 L 44.899,102.243 L 44.768,106.811 L 42.822,108.214 L 42.357,110.439 L 38.865,111.345 L 37.479,113.996 L 33.128,114.534 L 32.292,118.932 L 30.714,120.110 L 27.923,120.062 L 26.667,119.112 L 26.397,111.153 L 24.483,109.809 L 24.356,105.172 L 22.228,105.165 L 21.534,110.610 L 15.748,111.138 L 15.669,122.106 L 13.924,123.062 L 12.946,125.741 L 9.376,125.980 L 8.147,125.109 L 7.639,123.272 L 2.493,122.647 L 1.637,120.030 L 0.026,119.248 L 0.047,4.360 L 0.695,3.025 L 2.078,2.502 L 2.762,0.045 L 7.506,0.053 L 8.236,2.525 Z M 142.033,14.609 L 141.720,12.988 L 139.416,12.775 L 139.865,14.577 L 142.033,14.609 Z M 141.812,40.108 L 141.464,39.664 L 141.804,41.622 L 141.812,40.108 Z M 106.724,92.232 L 106.774,90.565 L 106.452,90.421 L 106.724,92.232 Z M 90.217,101.312 L 90.301,99.368 L 89.946,99.331 L 90.217,101.312 Z M 88.168,98.336 L 88.285,97.630 L 88.198,96.361 L 88.168,98.336 Z M 67.246,113.248 L 67.656,112.530 L 67.568,111.261 L 67.246,113.248 Z" fill="none" stroke="#FF0000" stroke-width="0.01mm" transform="translate(15.000,15.000)" /></g><g id="frame"><path d="M -15.000,313.307 L -15.000,15.000 L 315.000,15.000 L 315.000,313.307 L -15.000,313.307 Z M 300.000,30.000 L 0.000,30.000 L 0.000,298.307 L 300.000,298.307 L 300.000,30.000 Z" fill="none" stroke="#FF0000" stroke-width="0.01mm" transform="translate(15.000,15.000)" /></g></svg>