<?xml version="1.0" encoding="utf-8" ?>
<svg baseProfile="full" height="308.14mm" version="1.1" viewBox="0 0 300.00 308.14" width="300.00mm" xmlns="http://www.w3.org/2000/svg" xmlns:ev="http://www.w3.org/2001/xml-events" xmlns:xlink="http://www.w3.org/1999/xlink"><defs /><title>topo2laser output</title><g id="layer-00-land-223m-to-238m"><path d="M 300.000,173.329 L 300.000,134.811 L 295.312,101.109 L 285.938,72.220 L 271.875,48.147 L 253.125,28.888 L 229.688,14.444 L 201.562,4.815 L 168.750,0.000 L 131.250,0.000 L 98.438,4.815 L 70.312,14.444 L 46.875,28.888 L 28.125,48.147 L 14.062,72.220 L 4.688,101.109 L 0.000,134.811 L 0.000,173.329 L 4.688,207.032 L 14.062,235.920 L 28.125,259.993 L 46.875,279.252 L 70.312,293.696 L 98.438,303.326 L 131.250,308.140 L 168.750,308.140 L 201.562,303.326 L 229.688,293.696 L 253.125,279.252 L 271.875,259.993 L 285.938,235.920 L 295.312,207.032 L 300.000,173.329 Z" fill="none" stroke="#FF0000" stroke-width="0.01mm" transform="translate(0.000,0.000)" /><path d="M 109.934,24.862 L 115.067,18.082 L 115.484,16.287 L 118.547,13.521 L 119.807,10.263 L 122.021,8.583 L 122.766,6.796 L 125.849,5.603 L 127.434,3.552 L 133.665,2.071 L 134.755,0.831 L 137.936,0.002 L 166.936,0.005 L 170.089,1.840 L 170.556,0.645 L 176.182,0.230 L 230.357,0.018 L 233.277,4.084 L 234.910,9.209 L 235.991,10.410 L 238.348,8.445 L 241.804,7.571 L 244.075,5.369 L 249.632,5.754 L 253.924,7.756 L 255.326,9.247 L 255.281,16.021 L 254.185,20.260 L 251.615,24.430 L 251.240,26.868 L 248.894,29.819 L 249.319,31.017 L 254.950,28.344 L 258.629,27.629 L 261.120,24.997 L 264.495,18.267 L 272.004,14.981 L 278.721,15.386 L 281.555,18.575 L 285.953,18.857 L 290.399,17.601 L 293.725,17.753 L 299.422,19.668 L 299.927,99.777 L 298.201,99.135 L 295.581,95.176 L 294.800,92.212 L 295.000,87.973 L 293.643,86.163 L 293.675,83.197 L 289.152,86.297 L 285.984,86.141 L 284.236,82.352 L 284.338,78.691 L 281.882,81.626 L 276.880,84.128 L 265.618,83.593 L 264.216,84.925 L 256.342,85.386 L 253.271,86.754 L 242.736,85.386 L 240.946,86.725 L 235.779,87.405 L 229.611,93.092 L 225.035,93.119 L 221.864,98.535 L 218.263,99.824 L 216.994,101.137 L 214.991,101.131 L 210.045,99.183 L 208.505,97.515 L 207.880,98.080 L 207.493,102.822 L 204.365,105.692 L 199.442,113.024 L 189.611,120.844 L 183.411,120.817 L 182.971,123.713 L 180.821,124.918 L 179.919,126.458 L 177.518,127.467 L 177.022,131.119 L 172.914,135.856 L 174.155,135.978 L 177.611,133.936 L 179.879,133.934 L 181.669,131.820 L 187.625,131.216 L 189.107,129.835 L 192.398,129.961 L 193.648,130.800 L 194.922,130.112 L 195.681,126.742 L 198.763,125.549 L 199.951,123.737 L 202.939,122.622 L 204.050,120.872 L 206.922,119.173 L 209.191,118.971 L 210.206,117.779 L 215.348,116.186 L 217.162,114.841 L 221.823,114.978 L 226.702,113.677 L 234.838,107.325 L 239.135,106.476 L 240.261,104.719 L 242.591,103.657 L 246.937,103.715 L 250.076,101.664 L 257.260,102.032 L 260.912,103.184 L 262.399,104.661 L 266.997,105.046 L 268.707,106.638 L 274.233,108.734 L 277.997,111.934 L 281.895,113.756 L 285.123,119.547 L 284.774,125.685 L 283.535,128.021 L 281.626,129.509 L 273.390,130.910 L 273.587,137.978 L 270.342,140.429 L 269.372,142.772 L 264.595,145.190 L 262.046,144.740 L 256.476,145.869 L 256.617,153.727 L 254.393,156.729 L 251.669,158.362 L 251.213,163.738 L 246.087,171.509 L 245.656,173.324 L 238.486,178.199 L 237.183,183.641 L 234.190,187.234 L 231.159,189.066 L 229.702,191.167 L 226.811,192.212 L 225.527,194.094 L 222.637,195.137 L 221.886,196.485 L 223.307,195.927 L 227.016,196.588 L 227.624,198.867 L 226.682,201.579 L 228.940,202.964 L 229.331,200.557 L 232.346,197.011 L 237.439,195.899 L 238.725,194.593 L 242.515,193.884 L 248.336,194.183 L 249.813,193.510 L 254.237,194.468 L 253.045,189.023 L 257.881,178.400 L 263.696,173.987 L 268.392,173.133 L 270.815,171.687 L 270.364,166.500 L 271.437,163.632 L 277.124,156.100 L 281.555,152.212 L 285.756,150.385 L 288.081,148.266 L 292.991,147.701 L 299.937,150.743 L 300.000,239.298 L 295.312,256.508 L 285.938,271.260 L 271.875,283.554 L 253.125,293.388 L 229.688,300.764 L 201.562,305.682 L 168.750,308.140 L 131.250,308.140 L 98.438,303.326 L 70.312,293.696 L 46.875,279.252 L 28.125,259.993 L 14.062,235.920 L 4.688,207.032 L 0.000,173.329 L 0.000,134.811 L 1.940,101.109 L 5.821,72.220 L 11.641,48.147 L 19.402,28.888 L 29.103,14.444 L 40.744,4.815 L 54.326,0.000 L 124.173,0.053 L 123.533,1.712 L 119.923,3.686 L 118.276,5.575 L 117.988,7.837 L 115.546,10.981 L 112.471,20.150 L 110.019,23.321 L 109.934,24.862 Z" fill="none" stroke="#0000FF" stroke-width="0.01mm" transform="translate(0.000,0.000)" /><path d="M 215.767,199.713 L 218.853,198.865 L 219.478,197.855 L 215.767,199.713 Z" fill="none" stroke="#0000FF" stroke-width="0.01mm" transform="translate(0.000,0.000)" /><path d="M 215.312,200.012 L 215.268,200.067 L 215.350,199.992 L 215.312,200.012 Z" fill="none" stroke="#0000FF" stroke-width="0.01mm" transform="translate(0.000,0.000)" /><path d="M 212.269,201.384 L 211.805,203.155 L 212.567,203.203 L 213.448,200.964 L 212.269,201.384 Z" fill="none" stroke="#0000FF" stroke-width="0.01mm" transform="translate(0.000,0.000)" /><path d="M 219.977,197.502 L 219.923,197.551 L 219.895,197.576 L 219.977,197.502 Z" fill="none" stroke="#0000FF" stroke-width="0.01mm" transform="translate(0.000,0.000)" /></g></svg>