<?xml version="1.0" encoding="utf-8" ?>
<svg baseProfile="full" height="230.75mm" version="1.1" viewBox="0 0 300.00 230.75" width="300.00mm" xmlns="http://www.w3.org/2000/svg" xmlns:ev="http://www.w3.org/2001/xml-events" xmlns:xlink="http://www.w3.org/1999/xlink"><defs /><title>topo2laser output</title><g id="layer-05-land-1517m-to-1686m"><path d="M 249.964,230.744 L 251.481,227.062 L 255.380,226.000 L 260.308,229.549 L 260.179,227.108 L 257.090,224.394 L 256.360,222.242 L 257.071,220.307 L 258.826,219.015 L 258.049,216.614 L 259.436,214.759 L 258.053,212.246 L 258.027,210.415 L 261.028,207.988 L 263.226,207.640 L 265.716,209.124 L 266.464,213.506 L 269.805,212.280 L 272.239,213.561 L 273.253,215.578 L 272.546,219.620 L 274.417,223.439 L 276.156,221.146 L 277.408,216.931 L 279.698,215.832 L 280.303,210.655 L 283.371,210.215 L 284.861,208.671 L 286.724,209.006 L 285.621,206.018 L 286.706,203.916 L 291.610,203.592 L 293.301,207.523 L 295.133,206.268 L 297.698,207.806 L 299.991,206.966 L 300.000,220.345 L 299.218,222.946 L 297.655,225.176 L 292.182,228.520 L 278.110,230.750 L 249.964,230.744 Z" fill="none" stroke="#FF0000" stroke-width="0.01mm" transform="translate(0.000,0.000)" /><path d="M 0.265,20.403 L 1.737,19.805 L 0.008,18.316 L 0.348,11.728 L 5.945,12.557 L 8.245,14.667 L 13.926,13.717 L 18.603,18.834 L 18.058,15.200 L 18.877,13.413 L 18.597,11.234 L 22.928,6.109 L 24.531,5.383 L 23.760,4.928 L 22.292,5.690 L 16.841,9.773 L 14.751,9.740 L 12.097,3.864 L 14.961,0.010 L 274.562,0.057 L 274.313,1.265 L 275.471,0.003 L 289.269,0.000 L 294.251,0.925 L 297.701,3.084 L 300.000,8.635 L 299.953,19.747 L 295.952,19.110 L 295.224,19.823 L 298.059,22.327 L 297.958,25.646 L 299.924,25.089 L 299.891,77.281 L 298.058,77.323 L 294.611,75.842 L 294.317,77.193 L 298.166,80.111 L 299.973,79.564 L 299.948,128.359 L 295.605,130.818 L 293.694,129.988 L 292.521,128.403 L 292.395,125.919 L 295.120,119.907 L 295.819,115.114 L 293.915,119.116 L 291.816,120.470 L 288.864,120.005 L 286.849,117.081 L 285.512,118.414 L 283.548,118.200 L 281.712,115.922 L 280.939,117.910 L 278.902,119.168 L 282.855,121.350 L 284.176,124.002 L 283.873,125.819 L 282.690,126.900 L 282.606,128.861 L 280.293,130.180 L 279.287,132.855 L 284.449,132.040 L 285.819,132.797 L 286.355,134.242 L 280.825,142.260 L 282.593,141.865 L 284.327,142.614 L 285.283,145.923 L 286.765,146.533 L 288.382,148.740 L 287.801,151.673 L 288.698,153.464 L 290.554,152.906 L 292.033,153.874 L 292.287,155.342 L 291.336,157.537 L 291.685,160.805 L 289.114,165.302 L 286.497,166.210 L 284.671,169.904 L 282.447,170.493 L 279.564,169.792 L 279.037,167.465 L 275.206,168.942 L 273.301,167.901 L 273.085,166.231 L 275.895,157.929 L 275.329,157.391 L 271.183,162.568 L 269.322,162.431 L 267.753,160.476 L 266.513,162.784 L 264.747,173.883 L 263.621,175.462 L 262.222,175.928 L 260.551,175.194 L 259.720,173.077 L 257.175,174.288 L 255.341,173.088 L 255.738,169.505 L 258.073,166.439 L 253.181,168.230 L 251.731,167.540 L 251.151,166.090 L 251.444,163.768 L 256.208,156.749 L 257.740,152.736 L 261.818,147.607 L 260.301,147.343 L 259.245,146.004 L 259.756,148.075 L 258.959,149.516 L 256.215,149.338 L 255.486,151.507 L 252.860,151.676 L 252.292,154.069 L 249.442,154.488 L 248.109,156.679 L 245.509,156.209 L 244.875,161.094 L 240.720,164.456 L 238.059,164.678 L 236.765,162.728 L 238.918,158.097 L 239.136,154.877 L 242.364,149.202 L 240.581,147.815 L 239.816,150.156 L 237.181,150.822 L 235.873,152.709 L 233.775,153.022 L 232.831,156.217 L 229.711,156.495 L 227.839,157.756 L 228.483,160.930 L 226.128,162.424 L 225.013,164.354 L 222.908,164.360 L 221.550,161.400 L 218.865,160.653 L 218.664,158.073 L 221.938,155.987 L 220.220,154.459 L 220.425,152.446 L 222.183,151.420 L 227.162,150.644 L 227.800,148.191 L 220.101,147.266 L 218.036,145.679 L 215.330,147.640 L 213.651,147.779 L 210.508,145.523 L 210.853,142.822 L 214.620,141.074 L 215.096,138.374 L 217.356,137.001 L 218.929,137.592 L 219.558,139.839 L 222.740,142.433 L 224.697,141.707 L 225.041,139.067 L 227.658,138.470 L 226.758,136.123 L 228.292,134.481 L 232.518,134.890 L 235.439,137.334 L 234.366,133.601 L 235.146,131.904 L 238.324,131.438 L 240.281,129.679 L 242.361,130.266 L 243.780,127.981 L 248.652,127.351 L 241.726,126.066 L 239.883,123.848 L 240.262,121.016 L 239.172,122.727 L 238.604,126.883 L 237.091,127.851 L 235.136,127.643 L 233.744,125.685 L 233.226,119.607 L 229.343,126.781 L 227.414,126.553 L 226.254,124.650 L 222.473,125.965 L 220.202,124.381 L 220.136,121.994 L 221.822,119.493 L 221.991,116.896 L 223.263,115.883 L 227.330,115.427 L 232.183,108.319 L 233.964,107.193 L 234.104,104.428 L 237.064,101.581 L 237.293,100.219 L 234.337,102.504 L 232.346,105.907 L 228.101,110.212 L 226.783,110.807 L 224.681,109.531 L 224.298,104.885 L 224.503,103.099 L 226.323,100.708 L 223.921,102.023 L 221.101,101.603 L 222.370,103.726 L 222.423,107.131 L 220.428,110.234 L 218.889,111.083 L 217.027,110.343 L 216.036,106.952 L 213.872,106.058 L 212.199,102.526 L 212.020,104.674 L 213.876,109.624 L 214.888,116.800 L 213.409,117.886 L 211.602,117.423 L 206.639,110.022 L 207.210,114.586 L 205.098,116.795 L 208.067,119.103 L 208.411,121.842 L 212.210,124.869 L 212.686,128.141 L 210.136,129.840 L 208.528,129.895 L 206.407,127.194 L 202.869,124.588 L 202.491,128.792 L 201.435,130.479 L 199.872,130.936 L 197.991,129.271 L 198.102,125.816 L 196.990,126.372 L 195.919,128.400 L 196.223,131.506 L 194.116,133.325 L 193.290,138.727 L 191.964,140.285 L 190.318,140.263 L 189.185,139.040 L 188.303,130.976 L 185.738,132.802 L 184.909,134.954 L 183.641,135.774 L 182.208,135.611 L 178.391,133.036 L 178.731,130.800 L 184.231,127.317 L 185.709,124.987 L 183.751,125.881 L 181.597,125.321 L 177.391,126.480 L 176.043,125.678 L 175.231,123.536 L 170.863,126.748 L 169.461,129.913 L 167.755,130.160 L 164.821,128.962 L 164.021,127.534 L 164.265,126.045 L 171.006,120.739 L 170.441,118.082 L 171.503,116.176 L 178.476,117.028 L 180.486,116.490 L 182.349,117.185 L 183.877,116.303 L 185.946,116.429 L 184.390,115.435 L 183.889,114.008 L 184.378,111.626 L 185.877,110.068 L 178.734,113.115 L 175.944,112.272 L 175.007,109.819 L 176.352,107.286 L 178.961,107.445 L 181.156,106.271 L 178.885,103.936 L 179.983,101.542 L 186.466,102.351 L 188.076,101.231 L 191.662,100.491 L 190.088,98.957 L 185.018,98.180 L 182.899,95.101 L 184.168,93.168 L 188.171,92.814 L 186.738,89.478 L 187.763,87.570 L 190.518,87.700 L 193.149,89.502 L 192.498,86.993 L 190.995,85.292 L 191.506,82.350 L 195.442,80.813 L 197.031,80.744 L 198.359,81.651 L 202.251,80.220 L 196.063,78.160 L 194.967,76.360 L 195.959,74.079 L 198.511,72.404 L 197.793,68.784 L 199.482,66.615 L 199.752,60.865 L 197.993,61.938 L 198.590,63.385 L 198.168,65.457 L 194.949,67.211 L 192.652,66.727 L 185.536,61.231 L 190.847,66.290 L 192.813,71.413 L 191.270,73.907 L 189.145,75.368 L 186.909,75.203 L 184.552,73.082 L 186.407,77.693 L 184.803,80.445 L 182.120,80.331 L 180.688,79.024 L 180.223,77.337 L 175.754,74.724 L 174.249,75.369 L 172.650,74.918 L 172.820,76.015 L 177.426,77.544 L 179.160,83.546 L 177.928,84.832 L 175.957,84.692 L 175.524,86.493 L 173.908,87.573 L 168.831,86.246 L 165.125,86.550 L 164.683,87.707 L 170.583,89.482 L 173.993,92.726 L 174.404,94.420 L 172.755,96.203 L 170.274,96.470 L 170.234,98.206 L 169.033,99.301 L 167.165,99.220 L 164.650,97.665 L 163.840,99.239 L 166.277,101.792 L 166.542,103.442 L 165.033,104.966 L 161.113,104.791 L 160.710,105.939 L 162.073,107.851 L 162.276,109.962 L 161.886,112.521 L 160.601,113.622 L 158.493,113.123 L 155.438,108.314 L 154.011,99.138 L 152.820,99.016 L 150.436,111.364 L 148.404,112.864 L 146.216,111.704 L 145.267,110.209 L 146.087,105.969 L 145.279,100.446 L 143.807,104.555 L 141.721,105.389 L 139.006,102.256 L 139.450,99.772 L 137.870,99.952 L 136.598,99.085 L 136.198,97.299 L 137.656,91.576 L 139.667,89.633 L 141.343,85.680 L 137.962,89.026 L 136.177,89.420 L 135.555,93.194 L 133.777,94.691 L 132.250,94.287 L 130.780,92.527 L 128.060,91.758 L 125.202,88.129 L 122.931,88.005 L 126.041,95.020 L 128.354,96.426 L 128.195,100.475 L 131.240,100.796 L 132.517,101.913 L 132.349,104.345 L 129.625,105.638 L 129.928,107.085 L 132.835,109.195 L 133.381,110.767 L 132.075,112.924 L 127.500,113.500 L 123.752,110.525 L 123.588,115.592 L 121.002,117.111 L 119.353,116.547 L 118.401,115.122 L 118.685,108.447 L 115.310,109.008 L 113.713,107.230 L 114.129,105.600 L 116.236,104.106 L 115.208,102.811 L 114.007,98.176 L 116.897,95.689 L 117.254,93.307 L 115.456,93.357 L 113.710,92.335 L 112.844,94.490 L 110.714,94.983 L 109.230,96.388 L 108.960,99.473 L 106.879,101.394 L 105.363,101.716 L 103.564,100.510 L 103.247,97.478 L 101.206,96.232 L 101.377,93.631 L 99.203,94.976 L 97.103,93.840 L 94.759,93.901 L 93.559,92.725 L 93.631,90.900 L 91.907,90.310 L 93.200,94.825 L 97.726,98.938 L 97.269,101.700 L 98.685,103.467 L 98.266,105.863 L 95.684,106.698 L 95.389,107.629 L 97.979,108.678 L 98.445,111.090 L 96.566,112.622 L 94.233,113.098 L 93.833,114.532 L 97.057,116.257 L 97.586,120.263 L 96.938,122.889 L 94.821,124.620 L 92.984,124.957 L 91.442,124.104 L 86.480,125.027 L 85.007,121.898 L 87.116,118.562 L 85.142,116.201 L 85.211,113.931 L 82.597,113.019 L 81.596,111.053 L 81.789,109.312 L 83.838,106.941 L 84.834,103.795 L 81.015,104.078 L 78.314,106.941 L 75.801,105.791 L 74.324,109.859 L 74.425,113.761 L 73.536,114.984 L 72.024,115.258 L 69.264,114.156 L 66.432,115.107 L 64.834,114.196 L 64.494,112.469 L 65.562,109.920 L 69.041,106.101 L 69.106,104.232 L 60.317,102.751 L 59.061,100.408 L 60.821,98.613 L 68.805,97.343 L 68.200,95.297 L 65.495,94.047 L 64.583,92.225 L 65.351,90.577 L 68.621,88.780 L 73.577,87.764 L 74.627,88.790 L 75.630,92.114 L 77.411,85.940 L 79.042,84.982 L 80.818,85.567 L 81.366,84.699 L 79.815,83.674 L 78.331,79.914 L 78.990,78.341 L 80.652,77.623 L 81.036,75.546 L 82.277,74.785 L 84.733,74.831 L 87.120,72.537 L 90.247,73.960 L 90.550,72.171 L 92.289,71.119 L 90.521,68.866 L 91.144,66.346 L 95.285,64.497 L 98.180,58.388 L 100.045,57.863 L 101.507,58.796 L 102.278,56.716 L 101.027,55.829 L 100.637,54.336 L 102.274,47.984 L 99.804,53.721 L 98.132,54.247 L 97.183,56.037 L 93.988,58.139 L 91.729,60.829 L 88.700,61.727 L 87.487,63.650 L 85.557,64.333 L 82.613,67.767 L 78.885,68.729 L 77.437,66.945 L 78.364,63.658 L 75.996,61.779 L 75.497,59.914 L 76.760,57.949 L 79.707,57.101 L 77.712,56.885 L 76.429,55.425 L 77.787,49.779 L 75.215,51.673 L 73.037,50.335 L 72.835,45.009 L 73.840,42.004 L 73.132,39.663 L 72.455,42.413 L 70.695,43.954 L 70.894,46.434 L 69.380,48.138 L 70.755,53.036 L 68.894,55.837 L 69.911,57.108 L 69.948,58.699 L 68.433,60.307 L 65.850,60.326 L 65.062,61.671 L 67.395,62.082 L 68.426,63.407 L 67.941,65.533 L 68.699,67.864 L 67.287,69.656 L 67.835,73.717 L 66.803,74.792 L 65.293,74.962 L 60.620,71.278 L 59.138,71.607 L 59.768,75.114 L 58.220,76.185 L 57.038,78.587 L 53.763,78.414 L 54.004,80.985 L 52.650,83.004 L 52.161,86.606 L 49.084,88.688 L 47.627,88.109 L 46.936,86.096 L 45.097,84.738 L 44.838,83.242 L 45.601,81.964 L 43.961,79.754 L 44.625,78.101 L 46.846,77.186 L 47.960,74.167 L 45.749,74.183 L 44.492,73.336 L 44.153,71.556 L 45.321,69.990 L 43.141,68.718 L 42.685,66.821 L 45.891,62.854 L 51.308,63.173 L 47.574,59.761 L 47.358,56.147 L 48.003,54.805 L 54.752,52.354 L 56.399,52.488 L 56.648,51.788 L 49.402,52.512 L 48.022,51.188 L 47.151,47.554 L 46.872,52.180 L 45.629,53.476 L 43.800,53.655 L 43.964,55.443 L 42.494,58.428 L 40.761,59.424 L 37.968,59.117 L 37.228,61.823 L 35.395,62.684 L 31.820,61.712 L 31.209,59.486 L 29.909,58.662 L 29.078,56.093 L 27.626,54.863 L 27.322,51.992 L 25.374,51.827 L 23.892,49.769 L 26.686,56.595 L 26.305,58.628 L 27.467,64.282 L 28.691,65.420 L 29.468,68.464 L 31.244,70.265 L 31.516,73.482 L 30.464,75.058 L 28.522,75.154 L 21.548,68.936 L 19.591,73.105 L 20.681,74.400 L 20.752,75.865 L 18.578,77.949 L 18.004,79.747 L 20.018,81.831 L 20.802,85.303 L 19.534,87.071 L 17.797,87.366 L 13.148,81.109 L 8.852,80.595 L 7.626,78.794 L 8.388,77.112 L 12.526,74.976 L 12.866,74.230 L 11.292,71.936 L 11.348,70.287 L 12.872,67.505 L 15.277,66.924 L 16.006,64.409 L 18.775,62.025 L 17.186,61.078 L 16.512,58.967 L 12.739,59.822 L 11.314,59.375 L 10.257,55.935 L 7.271,54.877 L 6.622,52.754 L 9.139,49.906 L 15.582,50.460 L 15.034,48.881 L 15.706,46.620 L 14.058,47.037 L 12.541,46.410 L 11.842,44.692 L 12.640,41.833 L 10.666,41.575 L 9.496,40.369 L 9.400,38.928 L 10.501,37.009 L 8.535,35.512 L 8.839,33.397 L 7.253,31.362 L 7.366,27.477 L 3.205,29.697 L 2.347,33.605 L 0.070,34.705 L 0.265,20.403 Z M 276.018,119.097 L 276.296,119.529 L 276.914,119.299 L 276.018,119.097 Z M 101.545,93.409 L 102.245,92.605 L 102.608,91.836 L 101.545,93.409 Z M 102.666,45.328 L 102.936,45.263 L 102.940,45.237 L 102.666,45.328 Z M 121.177,85.136 L 121.062,84.974 L 121.168,85.158 L 121.177,85.136 Z M 142.233,84.527 L 142.274,84.301 L 142.207,84.536 L 142.233,84.527 Z" fill="none" stroke="#FF0000" stroke-width="0.01mm" transform="translate(0.000,0.000)" /><path d="M 3.951,129.037 L 7.883,125.295 L 10.578,124.690 L 12.100,123.092 L 13.853,123.163 L 16.549,120.891 L 21.159,120.302 L 24.856,121.335 L 25.889,120.122 L 27.462,119.815 L 30.637,122.781 L 34.990,118.972 L 37.886,119.607 L 38.384,122.507 L 33.262,126.778 L 32.417,128.837 L 29.425,130.649 L 26.581,133.886 L 24.255,133.869 L 21.605,135.400 L 18.095,138.561 L 17.260,140.777 L 14.931,142.210 L 15.843,143.660 L 23.999,137.053 L 34.658,135.418 L 36.739,136.476 L 36.886,138.521 L 34.682,140.755 L 34.159,142.655 L 29.597,145.657 L 29.073,147.069 L 25.877,150.106 L 21.164,152.915 L 21.914,154.815 L 43.454,140.336 L 45.306,140.845 L 46.063,142.655 L 48.486,144.713 L 47.199,148.734 L 47.324,152.574 L 50.059,148.976 L 52.750,148.737 L 55.425,146.848 L 57.493,147.318 L 58.233,149.051 L 57.799,152.215 L 60.138,154.617 L 58.845,157.724 L 60.065,159.487 L 59.851,163.339 L 59.268,165.404 L 56.611,168.446 L 54.872,173.041 L 52.663,175.331 L 54.517,174.454 L 56.470,175.159 L 59.736,168.153 L 64.910,165.716 L 65.871,163.022 L 69.166,160.477 L 71.616,159.920 L 74.247,155.917 L 75.691,155.206 L 77.790,156.365 L 78.054,159.995 L 79.862,159.862 L 81.074,160.709 L 81.391,163.870 L 83.000,164.380 L 84.881,163.342 L 87.049,163.911 L 88.338,166.630 L 90.413,167.584 L 91.690,170.933 L 91.840,167.365 L 93.984,164.831 L 93.463,161.978 L 95.178,159.974 L 94.669,158.835 L 91.462,157.056 L 91.544,154.477 L 95.120,151.511 L 98.675,150.769 L 101.641,154.013 L 102.007,156.871 L 104.075,158.985 L 106.023,156.062 L 106.022,151.432 L 108.965,149.632 L 110.831,150.741 L 110.758,153.465 L 111.802,155.428 L 115.177,155.790 L 117.563,158.584 L 118.670,155.526 L 121.118,153.327 L 122.109,150.480 L 125.500,150.209 L 127.730,152.625 L 127.861,156.640 L 125.582,159.567 L 126.089,161.375 L 125.430,164.438 L 123.300,166.687 L 122.301,169.281 L 124.666,169.741 L 126.118,168.820 L 128.002,165.797 L 130.835,164.105 L 131.495,160.191 L 135.625,157.421 L 139.172,159.256 L 139.124,163.841 L 141.954,163.129 L 143.741,164.793 L 145.517,165.083 L 146.502,167.482 L 150.894,169.329 L 152.823,172.109 L 152.069,168.580 L 152.600,167.077 L 150.624,162.819 L 151.171,161.483 L 153.013,160.293 L 150.813,157.384 L 150.622,155.809 L 152.045,154.377 L 154.556,154.773 L 156.019,151.701 L 158.292,151.287 L 160.936,153.040 L 161.652,154.579 L 159.293,160.095 L 162.617,160.487 L 163.838,161.855 L 162.486,167.240 L 164.273,167.496 L 167.068,169.937 L 166.987,167.246 L 167.824,165.282 L 169.401,164.426 L 171.002,164.954 L 172.657,170.286 L 174.181,170.319 L 175.311,171.329 L 175.649,175.519 L 177.636,177.976 L 178.649,176.621 L 180.436,176.460 L 179.829,173.595 L 180.349,170.563 L 182.295,168.017 L 184.473,168.001 L 186.681,169.814 L 191.018,167.583 L 194.072,169.199 L 194.444,174.463 L 188.756,178.649 L 187.902,180.039 L 188.342,181.230 L 193.493,182.065 L 199.972,188.106 L 198.927,190.816 L 194.000,191.731 L 198.140,195.092 L 198.605,197.002 L 191.287,203.546 L 192.051,205.519 L 196.326,202.223 L 198.813,201.684 L 200.666,202.563 L 200.749,205.107 L 196.095,210.017 L 198.347,210.234 L 201.159,214.172 L 199.698,210.617 L 200.543,208.357 L 202.155,207.707 L 205.152,207.968 L 207.190,210.629 L 208.258,207.718 L 210.369,207.123 L 211.687,208.160 L 213.716,212.337 L 212.872,216.322 L 213.884,214.781 L 215.640,214.251 L 219.406,215.295 L 221.088,217.187 L 221.619,217.215 L 217.171,212.345 L 215.900,207.112 L 215.781,202.684 L 214.408,200.256 L 217.237,194.901 L 219.672,194.408 L 220.910,195.847 L 220.823,199.745 L 223.043,202.376 L 222.322,204.812 L 222.728,206.700 L 226.408,205.156 L 230.698,206.461 L 231.313,208.705 L 229.788,211.144 L 231.236,212.348 L 231.326,214.346 L 233.529,212.860 L 235.563,212.928 L 237.361,214.532 L 239.338,218.687 L 239.562,213.297 L 240.902,211.845 L 244.170,212.526 L 245.368,214.585 L 249.514,213.501 L 252.103,214.647 L 252.890,217.852 L 251.154,222.326 L 251.334,224.883 L 248.860,228.526 L 249.465,230.715 L 109.137,230.750 L 81.853,229.172 L 58.466,226.014 L 38.977,221.279 L 23.386,214.964 L 11.693,207.072 L 3.898,197.600 L 0.000,186.550 L 0.014,129.720 L 1.551,130.190 L 3.951,129.037 Z M 153.006,173.173 L 153.063,173.216 L 153.013,173.084 L 153.006,173.173 Z" fill="none" stroke="#FF0000" stroke-width="0.01mm" transform="translate(0.000,0.000)" /><path d="M 0.210,111.434 L 3.307,108.777 L 5.064,109.072 L 5.978,110.461 L 5.821,113.694 L 3.038,121.720 L 4.611,123.151 L 4.798,124.813 L 3.054,126.725 L 0.708,127.496 L 0.010,127.391 L 0.210,111.434 Z" fill="none" stroke="#FF0000" stroke-width="0.01mm" transform="translate(0.000,0.000)" /><path d="M 260.001,220.837 L 262.294,217.847 L 265.307,217.449 L 267.435,215.751 L 268.961,215.870 L 270.059,217.435 L 269.542,219.643 L 273.096,227.365 L 275.518,224.354 L 277.437,223.369 L 279.331,219.376 L 281.083,219.205 L 283.937,220.987 L 283.441,217.592 L 282.264,215.427 L 283.735,212.567 L 285.711,211.686 L 287.296,211.976 L 290.051,209.073 L 291.498,209.361 L 292.615,210.736 L 295.021,208.997 L 298.399,210.483 L 299.999,209.929 L 299.416,223.918 L 296.497,227.497 L 291.243,229.774 L 283.654,230.750 L 262.630,230.684 L 262.259,226.460 L 259.840,222.798 L 260.001,220.837 Z" fill="none" stroke="#0000FF" stroke-width="0.01mm" transform="translate(0.000,0.000)" /><path d="M 294.116,125.693 L 295.455,121.473 L 297.185,119.460 L 297.694,114.298 L 299.919,112.711 L 299.952,124.503 L 297.969,128.137 L 296.326,129.292 L 294.100,128.390 L 294.116,125.693 Z" fill="none" stroke="#0000FF" stroke-width="0.01mm" transform="translate(0.000,0.000)" /><path d="M 0.353,21.722 L 2.537,20.092 L 0.031,17.913 L 0.050,12.150 L 5.846,13.183 L 8.295,15.136 L 9.930,14.732 L 12.542,15.732 L 16.516,21.719 L 16.929,28.663 L 18.703,31.033 L 20.778,32.104 L 21.831,30.576 L 19.565,28.539 L 19.096,26.740 L 21.566,23.623 L 22.293,21.312 L 21.578,16.236 L 23.654,13.595 L 21.738,12.006 L 21.940,9.196 L 24.157,7.010 L 25.812,6.558 L 30.130,8.899 L 30.479,6.597 L 32.580,5.734 L 31.582,2.879 L 32.640,0.052 L 272.633,0.034 L 271.987,2.663 L 269.650,4.140 L 269.944,5.758 L 269.162,7.199 L 266.296,9.679 L 263.835,10.133 L 264.108,11.730 L 265.146,11.763 L 270.088,7.404 L 272.776,8.165 L 274.157,7.437 L 275.647,7.770 L 275.085,4.162 L 277.784,0.600 L 285.146,0.001 L 286.177,1.711 L 286.412,1.806 L 285.764,0.073 L 293.771,0.000 L 296.663,0.787 L 298.665,2.625 L 299.778,5.511 L 299.951,16.808 L 296.986,16.856 L 294.718,15.646 L 293.981,17.979 L 292.787,19.035 L 289.008,19.907 L 287.369,19.163 L 282.520,22.254 L 286.769,22.039 L 288.461,25.020 L 290.926,22.425 L 292.509,22.516 L 293.740,23.555 L 294.272,25.532 L 293.149,32.976 L 293.532,37.429 L 294.699,36.623 L 294.426,34.457 L 296.040,30.681 L 298.499,28.530 L 299.927,28.254 L 299.903,74.791 L 295.082,72.508 L 293.647,69.722 L 294.085,67.030 L 290.931,66.202 L 289.100,63.347 L 288.469,67.291 L 289.546,68.478 L 289.436,70.730 L 290.871,72.230 L 291.185,74.852 L 289.652,76.822 L 283.552,78.220 L 286.351,78.424 L 288.981,79.822 L 291.287,78.816 L 293.120,79.094 L 295.645,83.481 L 294.787,86.518 L 299.999,87.141 L 299.962,105.537 L 298.929,107.774 L 295.820,110.010 L 294.524,113.253 L 293.066,114.744 L 292.907,116.838 L 291.561,118.349 L 289.850,118.393 L 288.628,117.403 L 287.522,111.987 L 288.604,109.508 L 287.104,109.400 L 286.027,108.380 L 285.320,110.139 L 285.527,113.551 L 284.649,114.808 L 282.258,114.706 L 279.945,110.961 L 278.078,110.242 L 279.986,114.833 L 279.550,117.103 L 277.614,117.951 L 275.298,117.292 L 273.606,118.024 L 271.593,117.667 L 274.788,119.215 L 275.115,121.807 L 278.491,120.584 L 281.265,121.707 L 282.462,123.043 L 282.376,124.808 L 280.921,125.992 L 280.861,128.193 L 278.927,129.354 L 279.244,130.975 L 278.194,134.498 L 276.097,136.042 L 277.542,136.622 L 278.570,134.728 L 281.289,133.197 L 282.757,133.279 L 283.784,134.310 L 283.849,136.061 L 280.213,141.896 L 280.081,143.745 L 281.777,142.614 L 283.534,142.986 L 284.590,147.772 L 286.666,149.028 L 286.113,151.768 L 288.114,157.065 L 287.985,162.935 L 286.465,164.266 L 284.951,164.179 L 283.782,163.060 L 280.162,165.598 L 277.697,166.332 L 276.137,165.807 L 275.426,163.909 L 277.136,157.228 L 275.961,155.076 L 272.080,159.417 L 270.174,159.746 L 268.711,158.918 L 266.545,154.472 L 264.560,152.677 L 265.031,146.618 L 266.314,144.622 L 264.535,143.042 L 263.727,144.865 L 262.320,145.559 L 260.508,145.106 L 259.607,143.803 L 258.446,145.639 L 255.734,146.462 L 250.539,152.691 L 246.585,154.671 L 243.682,153.630 L 242.546,151.995 L 243.060,150.262 L 245.658,148.374 L 242.402,148.091 L 239.202,144.839 L 239.712,147.473 L 239.113,149.164 L 236.884,150.001 L 235.304,151.811 L 232.253,152.630 L 229.864,151.728 L 229.028,147.940 L 224.347,145.802 L 224.109,144.057 L 225.813,142.466 L 225.991,140.557 L 227.165,139.588 L 229.142,139.535 L 229.027,137.766 L 229.874,136.569 L 232.263,136.340 L 236.114,139.898 L 237.568,137.868 L 236.112,134.791 L 237.307,132.533 L 240.850,130.795 L 243.556,132.091 L 243.224,129.699 L 244.924,128.238 L 251.145,128.054 L 248.566,126.260 L 246.986,126.532 L 241.660,125.073 L 240.367,122.420 L 241.989,118.461 L 239.479,120.897 L 237.860,125.002 L 236.331,125.784 L 234.964,125.355 L 233.897,123.873 L 233.887,117.213 L 231.300,121.825 L 229.317,123.798 L 227.134,123.448 L 224.477,119.651 L 225.627,116.867 L 229.960,113.309 L 232.720,108.756 L 235.208,106.917 L 236.591,103.206 L 238.487,102.346 L 238.600,100.331 L 241.623,97.314 L 242.738,92.750 L 240.328,96.731 L 237.665,98.792 L 235.906,98.949 L 235.461,100.861 L 232.192,103.673 L 229.812,107.573 L 227.621,109.015 L 225.467,108.006 L 224.983,104.172 L 227.175,100.800 L 228.438,96.474 L 226.328,98.153 L 224.576,101.079 L 221.903,101.231 L 220.523,100.183 L 221.821,106.366 L 219.301,109.206 L 217.487,108.584 L 216.695,106.361 L 213.995,105.726 L 213.260,102.383 L 211.129,98.930 L 211.865,102.192 L 211.830,107.971 L 211.174,109.389 L 208.406,109.665 L 204.382,105.405 L 205.639,108.667 L 204.632,110.755 L 205.121,114.193 L 202.520,117.322 L 206.326,118.573 L 207.469,120.428 L 207.026,122.628 L 205.536,123.730 L 200.216,123.929 L 197.659,121.329 L 197.138,123.988 L 193.891,127.468 L 194.902,130.834 L 192.828,132.646 L 190.854,132.558 L 189.555,130.107 L 186.425,128.782 L 186.024,127.131 L 186.920,125.470 L 186.365,124.031 L 179.818,124.296 L 178.023,123.439 L 177.489,119.923 L 178.982,118.200 L 180.465,117.864 L 182.180,118.572 L 184.465,117.419 L 187.831,117.069 L 185.627,115.185 L 185.136,113.771 L 185.739,111.518 L 187.596,110.742 L 187.274,108.219 L 185.399,108.749 L 183.665,108.088 L 182.347,105.742 L 182.655,103.692 L 183.842,102.823 L 186.926,102.976 L 190.798,101.142 L 192.966,101.493 L 193.194,100.913 L 190.187,98.362 L 187.293,98.127 L 186.009,96.951 L 186.108,94.726 L 188.446,93.134 L 188.286,89.347 L 190.523,88.431 L 193.733,90.656 L 193.514,86.866 L 192.007,84.957 L 192.556,83.185 L 196.071,81.383 L 198.151,82.298 L 200.204,81.896 L 204.732,79.653 L 200.877,79.007 L 198.347,75.746 L 199.919,73.097 L 199.092,69.145 L 200.882,67.041 L 201.203,61.742 L 203.814,60.052 L 202.669,58.726 L 201.818,54.083 L 202.549,50.294 L 204.851,47.708 L 204.772,46.665 L 200.876,51.577 L 198.402,51.784 L 199.823,53.789 L 199.958,56.269 L 198.549,59.266 L 195.491,61.082 L 196.776,63.480 L 195.050,65.538 L 193.215,65.317 L 189.563,61.347 L 188.043,61.287 L 186.897,60.043 L 183.441,58.715 L 178.630,54.715 L 185.773,63.777 L 189.664,66.617 L 191.503,69.858 L 191.219,72.078 L 190.162,73.724 L 188.184,74.183 L 184.149,70.665 L 181.528,69.998 L 183.732,74.749 L 183.062,76.229 L 181.490,76.757 L 177.110,74.858 L 176.016,73.177 L 174.764,74.487 L 173.008,74.432 L 171.577,72.877 L 171.329,71.365 L 170.453,71.075 L 169.495,73.595 L 171.171,74.516 L 171.615,76.627 L 176.643,77.821 L 177.806,82.084 L 176.727,83.268 L 174.755,83.457 L 174.540,85.613 L 173.217,86.704 L 171.085,86.709 L 169.173,85.503 L 165.972,86.170 L 164.321,85.546 L 162.399,87.170 L 159.624,86.751 L 159.426,87.921 L 166.171,88.656 L 170.623,90.223 L 172.313,93.402 L 171.106,95.225 L 163.495,97.175 L 161.644,99.449 L 161.824,102.024 L 159.468,103.768 L 157.512,103.806 L 156.118,102.327 L 155.476,99.466 L 157.042,96.407 L 153.661,97.215 L 150.530,96.666 L 149.912,97.571 L 150.994,98.608 L 151.131,100.315 L 148.742,102.342 L 147.270,101.799 L 145.974,99.722 L 144.950,94.799 L 144.368,98.727 L 143.097,100.029 L 141.411,99.926 L 137.988,97.300 L 138.866,91.788 L 140.467,90.266 L 141.622,87.201 L 144.688,84.738 L 148.284,84.054 L 149.924,80.121 L 148.340,82.160 L 146.813,82.772 L 143.267,82.636 L 140.851,81.078 L 140.595,84.907 L 137.816,87.580 L 135.528,87.570 L 134.895,91.072 L 132.860,92.067 L 128.674,90.325 L 127.154,88.142 L 127.182,85.845 L 124.772,86.003 L 123.500,85.314 L 122.939,83.684 L 123.639,80.317 L 121.027,80.437 L 119.674,77.619 L 119.711,80.056 L 118.425,81.539 L 120.564,87.364 L 119.267,90.096 L 121.443,89.721 L 123.609,91.224 L 125.437,95.885 L 127.415,97.561 L 127.279,100.761 L 128.984,101.315 L 130.041,102.743 L 129.077,106.450 L 129.726,109.948 L 127.671,111.470 L 124.132,109.689 L 120.830,109.956 L 117.522,106.237 L 117.470,103.674 L 115.480,98.961 L 117.337,96.337 L 118.480,91.065 L 116.341,92.252 L 112.874,91.349 L 109.335,95.013 L 105.491,97.027 L 103.155,95.258 L 103.592,91.798 L 102.962,90.962 L 99.503,92.747 L 96.469,91.409 L 95.899,89.393 L 97.198,86.951 L 94.881,88.322 L 92.272,87.571 L 89.580,88.988 L 87.314,87.849 L 85.815,89.138 L 85.981,91.701 L 90.598,92.358 L 91.912,96.386 L 95.316,98.805 L 95.951,100.196 L 95.807,104.191 L 94.101,108.002 L 94.657,110.107 L 92.078,114.567 L 92.571,115.960 L 95.510,116.933 L 95.856,119.631 L 94.096,122.582 L 89.713,122.965 L 87.760,121.219 L 88.365,118.677 L 86.672,115.395 L 86.522,113.449 L 84.465,111.859 L 83.955,110.457 L 85.650,108.172 L 86.180,104.555 L 88.453,100.742 L 82.757,102.580 L 80.796,102.265 L 77.920,103.738 L 76.343,102.518 L 75.331,98.581 L 76.869,95.471 L 78.200,88.663 L 79.998,87.531 L 82.518,88.058 L 82.263,86.457 L 83.163,84.407 L 81.074,82.779 L 79.988,80.566 L 82.396,76.761 L 87.655,74.106 L 90.173,75.276 L 91.398,75.055 L 91.890,73.045 L 93.850,71.897 L 93.505,67.002 L 94.644,66.027 L 97.472,65.656 L 98.989,62.018 L 101.866,61.431 L 104.519,63.507 L 102.788,61.122 L 102.759,58.542 L 106.503,54.138 L 103.861,52.315 L 102.807,48.646 L 103.741,44.107 L 105.672,41.214 L 106.980,36.924 L 104.648,35.895 L 104.862,41.044 L 103.226,44.012 L 100.653,44.336 L 101.604,45.478 L 101.721,47.342 L 99.018,52.344 L 97.245,53.195 L 96.949,55.563 L 90.753,60.291 L 88.691,60.795 L 83.657,64.658 L 82.098,64.922 L 80.626,63.982 L 79.394,60.973 L 81.361,57.733 L 83.934,57.157 L 83.262,55.005 L 79.613,55.080 L 78.064,52.844 L 80.363,48.071 L 80.203,45.883 L 81.301,44.499 L 77.333,47.700 L 75.416,47.575 L 74.321,46.024 L 74.600,40.042 L 75.902,36.803 L 75.555,34.101 L 76.399,32.559 L 75.740,29.947 L 71.350,42.081 L 69.631,43.637 L 70.202,45.551 L 68.810,47.869 L 68.677,49.682 L 69.795,53.543 L 68.105,55.774 L 68.459,58.026 L 67.138,59.370 L 65.129,59.554 L 64.048,62.464 L 65.757,63.374 L 66.056,65.491 L 67.260,66.871 L 66.190,70.807 L 64.367,71.957 L 62.199,71.814 L 60.245,70.320 L 57.754,71.312 L 57.945,73.912 L 55.865,76.276 L 53.693,76.550 L 52.677,77.612 L 51.519,84.571 L 49.118,85.966 L 47.310,84.554 L 46.371,79.853 L 48.481,75.977 L 48.731,73.852 L 46.573,72.103 L 46.534,69.885 L 44.512,67.723 L 44.324,66.061 L 46.381,64.094 L 50.680,64.201 L 53.189,63.381 L 52.424,61.791 L 49.031,59.378 L 49.190,55.901 L 50.428,54.835 L 55.171,53.783 L 57.340,54.951 L 60.622,50.752 L 60.539,49.113 L 58.364,50.238 L 56.306,48.911 L 54.487,51.062 L 49.769,51.094 L 48.673,49.881 L 47.210,43.226 L 44.416,51.097 L 42.010,52.645 L 43.198,54.899 L 42.216,57.266 L 40.900,58.044 L 37.781,57.910 L 35.854,59.980 L 34.260,60.308 L 30.458,56.859 L 29.670,53.913 L 30.698,52.184 L 29.177,49.946 L 30.122,47.466 L 27.908,49.906 L 25.520,49.547 L 21.891,41.592 L 21.018,42.382 L 22.344,47.974 L 21.963,49.799 L 23.517,51.639 L 25.483,56.852 L 26.763,64.791 L 28.130,68.412 L 27.015,70.527 L 24.456,70.333 L 19.483,65.829 L 19.606,60.264 L 18.128,59.705 L 17.360,58.167 L 13.013,57.852 L 11.664,56.547 L 11.366,52.603 L 12.507,51.558 L 16.468,50.678 L 17.143,45.799 L 17.026,45.143 L 15.200,45.099 L 14.078,44.208 L 14.040,41.772 L 11.874,38.447 L 12.162,36.605 L 10.232,35.093 L 9.988,33.106 L 8.890,31.756 L 8.370,27.590 L 9.673,25.261 L 6.972,25.462 L 5.683,27.494 L 2.228,28.145 L 0.626,26.312 L 0.353,21.722 Z" fill="none" stroke="#0000FF" stroke-width="0.01mm" transform="translate(0.000,0.000)" /><path d="M 76.373,28.090 L 76.461,28.122 L 76.405,28.058 L 76.373,28.090 Z" fill="none" stroke="#0000FF" stroke-width="0.01mm" transform="translate(0.000,0.000)" /><path d="M 126.662,76.116 L 126.650,76.112 L 126.635,76.140 L 126.662,76.116 Z" fill="none" stroke="#0000FF" stroke-width="0.01mm" transform="translate(0.000,0.000)" /><path d="M 207.854,60.411 L 207.938,60.279 L 207.656,60.400 L 207.854,60.411 Z" fill="none" stroke="#0000FF" stroke-width="0.01mm" transform="translate(0.000,0.000)" /><path d="M 280.745,23.803 L 280.880,23.892 L 280.957,23.761 L 280.745,23.803 Z" fill="none" stroke="#0000FF" stroke-width="0.01mm" transform="translate(0.000,0.000)" /><path d="M 288.819,62.715 L 288.844,62.808 L 288.851,62.817 L 288.819,62.715 Z" fill="none" stroke="#0000FF" stroke-width="0.01mm" transform="translate(0.000,0.000)" /><path d="M 242.660,117.702 L 242.904,117.859 L 242.816,117.399 L 242.660,117.702 Z" fill="none" stroke="#0000FF" stroke-width="0.01mm" transform="translate(0.000,0.000)" /><path d="M 150.727,79.136 L 150.748,79.130 L 150.746,79.101 L 150.727,79.136 Z" fill="none" stroke="#0000FF" stroke-width="0.01mm" transform="translate(0.000,0.000)" /><path d="M 119.437,77.034 L 119.393,76.968 L 119.437,77.054 L 119.437,77.034 Z" fill="none" stroke="#0000FF" stroke-width="0.01mm" transform="translate(0.000,0.000)" /><path d="M 252.059,229.261 L 255.236,227.906 L 256.935,228.872 L 257.678,230.684 L 251.584,230.736 L 252.059,229.261 Z" fill="none" stroke="#0000FF" stroke-width="0.01mm" transform="translate(0.000,0.000)" /><path d="M 0.041,134.287 L 3.544,131.962 L 5.576,131.912 L 6.413,130.229 L 9.765,127.495 L 15.091,126.121 L 16.343,123.843 L 18.738,122.525 L 28.432,122.738 L 29.505,124.659 L 31.491,125.799 L 31.423,127.991 L 27.062,131.929 L 23.591,132.492 L 20.950,134.134 L 19.984,135.811 L 18.117,136.391 L 15.225,139.845 L 12.468,139.938 L 13.447,143.425 L 12.277,146.270 L 14.932,145.601 L 19.037,146.489 L 20.137,147.407 L 19.260,154.297 L 20.068,156.458 L 19.145,158.420 L 21.411,156.520 L 24.076,156.979 L 27.158,155.355 L 32.387,149.606 L 35.838,147.760 L 38.196,145.300 L 41.690,143.722 L 43.916,143.933 L 45.280,145.704 L 45.098,154.886 L 48.585,154.920 L 52.059,150.986 L 55.244,151.278 L 57.535,154.701 L 56.751,158.208 L 57.944,162.586 L 53.420,171.249 L 48.465,174.876 L 53.018,178.209 L 55.674,177.909 L 57.836,180.572 L 58.290,176.012 L 60.601,169.374 L 62.601,168.332 L 64.513,168.837 L 66.039,167.819 L 69.333,162.199 L 71.945,161.522 L 74.530,158.643 L 76.023,158.838 L 77.349,160.809 L 79.777,161.624 L 80.205,164.899 L 82.779,165.770 L 84.466,165.066 L 86.446,165.752 L 87.233,167.376 L 89.103,168.134 L 90.056,170.492 L 92.258,172.741 L 93.084,170.630 L 92.665,167.998 L 95.218,164.198 L 96.209,160.594 L 94.274,155.713 L 95.079,153.211 L 96.493,152.236 L 98.858,152.937 L 101.740,158.727 L 103.939,160.507 L 107.870,156.003 L 109.459,155.476 L 111.941,157.343 L 114.338,157.260 L 115.485,159.306 L 120.042,161.806 L 120.836,163.152 L 121.037,167.077 L 120.303,171.980 L 125.759,171.676 L 127.367,170.638 L 129.342,167.161 L 132.487,165.716 L 134.408,162.798 L 136.125,162.467 L 138.766,165.535 L 141.565,165.007 L 144.292,166.555 L 145.075,168.123 L 148.015,170.345 L 150.060,170.826 L 153.298,176.858 L 155.835,179.824 L 154.082,174.069 L 153.402,169.087 L 154.112,167.198 L 153.350,164.676 L 154.668,161.777 L 157.031,161.362 L 160.172,163.420 L 160.636,165.849 L 159.776,168.119 L 161.364,169.467 L 162.955,169.478 L 168.233,172.074 L 170.566,171.284 L 173.217,172.841 L 173.953,176.793 L 176.127,180.699 L 177.632,181.908 L 180.030,182.541 L 181.681,179.590 L 184.291,178.599 L 186.456,180.771 L 186.667,182.917 L 189.750,182.813 L 192.333,183.707 L 194.876,186.213 L 194.900,188.180 L 193.216,189.476 L 187.798,188.677 L 188.647,191.806 L 191.518,192.288 L 192.411,194.425 L 194.796,195.384 L 195.187,197.054 L 190.936,200.880 L 187.118,201.305 L 186.702,208.077 L 183.602,211.560 L 183.230,212.951 L 189.351,211.280 L 190.496,213.015 L 190.019,216.245 L 195.983,212.861 L 197.997,212.963 L 200.738,216.081 L 202.127,220.253 L 201.755,222.172 L 203.918,224.084 L 205.463,221.987 L 203.667,216.679 L 203.821,213.938 L 204.985,212.837 L 209.076,212.040 L 211.459,213.328 L 211.789,218.048 L 212.710,220.254 L 214.727,216.977 L 217.447,216.665 L 218.903,217.639 L 219.457,219.487 L 221.096,219.791 L 222.116,221.245 L 224.207,221.002 L 225.610,222.682 L 229.023,223.786 L 226.092,218.873 L 226.100,217.154 L 227.274,216.030 L 229.020,216.085 L 230.411,217.300 L 232.170,216.304 L 235.754,216.395 L 237.643,218.232 L 238.633,220.858 L 238.343,222.494 L 239.906,225.221 L 241.737,217.401 L 243.567,216.691 L 246.789,217.507 L 248.204,218.626 L 249.451,222.641 L 247.311,228.809 L 247.630,230.735 L 108.337,230.750 L 81.253,229.243 L 58.038,226.229 L 38.692,221.707 L 23.215,215.678 L 11.608,208.143 L 3.869,199.100 L 0.000,188.550 L 0.041,134.287 Z" fill="none" stroke="#0000FF" stroke-width="0.01mm" transform="translate(0.000,0.000)" /><path d="M 14.380,3.905 L 16.340,0.008 L 31.004,0.281 L 30.655,1.723 L 29.339,2.679 L 26.380,3.089 L 24.402,1.986 L 20.807,5.809 L 18.493,6.922 L 15.099,6.106 L 14.380,3.905 Z" fill="none" stroke="#0000FF" stroke-width="0.01mm" transform="translate(0.000,0.000)" /></g></svg>