<?xml version="1.0" encoding="utf-8" ?>
<svg baseProfile="full" height="230.75mm" version="1.1" viewBox="0 0 300.00 230.75" width="300.00mm" xmlns="http://www.w3.org/2000/svg" xmlns:ev="http://www.w3.org/2001/xml-events" xmlns:xlink="http://www.w3.org/1999/xlink"><defs /><title>topo2laser output</title><g id="layer-03-land-1177m-to-1347m"><path d="M 0.043,108.881 L 2.577,107.402 L 6.504,102.542 L 9.234,102.648 L 9.963,104.920 L 7.512,111.934 L 7.204,115.182 L 10.705,112.184 L 17.725,109.157 L 19.679,104.662 L 21.483,103.346 L 23.768,103.164 L 28.404,105.638 L 29.044,107.636 L 28.543,109.305 L 26.631,111.260 L 24.431,111.757 L 18.621,117.574 L 15.541,118.923 L 15.361,119.158 L 16.958,118.671 L 18.497,119.300 L 21.226,118.161 L 23.261,119.174 L 24.917,117.277 L 28.410,116.846 L 30.092,117.838 L 31.254,120.780 L 34.419,116.387 L 36.675,116.216 L 38.587,117.310 L 41.487,114.168 L 43.827,114.386 L 45.309,120.688 L 44.706,122.666 L 42.829,123.974 L 38.476,124.419 L 36.626,127.172 L 34.808,127.816 L 34.046,130.132 L 31.149,131.470 L 27.518,135.433 L 30.112,134.873 L 31.784,133.549 L 33.854,134.150 L 37.937,132.515 L 39.796,133.025 L 40.497,134.538 L 40.032,136.593 L 35.908,142.822 L 39.954,141.066 L 44.242,136.307 L 47.714,136.703 L 48.520,132.568 L 50.063,131.842 L 51.537,132.285 L 53.287,135.156 L 54.922,136.443 L 56.869,136.761 L 57.727,138.138 L 57.217,140.228 L 53.803,144.805 L 59.938,141.863 L 61.352,142.076 L 62.424,143.254 L 62.319,146.463 L 60.522,148.747 L 59.768,151.369 L 62.614,151.083 L 64.203,152.852 L 63.680,155.445 L 61.814,157.289 L 62.203,162.054 L 63.843,158.690 L 65.747,156.889 L 67.637,156.883 L 69.054,158.577 L 69.834,154.566 L 74.327,151.735 L 73.427,149.727 L 73.784,148.178 L 77.932,146.465 L 79.471,147.540 L 80.354,151.212 L 79.533,157.784 L 83.065,157.795 L 84.034,159.571 L 83.443,161.577 L 84.921,161.069 L 88.309,161.584 L 90.450,165.435 L 92.028,163.173 L 91.832,161.309 L 92.849,159.946 L 90.469,158.647 L 87.582,155.227 L 86.411,151.510 L 86.805,149.945 L 89.255,148.861 L 92.050,150.580 L 94.413,149.116 L 96.115,145.787 L 98.826,144.982 L 101.777,147.923 L 102.208,152.091 L 103.813,153.648 L 103.954,149.954 L 106.535,147.957 L 107.393,146.291 L 107.218,138.084 L 108.716,136.597 L 111.494,136.255 L 115.255,137.530 L 115.863,140.933 L 117.587,141.903 L 118.296,143.293 L 118.038,147.257 L 113.760,152.141 L 115.509,151.989 L 116.939,153.191 L 118.352,152.484 L 118.843,149.535 L 123.928,146.138 L 125.882,146.011 L 131.149,149.782 L 132.260,153.751 L 134.362,152.738 L 136.392,153.148 L 141.391,156.266 L 142.420,159.303 L 145.683,160.305 L 147.645,162.513 L 147.945,160.174 L 146.912,157.168 L 145.142,154.915 L 146.373,152.648 L 144.412,151.775 L 143.538,150.108 L 143.789,145.746 L 145.382,142.389 L 147.304,140.843 L 149.554,141.427 L 150.413,142.573 L 150.516,144.761 L 152.717,146.957 L 154.669,144.286 L 157.447,143.923 L 159.146,140.998 L 161.144,140.464 L 164.239,144.177 L 167.157,145.485 L 171.604,155.635 L 174.229,158.500 L 175.591,156.283 L 178.800,154.064 L 182.146,153.240 L 187.339,153.350 L 189.614,155.061 L 191.664,155.115 L 192.736,156.454 L 193.294,159.152 L 191.854,160.881 L 191.568,163.935 L 196.911,161.539 L 199.796,161.178 L 201.134,161.806 L 202.879,164.183 L 203.232,166.195 L 201.531,170.644 L 200.959,175.018 L 197.420,179.144 L 201.448,176.992 L 204.185,177.360 L 205.796,175.481 L 209.763,174.088 L 211.780,174.871 L 212.778,177.315 L 216.545,175.168 L 220.032,177.575 L 220.519,181.566 L 218.592,184.893 L 215.152,185.294 L 214.110,188.324 L 208.619,190.698 L 206.935,194.475 L 203.281,195.743 L 206.016,196.249 L 208.440,197.723 L 208.387,194.873 L 210.087,192.541 L 212.315,191.441 L 214.540,191.697 L 216.105,188.984 L 218.270,188.636 L 223.549,184.158 L 225.514,183.806 L 228.843,185.638 L 231.627,185.167 L 233.377,187.533 L 233.387,190.315 L 230.997,193.410 L 228.500,195.175 L 230.670,195.552 L 231.918,198.028 L 231.903,195.583 L 234.517,192.241 L 236.911,190.581 L 237.014,187.849 L 238.092,186.476 L 242.634,186.023 L 244.160,188.249 L 246.108,187.123 L 248.871,188.067 L 251.547,187.064 L 255.074,188.294 L 256.878,190.690 L 253.463,198.308 L 253.635,199.635 L 255.065,196.918 L 257.469,195.330 L 260.003,195.735 L 262.948,195.021 L 267.155,198.268 L 270.035,203.684 L 271.739,199.979 L 270.965,198.150 L 271.945,196.399 L 271.698,192.642 L 272.845,191.504 L 275.569,191.113 L 280.095,192.995 L 280.632,194.534 L 280.124,195.988 L 281.127,198.575 L 280.523,200.256 L 278.868,201.644 L 278.780,205.999 L 277.050,208.252 L 280.690,207.478 L 281.697,206.530 L 282.310,202.944 L 284.698,199.545 L 284.222,195.913 L 286.451,192.146 L 288.183,191.572 L 292.670,192.482 L 295.594,197.193 L 296.472,196.976 L 295.828,194.942 L 297.341,191.303 L 299.988,189.803 L 300.000,212.836 L 295.312,217.315 L 285.938,221.153 L 271.875,224.352 L 253.125,226.911 L 201.562,230.110 L 131.250,230.750 L 98.438,228.847 L 70.312,225.042 L 46.875,219.333 L 28.125,211.722 L 14.062,202.207 L 4.688,190.790 L 0.000,177.470 L 0.043,108.881 Z M 253.178,202.520 L 253.431,200.299 L 251.596,201.800 L 251.652,203.709 L 253.178,202.520 Z M 251.462,208.824 L 251.454,208.802 L 251.449,208.819 L 251.462,208.824 Z M 251.456,205.376 L 251.512,205.261 L 251.502,205.201 L 251.456,205.376 Z" fill="none" stroke="#FF0000" stroke-width="0.01mm" transform="translate(0.000,0.000)" /><path d="M 0.229,3.899 L 3.949,3.472 L 8.069,5.782 L 10.676,8.602 L 9.358,4.843 L 2.214,2.255 L 1.171,0.081 L 169.265,0.000 L 201.949,2.173 L 229.963,6.519 L 253.309,13.037 L 271.985,21.729 L 285.993,32.593 L 295.331,45.631 L 300.000,60.841 L 299.951,139.107 L 297.973,143.226 L 296.063,144.168 L 297.385,144.642 L 299.925,143.754 L 299.972,160.640 L 295.146,158.689 L 296.462,162.675 L 296.017,164.586 L 298.399,164.076 L 299.890,165.351 L 299.883,171.571 L 298.470,173.675 L 295.741,173.868 L 297.614,175.728 L 298.015,177.859 L 296.933,179.570 L 294.221,180.057 L 294.405,184.631 L 292.375,186.739 L 289.326,188.284 L 287.612,187.535 L 286.886,185.240 L 284.505,187.058 L 282.304,185.428 L 279.912,187.002 L 275.915,185.799 L 270.731,186.498 L 269.240,185.082 L 268.258,178.299 L 267.373,178.071 L 266.871,183.765 L 263.256,186.415 L 258.741,185.144 L 257.068,181.526 L 255.071,184.784 L 253.339,185.652 L 250.652,184.805 L 248.336,181.870 L 246.248,183.299 L 241.912,182.289 L 238.031,182.403 L 236.436,180.418 L 233.765,178.946 L 233.159,177.355 L 235.017,173.417 L 237.636,172.034 L 228.481,174.657 L 226.810,173.112 L 227.088,169.968 L 225.745,171.694 L 222.773,171.830 L 219.977,169.288 L 219.500,167.464 L 214.359,167.696 L 209.585,162.071 L 209.091,158.106 L 211.324,155.764 L 209.077,156.168 L 207.239,155.407 L 206.315,152.712 L 202.902,151.880 L 201.743,149.632 L 202.788,147.318 L 206.080,145.506 L 205.216,142.248 L 206.740,139.509 L 204.509,138.714 L 203.346,142.208 L 201.084,143.255 L 199.363,145.338 L 197.164,145.199 L 192.482,148.899 L 186.504,149.655 L 184.084,147.698 L 183.969,145.062 L 182.307,144.775 L 180.979,143.230 L 180.188,140.120 L 178.121,138.523 L 175.604,138.668 L 174.286,137.875 L 174.301,134.970 L 173.065,132.715 L 169.520,134.393 L 166.218,133.770 L 162.457,131.909 L 160.696,128.705 L 161.492,124.256 L 165.817,119.131 L 166.220,116.449 L 168.510,113.295 L 168.133,110.533 L 164.470,117.999 L 162.044,120.523 L 158.726,121.865 L 156.019,120.895 L 154.833,118.415 L 149.597,119.418 L 145.748,117.041 L 144.574,115.044 L 143.663,115.075 L 144.705,116.442 L 144.621,118.281 L 151.328,122.169 L 156.069,121.983 L 157.382,123.932 L 156.612,125.813 L 154.294,127.921 L 150.777,128.453 L 150.820,130.772 L 148.697,134.929 L 145.323,136.100 L 143.481,136.068 L 141.966,134.859 L 139.090,128.178 L 138.483,128.240 L 137.993,130.628 L 135.573,132.994 L 130.362,133.666 L 128.442,134.713 L 126.288,134.115 L 125.215,132.053 L 126.560,129.311 L 125.918,127.360 L 126.377,125.438 L 124.089,123.462 L 124.493,119.668 L 120.451,120.625 L 118.212,119.322 L 116.873,121.596 L 114.067,121.115 L 112.450,119.208 L 111.555,113.898 L 108.987,113.970 L 106.761,112.559 L 105.684,108.717 L 106.103,106.214 L 104.302,106.478 L 103.008,105.771 L 102.181,107.175 L 103.011,109.012 L 102.457,113.024 L 99.663,115.021 L 101.509,114.809 L 104.934,116.061 L 105.955,118.944 L 104.931,121.108 L 107.486,122.453 L 108.000,125.521 L 107.090,126.847 L 103.171,128.929 L 100.354,129.115 L 97.624,133.872 L 94.863,134.177 L 92.878,133.420 L 90.760,130.710 L 90.360,127.788 L 86.316,133.463 L 84.155,133.700 L 81.709,132.387 L 80.937,128.866 L 83.204,119.366 L 82.415,115.815 L 79.584,113.190 L 78.798,110.181 L 77.226,110.754 L 77.127,115.731 L 74.857,124.486 L 71.410,128.026 L 69.675,131.725 L 66.589,132.090 L 65.122,130.471 L 64.893,127.737 L 67.616,117.911 L 61.965,120.870 L 59.820,121.176 L 58.176,120.387 L 56.725,117.743 L 57.074,115.507 L 60.107,112.914 L 64.321,106.493 L 63.421,105.733 L 54.573,106.049 L 53.094,105.063 L 52.509,103.124 L 54.904,99.497 L 63.163,95.402 L 61.294,93.685 L 60.564,90.241 L 62.636,87.422 L 65.413,87.313 L 66.460,83.495 L 65.279,84.509 L 63.537,84.668 L 61.030,83.577 L 60.292,81.386 L 56.710,82.001 L 55.125,85.377 L 55.449,87.235 L 54.753,88.672 L 52.621,89.319 L 47.897,93.058 L 45.577,92.830 L 44.401,90.631 L 44.001,87.229 L 41.977,85.509 L 42.512,83.040 L 39.334,80.147 L 39.821,77.679 L 42.658,75.539 L 40.293,73.482 L 40.640,70.584 L 38.724,68.715 L 40.489,62.184 L 36.357,65.289 L 34.319,65.334 L 31.108,63.652 L 31.548,65.671 L 33.514,67.213 L 35.128,76.055 L 34.625,77.527 L 32.766,79.111 L 31.578,82.722 L 30.049,83.089 L 28.767,82.449 L 27.550,78.782 L 26.036,78.020 L 24.897,75.317 L 23.236,73.696 L 23.058,77.145 L 20.549,79.330 L 23.338,83.337 L 22.608,87.390 L 20.613,91.896 L 17.212,92.379 L 14.901,91.062 L 13.528,88.480 L 13.555,85.141 L 11.592,83.079 L 10.393,83.270 L 6.442,87.388 L 4.088,87.386 L 2.719,86.332 L 1.964,82.994 L 3.418,78.816 L 5.290,76.263 L 9.253,73.684 L 7.099,70.405 L 7.302,68.109 L 8.302,67.019 L 10.167,66.679 L 12.544,63.024 L 10.507,62.591 L 7.912,60.669 L 7.085,58.302 L 2.764,57.103 L 0.010,53.521 L 0.027,51.664 L 1.180,50.239 L 3.913,49.617 L 5.545,47.829 L 7.863,46.920 L 7.553,45.541 L 3.407,43.798 L 2.901,41.029 L 0.014,38.973 L 0.229,3.899 Z M 67.174,82.039 L 68.342,81.411 L 68.593,81.123 L 67.810,81.439 L 67.174,82.039 Z M 71.776,77.751 L 71.788,77.756 L 71.783,77.736 L 71.776,77.751 Z M 72.357,74.492 L 75.676,73.040 L 77.908,74.121 L 78.610,72.990 L 75.016,71.772 L 74.045,69.656 L 71.489,72.574 L 72.357,74.492 Z M 238.269,171.777 L 238.688,171.151 L 237.891,171.902 L 238.269,171.777 Z M 239.115,170.172 L 241.269,169.042 L 239.912,168.897 L 239.115,170.172 Z M 207.290,139.285 L 209.329,138.654 L 209.485,135.986 L 207.290,139.285 Z M 217.772,132.011 L 217.751,131.973 L 217.715,132.028 L 217.772,132.011 Z M 170.601,106.834 L 170.825,106.625 L 170.748,105.850 L 170.601,106.834 Z M 170.839,103.326 L 171.140,104.824 L 173.689,103.306 L 175.727,98.601 L 173.134,99.992 L 172.126,102.478 L 170.839,103.326 Z M 176.515,97.755 L 177.073,97.530 L 177.172,96.828 L 176.515,97.755 Z" fill="none" stroke="#FF0000" stroke-width="0.01mm" transform="translate(0.000,0.000)" /><path d="M 0.187,110.205 L 5.141,105.512 L 7.683,105.857 L 8.205,107.957 L 6.200,116.573 L 10.997,112.671 L 13.108,112.526 L 14.451,110.870 L 19.860,110.166 L 21.229,110.660 L 21.935,112.321 L 21.192,113.981 L 14.990,118.502 L 12.817,121.277 L 16.755,119.191 L 18.507,119.894 L 21.747,118.883 L 24.288,120.148 L 25.396,118.284 L 27.322,117.745 L 29.082,118.473 L 30.918,121.580 L 35.099,116.977 L 38.741,118.206 L 40.850,116.514 L 42.934,116.930 L 44.272,120.460 L 43.610,122.674 L 38.340,123.692 L 36.469,126.408 L 34.574,127.441 L 33.679,129.560 L 29.895,131.456 L 29.031,133.085 L 26.086,135.317 L 23.887,135.561 L 22.468,136.480 L 29.256,135.704 L 37.011,133.650 L 38.567,134.024 L 39.445,135.475 L 39.061,137.422 L 35.409,141.643 L 33.691,145.017 L 39.512,141.865 L 43.874,137.382 L 46.453,137.156 L 47.819,138.078 L 49.105,134.646 L 50.570,134.023 L 51.922,134.420 L 56.387,139.358 L 52.611,145.643 L 59.483,142.547 L 60.990,142.980 L 61.895,144.521 L 61.791,146.434 L 59.033,151.825 L 62.237,151.635 L 63.560,153.552 L 63.076,155.492 L 61.010,157.278 L 61.652,164.357 L 61.101,165.783 L 62.495,165.026 L 62.422,163.076 L 64.681,158.743 L 66.468,158.314 L 67.879,159.391 L 70.730,158.916 L 71.512,158.243 L 71.093,156.701 L 71.718,155.381 L 74.144,153.519 L 77.526,152.453 L 79.378,153.998 L 78.972,158.785 L 81.519,157.900 L 83.197,159.072 L 82.387,163.107 L 84.420,162.109 L 88.301,162.431 L 89.418,163.674 L 89.323,165.644 L 91.111,167.291 L 91.446,164.832 L 92.905,163.768 L 92.578,161.318 L 94.194,159.851 L 88.336,155.071 L 87.619,153.115 L 88.014,151.727 L 89.900,150.933 L 92.811,152.253 L 93.967,150.505 L 95.834,150.200 L 96.749,146.952 L 98.976,146.521 L 100.216,147.818 L 101.162,152.866 L 103.681,157.649 L 105.133,155.882 L 105.186,151.045 L 108.949,147.791 L 109.485,139.472 L 110.680,138.352 L 112.859,138.253 L 114.348,139.658 L 114.163,142.941 L 116.073,143.630 L 116.723,145.532 L 112.044,152.238 L 111.577,153.254 L 112.301,154.691 L 113.459,153.714 L 114.990,153.760 L 117.223,156.869 L 117.791,154.359 L 120.706,152.859 L 122.136,150.119 L 125.459,149.657 L 127.148,150.934 L 129.191,151.163 L 130.138,153.699 L 126.972,158.920 L 128.028,161.329 L 127.271,163.844 L 128.788,162.929 L 129.914,159.385 L 132.059,158.319 L 132.521,156.051 L 135.431,154.828 L 137.743,157.322 L 140.314,158.362 L 139.823,162.642 L 141.923,161.359 L 143.556,161.535 L 144.665,163.824 L 146.517,164.429 L 147.264,166.258 L 151.844,169.612 L 151.908,167.048 L 150.115,163.005 L 151.931,160.105 L 150.186,158.454 L 149.721,154.820 L 151.690,152.735 L 154.098,153.114 L 155.629,149.833 L 157.844,148.974 L 159.746,149.601 L 163.319,152.850 L 163.399,155.108 L 161.718,158.739 L 163.968,160.030 L 164.881,161.732 L 164.032,166.144 L 165.930,167.361 L 167.615,163.901 L 171.777,163.630 L 172.779,164.832 L 173.827,169.201 L 176.666,171.013 L 177.027,174.196 L 177.878,174.825 L 178.433,166.573 L 178.158,162.545 L 176.906,159.361 L 178.348,157.431 L 182.382,156.218 L 185.933,155.991 L 187.269,156.721 L 187.524,159.477 L 189.225,160.091 L 189.831,161.854 L 186.817,167.929 L 190.732,166.043 L 193.280,166.566 L 196.742,163.771 L 198.777,164.115 L 200.217,165.984 L 200.351,167.734 L 197.227,171.028 L 199.173,172.089 L 199.329,174.202 L 195.972,177.863 L 192.813,177.859 L 191.414,179.331 L 194.605,179.943 L 196.175,182.353 L 198.504,183.917 L 199.053,181.311 L 200.583,179.767 L 202.992,179.496 L 204.707,181.694 L 206.423,178.442 L 208.335,177.842 L 209.808,179.072 L 209.974,181.948 L 212.587,181.791 L 213.771,183.671 L 211.610,187.124 L 206.875,189.342 L 206.329,192.018 L 205.138,193.502 L 203.684,193.704 L 199.142,192.155 L 196.526,192.930 L 199.110,194.780 L 199.234,197.723 L 197.992,199.206 L 194.741,200.866 L 192.626,203.422 L 195.279,201.606 L 198.834,200.645 L 202.075,201.394 L 202.694,204.143 L 198.041,209.171 L 198.789,209.508 L 199.682,207.925 L 201.563,206.900 L 204.814,206.815 L 206.828,207.609 L 207.858,204.846 L 210.229,204.280 L 211.480,205.066 L 214.633,210.320 L 214.987,212.692 L 216.445,212.794 L 215.080,209.017 L 214.391,202.769 L 210.963,198.928 L 210.349,195.049 L 212.361,193.553 L 215.648,194.593 L 217.111,192.229 L 223.351,186.937 L 224.867,186.540 L 226.661,188.229 L 228.918,188.929 L 229.629,190.581 L 228.837,192.114 L 223.634,195.081 L 224.256,196.712 L 223.625,198.507 L 225.166,200.935 L 224.245,204.306 L 224.948,203.956 L 226.547,198.843 L 228.233,197.979 L 229.996,198.646 L 233.578,206.833 L 231.408,210.863 L 231.993,211.781 L 234.693,210.923 L 238.021,213.280 L 237.071,210.402 L 235.356,208.661 L 234.848,206.124 L 235.341,203.764 L 234.173,199.378 L 235.088,195.682 L 236.852,195.059 L 239.291,195.870 L 242.670,200.441 L 243.374,197.290 L 244.462,195.979 L 247.679,195.213 L 249.652,196.362 L 250.164,198.584 L 248.354,206.491 L 248.755,208.815 L 247.683,210.737 L 248.040,212.356 L 250.652,211.399 L 253.232,214.049 L 254.099,220.375 L 252.767,222.406 L 252.973,225.288 L 256.079,224.924 L 254.629,221.760 L 257.430,213.995 L 255.843,212.534 L 254.573,207.722 L 255.894,206.031 L 258.636,206.164 L 257.246,201.468 L 258.005,199.879 L 259.542,199.270 L 261.748,199.589 L 266.544,202.810 L 265.947,207.964 L 266.928,209.633 L 267.029,212.302 L 271.386,207.876 L 274.011,208.394 L 274.641,210.845 L 273.918,213.494 L 274.108,218.231 L 277.176,214.982 L 279.260,214.543 L 279.202,211.126 L 279.904,209.732 L 285.622,207.878 L 284.514,205.252 L 285.885,202.904 L 291.366,202.086 L 292.744,203.009 L 294.033,205.638 L 295.682,205.578 L 296.917,203.264 L 298.786,203.247 L 299.976,204.335 L 300.000,219.212 L 295.312,222.096 L 285.938,224.569 L 271.875,226.629 L 229.688,229.514 L 168.750,230.750 L 131.250,230.750 L 98.438,228.867 L 70.312,225.101 L 46.875,219.453 L 28.125,211.921 L 14.062,202.507 L 4.688,191.209 L 0.000,178.029 L 0.187,110.205 Z" fill="none" stroke="#0000FF" stroke-width="0.01mm" transform="translate(0.000,0.000)" /><path d="M 31.480,146.108 L 32.143,146.078 L 32.283,145.919 L 31.480,146.108 Z" fill="none" stroke="#0000FF" stroke-width="0.01mm" transform="translate(0.000,0.000)" /><path d="M 18.974,139.439 L 18.973,139.439 L 18.973,139.440 L 18.974,139.439 Z" fill="none" stroke="#0000FF" stroke-width="0.01mm" transform="translate(0.000,0.000)" /><path d="M 20.289,138.435 L 20.390,138.387 L 20.428,138.363 L 20.289,138.435 Z" fill="none" stroke="#0000FF" stroke-width="0.01mm" transform="translate(0.000,0.000)" /><path d="M 0.130,9.269 L 2.739,10.638 L 6.277,10.894 L 8.839,12.981 L 14.778,12.758 L 17.183,16.106 L 17.960,13.333 L 17.635,11.213 L 19.385,8.897 L 16.068,10.333 L 13.911,9.227 L 11.337,3.965 L 13.826,0.047 L 174.812,0.000 L 206.109,2.058 L 232.935,6.173 L 255.290,12.346 L 273.174,20.577 L 286.587,30.866 L 295.529,43.212 L 300.000,57.616 L 299.918,131.703 L 297.262,139.557 L 294.669,140.767 L 293.335,140.018 L 291.266,136.693 L 289.944,130.954 L 289.066,128.436 L 288.595,128.624 L 289.474,135.868 L 288.914,137.784 L 287.281,138.999 L 290.578,139.829 L 292.666,142.727 L 293.212,145.565 L 291.819,147.809 L 294.493,146.435 L 297.433,147.186 L 298.674,148.668 L 298.965,151.329 L 299.991,152.198 L 299.968,158.295 L 298.057,158.262 L 294.931,156.267 L 293.099,157.076 L 292.772,158.046 L 293.637,162.873 L 293.071,164.395 L 295.865,168.754 L 294.072,172.159 L 291.921,172.974 L 293.511,176.741 L 292.222,178.725 L 292.025,181.016 L 290.843,182.155 L 289.236,182.330 L 284.613,179.897 L 284.097,177.546 L 286.586,171.249 L 281.791,172.722 L 281.745,175.424 L 279.828,178.011 L 277.413,179.437 L 275.439,178.910 L 273.768,175.463 L 275.300,171.185 L 272.514,170.898 L 270.461,167.619 L 270.581,166.059 L 272.038,164.416 L 268.680,164.531 L 266.748,168.876 L 268.063,173.219 L 263.505,178.170 L 261.374,178.090 L 258.681,175.251 L 256.477,175.466 L 255.082,174.732 L 254.000,172.745 L 253.855,169.598 L 252.199,169.704 L 246.552,177.080 L 242.727,178.246 L 240.536,177.776 L 239.634,175.715 L 240.419,173.380 L 246.427,167.115 L 249.059,165.547 L 250.242,159.951 L 253.120,158.508 L 255.612,154.039 L 252.127,156.382 L 247.214,158.125 L 245.740,163.070 L 239.219,166.778 L 236.249,165.847 L 235.077,163.782 L 234.953,161.650 L 236.936,157.297 L 237.440,154.091 L 235.234,154.792 L 234.491,156.575 L 232.359,157.967 L 229.264,158.121 L 228.976,162.406 L 224.883,165.683 L 222.254,165.265 L 220.738,162.804 L 217.374,162.867 L 215.636,161.921 L 214.919,159.986 L 215.365,158.381 L 219.335,155.895 L 218.552,153.520 L 218.969,152.008 L 221.401,150.395 L 224.448,149.670 L 219.545,148.488 L 217.679,147.266 L 214.588,148.970 L 210.510,148.044 L 209.286,146.629 L 209.288,142.985 L 213.260,140.005 L 215.193,136.166 L 218.896,135.888 L 220.800,138.789 L 222.873,139.826 L 226.310,133.574 L 228.617,132.537 L 231.409,132.782 L 232.210,131.302 L 234.536,130.198 L 232.436,128.768 L 231.877,126.767 L 229.333,128.311 L 225.834,128.619 L 221.000,127.585 L 218.467,125.415 L 218.096,121.841 L 219.263,117.503 L 221.076,114.686 L 223.135,113.968 L 221.535,112.547 L 218.675,114.950 L 217.102,114.351 L 216.184,112.818 L 217.416,116.914 L 216.076,119.565 L 213.848,120.726 L 211.347,119.651 L 211.105,120.832 L 212.940,122.082 L 214.749,125.186 L 213.266,130.420 L 210.994,131.409 L 207.810,131.246 L 204.228,128.171 L 203.969,129.890 L 201.368,132.665 L 199.800,132.921 L 197.863,131.917 L 195.997,134.423 L 194.458,140.157 L 191.997,142.047 L 190.374,141.930 L 187.948,139.972 L 186.882,134.405 L 185.621,136.392 L 183.205,136.871 L 176.986,134.296 L 176.993,131.200 L 181.542,126.873 L 177.224,127.691 L 174.293,125.632 L 172.154,127.000 L 170.512,130.225 L 168.788,131.031 L 163.906,129.363 L 163.214,127.557 L 163.929,125.257 L 169.778,119.914 L 169.268,117.208 L 170.653,115.378 L 173.003,114.606 L 175.091,115.696 L 182.192,115.091 L 182.176,113.331 L 179.471,114.138 L 175.793,113.534 L 174.013,111.623 L 173.604,109.203 L 175.026,106.715 L 177.770,105.467 L 177.379,103.124 L 178.414,101.075 L 183.152,99.912 L 181.567,99.010 L 180.543,97.071 L 181.024,93.078 L 183.930,90.833 L 184.062,88.616 L 185.368,86.578 L 188.098,85.029 L 188.860,81.275 L 192.525,79.477 L 191.713,77.888 L 192.266,75.262 L 189.292,78.251 L 188.999,80.611 L 186.220,83.620 L 183.392,84.164 L 183.668,85.976 L 182.646,88.073 L 178.912,89.606 L 177.631,91.064 L 174.192,91.135 L 175.880,93.438 L 175.501,96.408 L 170.159,100.152 L 167.445,100.820 L 167.898,103.916 L 167.121,105.569 L 162.940,106.625 L 163.901,111.529 L 162.335,114.422 L 160.796,115.624 L 158.553,115.443 L 156.684,113.429 L 154.083,108.596 L 153.230,104.750 L 151.401,113.213 L 149.528,114.347 L 147.112,113.433 L 144.403,110.529 L 144.893,105.027 L 143.307,106.538 L 140.746,106.686 L 139.029,104.860 L 138.023,100.932 L 135.775,99.539 L 135.854,94.220 L 134.508,95.571 L 132.470,95.626 L 127.858,92.813 L 130.781,95.678 L 131.095,98.795 L 133.285,99.420 L 134.693,101.816 L 134.776,103.672 L 133.308,106.929 L 135.173,109.295 L 134.559,111.913 L 140.819,118.728 L 139.785,122.384 L 136.864,126.010 L 135.909,129.669 L 134.188,131.052 L 130.884,131.185 L 128.155,127.455 L 129.380,124.084 L 128.822,120.114 L 129.600,115.074 L 125.613,115.159 L 125.315,117.208 L 124.057,118.663 L 120.081,119.076 L 116.472,116.724 L 116.924,109.957 L 111.634,110.244 L 110.056,109.234 L 110.100,106.452 L 113.523,104.131 L 112.157,99.112 L 112.922,95.985 L 110.814,97.207 L 110.348,99.019 L 107.694,102.077 L 105.227,102.756 L 102.867,101.316 L 101.794,98.316 L 99.938,96.065 L 98.107,96.356 L 96.391,95.148 L 95.494,95.163 L 97.839,97.709 L 98.189,101.539 L 99.693,104.139 L 98.816,106.062 L 96.477,107.369 L 99.206,108.517 L 99.998,110.541 L 98.061,113.108 L 94.618,114.016 L 97.359,115.479 L 98.146,118.237 L 100.536,117.113 L 102.872,117.908 L 103.431,119.444 L 102.871,121.609 L 105.073,124.262 L 104.502,126.216 L 101.536,126.987 L 98.419,126.168 L 97.793,127.809 L 98.136,130.991 L 95.614,132.316 L 93.941,131.852 L 92.827,130.430 L 92.766,125.710 L 91.549,124.892 L 89.290,125.686 L 85.951,131.233 L 84.534,131.620 L 83.245,130.996 L 82.677,129.201 L 84.399,122.976 L 84.269,120.939 L 86.660,118.620 L 84.044,116.886 L 84.639,114.010 L 81.736,113.455 L 80.710,111.508 L 81.505,107.962 L 84.118,104.524 L 81.114,104.824 L 78.480,108.580 L 76.084,108.223 L 75.069,110.760 L 75.076,117.230 L 73.370,123.573 L 69.808,128.306 L 67.366,128.507 L 66.481,125.898 L 69.543,118.693 L 69.809,114.710 L 61.334,119.821 L 58.935,119.236 L 58.137,117.210 L 59.321,114.981 L 63.443,112.038 L 65.252,109.077 L 67.094,108.276 L 68.827,104.629 L 61.341,103.311 L 56.671,104.719 L 55.300,103.710 L 55.176,101.975 L 60.875,98.168 L 68.362,97.035 L 67.840,95.587 L 63.063,93.036 L 62.540,91.062 L 63.678,89.671 L 67.027,89.331 L 68.284,87.925 L 69.806,87.567 L 71.473,84.808 L 72.942,84.517 L 74.190,85.218 L 75.543,89.626 L 76.634,85.377 L 79.384,84.411 L 77.448,80.634 L 77.651,78.428 L 79.762,77.240 L 81.192,74.254 L 84.107,74.030 L 85.652,71.420 L 89.100,71.622 L 89.531,70.955 L 88.218,69.573 L 88.153,67.337 L 89.656,64.880 L 92.561,62.373 L 89.499,63.092 L 87.961,65.026 L 86.106,65.402 L 82.932,69.068 L 79.277,70.068 L 77.613,69.763 L 75.805,66.875 L 76.700,64.088 L 74.892,62.244 L 74.285,59.917 L 74.490,58.287 L 75.718,57.121 L 74.887,53.494 L 71.961,51.142 L 72.087,57.611 L 70.918,60.915 L 69.203,62.687 L 70.259,67.565 L 68.769,70.292 L 68.726,74.609 L 67.102,76.235 L 65.234,76.433 L 62.581,75.102 L 60.719,72.973 L 60.657,75.108 L 57.977,78.902 L 56.276,79.557 L 54.114,78.911 L 55.036,81.519 L 53.181,83.418 L 52.799,86.761 L 49.439,90.826 L 47.510,91.452 L 45.794,89.872 L 46.423,86.369 L 44.774,86.027 L 43.692,84.768 L 44.640,82.191 L 41.999,81.273 L 41.180,79.569 L 42.232,77.772 L 46.476,76.742 L 47.147,74.791 L 44.194,74.689 L 42.507,73.822 L 42.187,71.654 L 44.129,70.091 L 41.920,69.301 L 40.915,67.402 L 42.151,64.639 L 45.165,62.537 L 49.124,62.481 L 46.835,60.968 L 46.123,58.683 L 46.660,54.950 L 48.217,53.026 L 44.764,54.508 L 44.501,56.697 L 42.122,59.626 L 40.387,60.036 L 38.560,59.419 L 37.720,62.589 L 35.880,63.623 L 31.450,62.198 L 30.602,59.951 L 29.050,59.086 L 26.418,54.372 L 27.380,57.021 L 27.747,63.619 L 29.442,64.752 L 29.436,67.483 L 31.788,70.440 L 32.700,75.760 L 32.024,77.862 L 30.595,78.847 L 28.955,78.451 L 26.445,73.678 L 25.134,72.456 L 22.879,72.159 L 22.015,69.818 L 20.064,72.806 L 21.312,74.468 L 21.351,75.981 L 19.010,77.992 L 18.446,79.446 L 20.607,81.969 L 21.585,84.589 L 19.778,90.050 L 18.077,90.584 L 15.415,89.486 L 14.956,87.875 L 15.857,85.221 L 12.783,81.368 L 9.565,81.825 L 6.706,86.041 L 4.266,86.271 L 3.274,83.734 L 5.369,78.468 L 8.268,76.072 L 12.309,75.003 L 12.729,74.318 L 10.073,72.234 L 9.777,70.267 L 11.610,68.771 L 12.398,66.888 L 14.535,66.335 L 15.038,64.309 L 17.014,62.249 L 15.795,59.653 L 13.324,60.487 L 10.960,60.289 L 9.554,58.962 L 9.642,56.411 L 4.602,56.043 L 3.206,54.726 L 3.638,52.652 L 7.181,50.078 L 9.402,49.104 L 13.651,49.278 L 13.621,48.191 L 11.147,46.875 L 10.538,43.250 L 7.510,40.905 L 8.072,37.817 L 6.999,36.450 L 7.112,33.812 L 5.958,30.197 L 4.256,30.880 L 4.286,32.665 L 2.297,35.360 L 0.069,35.987 L 0.130,9.269 Z" fill="none" stroke="#0000FF" stroke-width="0.01mm" transform="translate(0.000,0.000)" /><path d="M 20.487,8.042 L 20.395,8.125 L 20.377,8.149 L 20.487,8.042 Z" fill="none" stroke="#0000FF" stroke-width="0.01mm" transform="translate(0.000,0.000)" /><path d="M 286.389,139.140 L 286.389,139.141 L 286.390,139.141 L 286.389,139.140 Z" fill="none" stroke="#0000FF" stroke-width="0.01mm" transform="translate(0.000,0.000)" /><path d="M 289.503,124.849 L 289.506,124.843 L 289.498,124.840 L 289.503,124.849 Z" fill="none" stroke="#0000FF" stroke-width="0.01mm" transform="translate(0.000,0.000)" /><path d="M 153.355,103.977 L 153.355,103.980 L 153.355,103.981 L 153.355,103.977 Z" fill="none" stroke="#0000FF" stroke-width="0.01mm" transform="translate(0.000,0.000)" /><path d="M 93.777,61.189 L 94.686,60.788 L 94.755,60.354 L 94.049,60.662 L 93.777,61.189 Z" fill="none" stroke="#0000FF" stroke-width="0.01mm" transform="translate(0.000,0.000)" /></g></svg>