<?xml version="1.0" encoding="utf-8" ?>
<svg baseProfile="full" height="145.71mm" version="1.1" viewBox="0 0 300.00 145.71" width="300.00mm" xmlns="http://www.w3.org/2000/svg" xmlns:ev="http://www.w3.org/2001/xml-events" xmlns:xlink="http://www.w3.org/1999/xlink"><defs /><title>topo2laser output</title><g id="layer-05-land-256m-to-513m"><path d="M 247.259,71.296 L 249.481,75.154 L 248.306,77.089 L 244.495,77.243 L 242.011,76.004 L 242.051,74.375 L 245.380,72.930 L 246.093,71.299 L 247.259,71.296 Z" fill="none" stroke="#FF0000" stroke-width="0.01mm" transform="translate(0.000,0.000)" /><path d="M 185.891,36.575 L 190.144,34.543 L 192.698,35.450 L 192.173,33.743 L 195.530,32.493 L 198.278,33.400 L 198.710,32.122 L 197.857,30.670 L 199.498,30.269 L 201.808,27.408 L 203.272,28.283 L 203.717,26.431 L 206.668,24.303 L 208.809,28.370 L 210.320,21.407 L 212.621,23.255 L 213.215,21.530 L 214.110,21.209 L 215.679,22.467 L 215.865,26.139 L 214.739,30.260 L 212.279,32.068 L 212.553,35.325 L 213.927,35.275 L 213.148,33.632 L 217.532,31.229 L 218.007,29.695 L 218.902,29.374 L 221.810,35.307 L 223.260,36.486 L 223.556,35.144 L 222.625,32.464 L 223.019,28.344 L 224.232,30.289 L 225.979,30.285 L 226.962,29.357 L 229.114,30.534 L 230.899,34.441 L 234.244,28.638 L 235.677,28.411 L 235.127,35.374 L 236.156,41.119 L 236.964,42.043 L 236.027,43.306 L 238.245,46.685 L 238.867,44.640 L 237.952,42.950 L 239.831,42.035 L 238.095,40.475 L 238.052,35.111 L 240.120,32.408 L 242.152,38.517 L 243.575,34.809 L 247.515,34.511 L 249.489,35.432 L 252.890,34.416 L 254.788,35.400 L 257.418,31.321 L 259.231,33.343 L 261.661,32.378 L 267.156,32.791 L 267.473,33.876 L 266.611,35.044 L 269.166,35.690 L 270.398,37.985 L 268.937,38.389 L 261.163,35.413 L 258.151,36.588 L 257.021,38.028 L 259.804,39.808 L 259.749,41.341 L 257.992,43.006 L 259.759,44.789 L 259.765,46.449 L 258.693,47.506 L 256.230,47.913 L 254.012,50.586 L 252.580,50.941 L 251.022,54.809 L 250.076,52.992 L 248.041,51.784 L 247.196,53.798 L 246.013,52.812 L 244.731,53.997 L 246.410,56.068 L 246.474,57.600 L 243.455,56.906 L 242.143,57.867 L 241.497,62.467 L 239.886,63.493 L 240.756,64.863 L 240.586,68.376 L 237.989,69.628 L 239.760,72.625 L 239.782,75.371 L 237.185,76.814 L 235.955,81.160 L 234.285,82.952 L 235.072,87.101 L 231.430,89.792 L 232.301,91.227 L 231.225,91.676 L 228.587,88.617 L 226.109,90.618 L 223.804,89.649 L 222.416,90.657 L 221.352,89.654 L 220.008,90.582 L 218.914,88.972 L 221.758,83.075 L 220.573,81.529 L 219.424,82.505 L 218.077,81.678 L 216.758,87.428 L 214.534,89.667 L 213.306,88.360 L 212.837,85.631 L 210.731,86.512 L 209.980,84.758 L 205.581,82.370 L 206.294,79.655 L 204.756,80.392 L 204.379,78.636 L 202.463,76.500 L 201.806,76.692 L 201.361,79.183 L 199.926,79.313 L 200.847,75.672 L 203.547,71.980 L 202.379,70.321 L 199.886,72.512 L 198.562,76.314 L 197.532,77.337 L 196.366,77.290 L 195.959,75.088 L 196.869,73.793 L 195.254,72.965 L 194.996,70.220 L 197.667,67.023 L 197.500,65.203 L 193.215,67.540 L 190.323,73.642 L 190.266,75.941 L 192.048,78.701 L 191.645,79.436 L 190.479,79.389 L 189.042,77.603 L 183.569,75.166 L 182.521,73.490 L 183.461,71.653 L 182.294,70.345 L 179.980,72.327 L 175.869,70.989 L 176.749,69.616 L 175.045,68.962 L 173.908,66.089 L 176.775,63.597 L 174.174,62.992 L 172.291,61.939 L 171.992,60.982 L 173.243,55.457 L 174.826,54.306 L 173.928,52.247 L 175.780,51.576 L 174.853,50.315 L 175.659,49.484 L 176.075,46.419 L 178.672,45.331 L 176.939,44.438 L 176.849,43.033 L 178.966,38.817 L 184.219,36.417 L 184.621,35.603 L 185.891,36.575 Z M 223.589,36.852 L 224.516,37.202 L 224.216,36.532 L 223.589,36.852 Z M 238.903,47.035 L 239.830,47.384 L 239.530,46.714 L 238.903,47.035 Z M 242.705,38.851 L 243.632,39.200 L 243.331,38.530 L 242.705,38.851 Z M 217.912,81.151 L 216.984,80.802 L 217.285,81.472 L 217.912,81.151 Z M 204.842,78.428 L 205.170,77.437 L 204.542,77.758 L 204.842,78.428 Z M 203.875,71.277 L 204.202,70.287 L 203.575,70.607 L 203.875,71.277 Z M 206.428,69.820 L 205.590,69.247 L 204.515,69.695 L 205.353,70.269 L 206.428,69.820 Z M 198.232,65.170 L 198.676,61.721 L 198.227,61.083 L 198.232,65.170 Z M 199.078,61.066 L 199.406,60.076 L 198.779,60.396 L 199.078,61.066 Z M 198.748,59.726 L 197.821,59.376 L 198.121,60.046 L 198.748,59.726 Z M 197.790,58.705 L 196.864,58.355 L 197.163,59.025 L 197.790,58.705 Z M 186.324,36.910 L 187.250,37.261 L 186.951,36.590 L 186.324,36.910 Z M 214.334,37.541 L 214.661,36.550 L 214.034,36.871 L 214.334,37.541 Z M 223.973,77.371 L 224.300,76.381 L 223.673,76.701 L 223.973,77.371 Z M 222.824,78.411 L 221.928,78.573 L 221.839,79.196 L 223.484,79.272 L 222.824,78.411 Z M 221.436,79.452 L 221.109,80.442 L 221.737,80.122 L 221.436,79.452 Z" fill="none" stroke="#FF0000" stroke-width="0.01mm" transform="translate(0.000,0.000)" /><path d="M 244.199,89.600 L 254.822,91.774 L 255.257,92.299 L 254.022,94.490 L 253.036,94.669 L 250.997,92.807 L 242.828,91.201 L 244.199,89.600 Z" fill="none" stroke="#FF0000" stroke-width="0.01mm" transform="translate(0.000,0.000)" /><path d="M 93.964,86.616 L 95.759,85.597 L 97.373,86.493 L 95.450,92.621 L 97.310,98.403 L 96.711,98.865 L 96.099,97.954 L 94.933,97.953 L 94.062,99.899 L 89.700,96.954 L 90.150,95.901 L 92.153,96.831 L 93.486,95.572 L 90.887,93.668 L 89.710,91.143 L 91.326,90.507 L 91.927,88.848 L 93.512,88.324 L 92.632,87.157 L 92.814,85.688 L 93.964,86.616 Z" fill="none" stroke="#FF0000" stroke-width="0.01mm" transform="translate(0.000,0.000)" /><path d="M 195.861,33.946 L 197.176,35.381 L 200.043,35.249 L 200.547,32.949 L 198.902,30.589 L 203.228,29.241 L 206.030,26.347 L 207.135,26.649 L 208.453,29.233 L 209.557,29.311 L 210.489,24.360 L 211.864,25.252 L 214.634,22.261 L 213.854,27.979 L 210.339,32.742 L 210.419,35.377 L 212.974,36.777 L 214.173,39.409 L 216.746,41.831 L 217.077,43.363 L 218.183,43.648 L 218.793,42.306 L 217.696,38.860 L 216.155,37.410 L 214.969,33.916 L 217.325,32.538 L 219.296,32.630 L 220.856,36.331 L 223.429,38.848 L 223.808,41.482 L 227.595,45.545 L 228.879,45.654 L 229.281,44.918 L 227.559,42.990 L 227.082,36.621 L 224.825,35.301 L 223.566,33.005 L 228.161,31.558 L 230.441,36.342 L 231.874,36.403 L 232.708,35.475 L 234.040,36.733 L 233.132,38.092 L 233.941,39.016 L 234.250,43.167 L 236.017,45.557 L 234.115,49.330 L 236.940,50.105 L 236.076,51.273 L 236.453,52.836 L 238.810,51.569 L 239.998,48.932 L 241.608,47.523 L 242.707,45.221 L 241.793,44.170 L 242.103,42.924 L 244.970,42.788 L 246.648,44.636 L 247.777,42.781 L 249.209,42.266 L 249.205,40.861 L 246.663,39.239 L 246.955,36.940 L 250.835,36.290 L 251.818,35.425 L 252.540,37.275 L 254.064,37.702 L 252.398,39.798 L 252.345,42.097 L 254.948,43.910 L 256.001,46.493 L 254.721,47.678 L 252.717,46.758 L 252.168,48.037 L 250.706,48.616 L 246.629,48.627 L 244.849,47.754 L 238.100,54.046 L 238.735,57.461 L 235.153,58.619 L 235.246,59.800 L 237.669,61.199 L 237.941,62.380 L 235.331,64.174 L 234.798,66.092 L 233.704,65.152 L 232.271,65.443 L 233.201,67.021 L 232.387,70.520 L 234.676,71.424 L 235.126,72.381 L 233.246,73.615 L 234.176,74.874 L 233.371,75.898 L 233.084,80.879 L 231.193,84.284 L 228.906,84.433 L 227.813,83.526 L 226.009,85.557 L 225.317,83.834 L 222.759,83.185 L 223.639,81.810 L 221.783,80.792 L 223.486,80.294 L 226.513,76.711 L 226.376,75.530 L 224.653,73.842 L 225.515,71.493 L 223.973,70.251 L 222.869,71.035 L 222.548,74.868 L 221.432,77.360 L 220.337,75.447 L 218.422,74.381 L 217.137,74.655 L 217.050,76.060 L 217.904,77.064 L 216.233,78.616 L 215.283,82.417 L 214.877,80.790 L 213.321,80.313 L 211.449,78.289 L 210.172,74.508 L 206.433,72.885 L 209.567,70.422 L 211.898,70.098 L 214.032,68.546 L 211.341,67.976 L 212.161,66.745 L 211.533,66.188 L 209.831,67.196 L 208.873,66.176 L 207.918,67.199 L 206.123,66.196 L 201.731,66.970 L 202.505,64.462 L 200.832,65.071 L 199.768,62.582 L 201.483,60.791 L 201.928,58.300 L 203.540,57.436 L 198.982,56.516 L 199.620,53.386 L 198.425,52.925 L 197.067,53.837 L 196.886,52.368 L 197.780,51.202 L 196.524,49.862 L 195.436,51.795 L 193.433,50.872 L 193.017,52.022 L 195.025,57.703 L 195.878,58.356 L 194.968,59.731 L 196.672,60.543 L 196.765,62.650 L 192.945,66.981 L 191.302,67.542 L 189.947,71.216 L 184.128,66.304 L 180.901,66.946 L 180.780,64.647 L 182.482,63.480 L 180.629,62.811 L 181.464,61.342 L 177.727,59.190 L 178.682,57.592 L 177.770,56.236 L 179.621,54.638 L 178.768,52.388 L 180.589,51.460 L 178.676,49.993 L 180.556,48.155 L 178.674,47.247 L 183.452,46.221 L 182.136,44.913 L 178.731,44.421 L 179.805,42.871 L 181.537,42.263 L 179.668,39.982 L 182.221,39.325 L 183.741,36.673 L 187.773,37.499 L 189.354,35.789 L 192.638,35.227 L 193.442,33.693 L 195.861,33.946 Z" fill="none" stroke="#0000FF" stroke-width="0.01mm" transform="translate(0.000,0.000)" /><path d="M 219.648,44.699 L 220.544,44.538 L 220.633,43.915 L 218.990,43.838 L 219.648,44.699 Z" fill="none" stroke="#0000FF" stroke-width="0.01mm" transform="translate(0.000,0.000)" /><path d="M 220.739,45.032 L 221.666,45.382 L 221.366,44.712 L 220.739,45.032 Z" fill="none" stroke="#0000FF" stroke-width="0.01mm" transform="translate(0.000,0.000)" /><path d="M 221.697,46.052 L 222.624,46.402 L 222.324,45.732 L 221.697,46.052 Z" fill="none" stroke="#0000FF" stroke-width="0.01mm" transform="translate(0.000,0.000)" /><path d="M 234.267,63.059 L 233.371,63.221 L 233.283,63.844 L 234.927,63.920 L 234.267,63.059 Z" fill="none" stroke="#0000FF" stroke-width="0.01mm" transform="translate(0.000,0.000)" /><path d="M 224.914,70.217 L 225.241,69.226 L 224.614,69.547 L 224.914,70.217 Z" fill="none" stroke="#0000FF" stroke-width="0.01mm" transform="translate(0.000,0.000)" /><path d="M 214.913,68.209 L 216.898,66.944 L 216.643,66.258 L 215.328,66.261 L 214.075,67.636 L 214.913,68.209 Z" fill="none" stroke="#0000FF" stroke-width="0.01mm" transform="translate(0.000,0.000)" /><path d="M 217.255,66.145 L 217.582,65.155 L 216.955,65.475 L 217.255,66.145 Z" fill="none" stroke="#0000FF" stroke-width="0.01mm" transform="translate(0.000,0.000)" /><path d="M 212.474,66.154 L 212.801,65.164 L 212.174,65.484 L 212.474,66.154 Z" fill="none" stroke="#0000FF" stroke-width="0.01mm" transform="translate(0.000,0.000)" /><path d="M 213.428,65.130 L 213.755,64.140 L 213.128,64.460 L 213.428,65.130 Z" fill="none" stroke="#0000FF" stroke-width="0.01mm" transform="translate(0.000,0.000)" /><path d="M 197.151,49.829 L 197.478,48.839 L 196.851,49.159 L 197.151,49.829 Z" fill="none" stroke="#0000FF" stroke-width="0.01mm" transform="translate(0.000,0.000)" /><path d="M 193.012,35.881 L 193.938,36.231 L 193.638,35.561 L 193.012,35.881 Z" fill="none" stroke="#0000FF" stroke-width="0.01mm" transform="translate(0.000,0.000)" /><path d="M 201.935,52.888 L 202.262,51.898 L 201.635,52.218 L 201.935,52.888 Z" fill="none" stroke="#0000FF" stroke-width="0.01mm" transform="translate(0.000,0.000)" /><path d="M 219.166,65.120 L 219.493,64.129 L 218.866,64.450 L 219.166,65.120 Z" fill="none" stroke="#0000FF" stroke-width="0.01mm" transform="translate(0.000,0.000)" /></g></svg>