<?xml version="1.0" encoding="utf-8" ?>
<svg baseProfile="full" height="145.71mm" version="1.1" viewBox="0 0 300.00 145.71" width="300.00mm" xmlns="http://www.w3.org/2000/svg" xmlns:ev="http://www.w3.org/2001/xml-events" xmlns:xlink="http://www.w3.org/1999/xlink"><defs /><title>topo2laser output</title><g id="layer-06-land-513m-to-769m"><path d="M 195.861,33.946 L 197.176,35.381 L 200.043,35.249 L 200.547,32.949 L 198.902,30.589 L 203.228,29.241 L 206.030,26.347 L 207.135,26.649 L 208.453,29.233 L 209.557,29.311 L 210.489,24.360 L 211.864,25.252 L 214.634,22.261 L 213.854,27.979 L 210.339,32.742 L 210.419,35.377 L 212.974,36.777 L 214.173,39.409 L 216.746,41.831 L 217.077,43.363 L 218.183,43.648 L 218.793,42.306 L 217.696,38.860 L 216.155,37.410 L 214.969,33.916 L 217.325,32.538 L 219.296,32.630 L 220.856,36.331 L 223.429,38.848 L 223.808,41.482 L 227.595,45.545 L 228.879,45.654 L 229.281,44.918 L 227.559,42.990 L 227.082,36.621 L 224.825,35.301 L 223.566,33.005 L 228.161,31.558 L 230.441,36.342 L 231.874,36.403 L 232.708,35.475 L 234.040,36.733 L 233.132,38.092 L 233.941,39.016 L 234.250,43.167 L 236.017,45.557 L 234.115,49.330 L 236.940,50.105 L 236.076,51.273 L 236.453,52.836 L 238.810,51.569 L 239.998,48.932 L 241.608,47.523 L 242.707,45.221 L 241.793,44.170 L 242.103,42.924 L 244.970,42.788 L 246.648,44.636 L 247.777,42.781 L 249.209,42.266 L 249.205,40.861 L 246.663,39.239 L 246.955,36.940 L 250.835,36.290 L 251.818,35.425 L 252.540,37.275 L 254.064,37.702 L 252.398,39.798 L 252.345,42.097 L 254.948,43.910 L 256.001,46.493 L 254.721,47.678 L 252.717,46.758 L 252.168,48.037 L 250.706,48.616 L 246.629,48.627 L 244.849,47.754 L 238.100,54.046 L 238.735,57.461 L 235.153,58.619 L 235.246,59.800 L 237.669,61.199 L 237.941,62.380 L 235.331,64.174 L 234.798,66.092 L 233.704,65.152 L 232.271,65.443 L 233.201,67.021 L 232.387,70.520 L 234.676,71.424 L 235.126,72.381 L 233.246,73.615 L 234.176,74.874 L 233.371,75.898 L 233.084,80.879 L 231.193,84.284 L 228.906,84.433 L 227.813,83.526 L 226.009,85.557 L 225.317,83.834 L 222.759,83.185 L 223.639,81.810 L 221.783,80.792 L 223.486,80.294 L 226.513,76.711 L 226.376,75.530 L 224.653,73.842 L 225.515,71.493 L 223.973,70.251 L 222.869,71.035 L 222.548,74.868 L 221.432,77.360 L 220.337,75.447 L 218.422,74.381 L 217.137,74.655 L 217.050,76.060 L 217.904,77.064 L 216.233,78.616 L 215.283,82.417 L 214.877,80.790 L 213.321,80.313 L 211.449,78.289 L 210.172,74.508 L 206.433,72.885 L 209.567,70.422 L 211.898,70.098 L 214.032,68.546 L 211.341,67.976 L 212.161,66.745 L 211.533,66.188 L 209.831,67.196 L 208.873,66.176 L 207.918,67.199 L 206.123,66.196 L 201.731,66.970 L 202.505,64.462 L 200.832,65.071 L 199.768,62.582 L 201.483,60.791 L 201.928,58.300 L 203.540,57.436 L 198.982,56.516 L 199.620,53.386 L 198.425,52.925 L 197.067,53.837 L 196.886,52.368 L 197.780,51.202 L 196.524,49.862 L 195.436,51.795 L 193.433,50.872 L 193.017,52.022 L 195.025,57.703 L 195.878,58.356 L 194.968,59.731 L 196.672,60.543 L 196.765,62.650 L 192.945,66.981 L 191.302,67.542 L 189.947,71.216 L 184.128,66.304 L 180.901,66.946 L 180.780,64.647 L 182.482,63.480 L 180.629,62.811 L 181.464,61.342 L 177.727,59.190 L 178.682,57.592 L 177.770,56.236 L 179.621,54.638 L 178.768,52.388 L 180.589,51.460 L 178.676,49.993 L 180.556,48.155 L 178.674,47.247 L 183.452,46.221 L 182.136,44.913 L 178.731,44.421 L 179.805,42.871 L 181.537,42.263 L 179.668,39.982 L 182.221,39.325 L 183.741,36.673 L 187.773,37.499 L 189.354,35.789 L 192.638,35.227 L 193.442,33.693 L 195.861,33.946 Z M 219.648,44.699 L 220.544,44.538 L 220.633,43.915 L 218.990,43.838 L 219.648,44.699 Z M 220.739,45.032 L 221.666,45.382 L 221.366,44.712 L 220.739,45.032 Z M 221.697,46.052 L 222.624,46.402 L 222.324,45.732 L 221.697,46.052 Z M 234.267,63.059 L 233.371,63.221 L 233.283,63.844 L 234.927,63.920 L 234.267,63.059 Z M 224.914,70.217 L 225.241,69.226 L 224.614,69.547 L 224.914,70.217 Z M 214.913,68.209 L 216.898,66.944 L 216.643,66.258 L 215.328,66.261 L 214.075,67.636 L 214.913,68.209 Z M 217.255,66.145 L 217.582,65.155 L 216.955,65.475 L 217.255,66.145 Z M 212.474,66.154 L 212.801,65.164 L 212.174,65.484 L 212.474,66.154 Z M 213.428,65.130 L 213.755,64.140 L 213.128,64.460 L 213.428,65.130 Z M 197.151,49.829 L 197.478,48.839 L 196.851,49.159 L 197.151,49.829 Z M 193.012,35.881 L 193.938,36.231 L 193.638,35.561 L 193.012,35.881 Z M 201.935,52.888 L 202.262,51.898 L 201.635,52.218 L 201.935,52.888 Z M 219.166,65.120 L 219.493,64.129 L 218.866,64.450 L 219.166,65.120 Z" fill="none" stroke="#FF0000" stroke-width="0.01mm" transform="translate(0.000,0.000)" /><path d="M 224.159,58.995 L 221.448,62.928 L 217.565,64.101 L 216.937,63.543 L 217.756,62.313 L 215.694,62.125 L 210.933,64.991 L 208.602,64.995 L 206.598,63.817 L 204.649,59.765 L 204.586,57.466 L 205.361,56.204 L 201.926,56.991 L 200.670,56.099 L 201.757,54.165 L 204.445,53.587 L 203.577,52.423 L 203.829,51.049 L 208.307,49.254 L 204.841,48.972 L 199.379,51.838 L 198.897,49.109 L 201.612,46.327 L 200.147,45.802 L 194.627,49.753 L 192.385,48.846 L 191.191,49.310 L 194.926,61.758 L 194.763,62.812 L 193.329,63.325 L 192.390,65.146 L 191.775,63.327 L 188.547,61.925 L 188.022,60.170 L 185.555,58.736 L 183.475,54.634 L 185.348,46.123 L 184.420,44.065 L 186.165,41.397 L 186.491,39.097 L 188.133,38.377 L 190.354,35.597 L 191.534,36.473 L 193.281,36.471 L 194.578,34.554 L 195.683,34.680 L 197.133,36.546 L 198.192,35.539 L 199.178,36.464 L 200.925,36.365 L 201.595,34.768 L 200.932,30.618 L 204.273,29.240 L 206.241,27.353 L 209.007,30.366 L 210.480,27.537 L 212.731,26.368 L 212.870,28.906 L 210.410,30.507 L 209.325,32.936 L 210.377,37.245 L 211.931,37.721 L 213.935,39.761 L 216.990,44.465 L 218.633,44.861 L 220.639,46.901 L 222.737,50.584 L 225.637,51.839 L 227.333,48.930 L 225.328,46.891 L 223.893,46.543 L 223.293,44.883 L 221.858,44.535 L 219.030,41.491 L 218.651,38.858 L 217.036,37.360 L 215.971,34.728 L 218.564,32.536 L 219.901,36.333 L 222.474,38.850 L 223.738,43.478 L 228.167,47.651 L 232.123,47.067 L 231.056,43.972 L 229.411,43.178 L 228.374,39.939 L 228.949,36.984 L 231.816,36.818 L 232.985,39.019 L 233.369,43.408 L 235.061,45.113 L 233.243,47.033 L 232.298,51.346 L 233.974,53.034 L 234.442,54.853 L 235.530,53.908 L 236.995,54.304 L 236.041,55.328 L 236.941,56.587 L 233.536,57.090 L 232.239,58.291 L 233.959,59.292 L 235.102,62.163 L 234.566,63.059 L 233.847,62.134 L 232.532,62.138 L 231.430,63.545 L 230.338,69.902 L 231.999,77.050 L 230.654,77.373 L 229.666,76.417 L 228.426,69.906 L 229.377,67.605 L 227.994,64.096 L 226.325,65.983 L 224.772,66.465 L 223.552,68.974 L 222.029,69.504 L 221.422,72.236 L 220.239,71.264 L 219.553,72.128 L 217.223,72.451 L 214.315,76.336 L 213.177,74.886 L 214.084,72.170 L 213.154,70.591 L 217.722,68.044 L 220.898,64.350 L 223.183,63.818 L 224.074,61.326 L 226.448,60.698 L 224.159,58.995 Z" fill="none" stroke="#0000FF" stroke-width="0.01mm" transform="translate(0.000,0.000)" /><path d="M 226.805,59.995 L 227.132,59.005 L 226.505,59.325 L 226.805,59.995 Z" fill="none" stroke="#0000FF" stroke-width="0.01mm" transform="translate(0.000,0.000)" /></g></svg>