<?xml version="1.0" encoding="utf-8" ?>
<svg baseProfile="full" height="268.31mm" version="1.1" viewBox="0 0 300.00 268.31" width="300.00mm" xmlns="http://www.w3.org/2000/svg" xmlns:ev="http://www.w3.org/2001/xml-events" xmlns:xlink="http://www.w3.org/1999/xlink"><defs /><title>topo2laser output</title><g id="layer-03-water-142m-to-183m"><path d="M 291.719,4.806 L 289.716,6.533 L 289.681,10.813 L 288.892,12.123 L 285.801,12.676 L 285.049,14.898 L 281.700,15.678 L 280.309,18.347 L 273.387,18.862 L 272.989,20.585 L 271.266,21.532 L 271.004,23.473 L 269.219,24.526 L 268.198,27.249 L 261.272,27.769 L 260.024,30.236 L 255.014,30.774 L 253.985,33.159 L 250.813,33.772 L 249.880,36.157 L 246.806,36.693 L 245.609,39.261 L 240.640,39.772 L 240.001,41.788 L 238.419,42.534 L 237.638,45.090 L 232.620,45.688 L 231.375,48.164 L 228.319,48.685 L 227.692,50.758 L 226.094,51.522 L 225.350,54.048 L 222.158,54.672 L 221.402,56.893 L 218.048,57.667 L 216.849,60.234 L 213.838,60.738 L 213.324,62.715 L 211.710,63.498 L 210.947,66.039 L 207.772,66.646 L 207.015,68.867 L 203.659,69.639 L 202.351,72.264 L 197.485,72.712 L 196.491,75.067 L 193.373,75.627 L 192.435,78.013 L 189.557,78.697 L 189.062,80.636 L 189.717,82.962 L 194.195,83.666 L 195.407,86.084 L 206.170,86.480 L 207.898,89.148 L 214.881,89.662 L 215.947,92.123 L 219.108,92.709 L 220.265,95.103 L 227.165,95.566 L 228.416,98.152 L 231.777,98.914 L 232.539,101.054 L 237.116,101.368 L 238.233,102.236 L 238.726,104.028 L 243.852,104.608 L 244.917,107.079 L 248.361,107.929 L 248.873,110.211 L 250.476,110.968 L 250.979,112.869 L 256.156,113.485 L 257.131,116.164 L 258.900,117.164 L 259.238,118.822 L 264.200,119.321 L 265.364,121.684 L 298.492,122.009 L 299.980,122.765 L 300.000,204.644 L 295.312,220.560 L 285.938,234.202 L 271.875,245.571 L 253.125,254.665 L 229.688,261.486 L 201.562,266.034 L 168.750,268.307 L 131.250,268.307 L 98.438,264.350 L 70.312,256.436 L 46.875,244.565 L 28.125,228.737 L 14.062,208.952 L 4.688,185.210 L 0.000,157.511 L 0.044,3.606 L 0.701,0.043 L 291.061,0.056 L 291.719,4.806 Z" fill="none" stroke="#FF0000" stroke-width="0.01mm" transform="translate(0.000,0.000)" /><path d="M 88.103,179.001 L 88.159,171.878 L 88.819,170.550 L 93.190,170.301 L 94.240,173.034 L 96.030,174.084 L 96.300,176.026 L 98.264,175.873 L 98.899,173.802 L 100.503,173.043 L 100.922,170.876 L 102.571,170.058 L 102.657,165.633 L 104.641,164.085 L 105.186,158.778 L 108.702,157.883 L 109.097,156.090 L 110.840,155.129 L 111.113,153.189 L 112.906,152.144 L 113.877,149.463 L 122.859,148.932 L 123.714,146.900 L 125.165,146.182 L 130.349,146.437 L 131.401,149.169 L 133.168,150.175 L 133.535,151.926 L 136.964,152.738 L 137.587,155.147 L 139.412,156.260 L 139.649,158.135 L 141.428,159.161 L 141.712,161.123 L 143.467,162.107 L 143.774,164.111 L 145.377,164.872 L 146.009,166.944 L 149.375,167.712 L 149.964,170.086 L 151.582,170.867 L 152.100,172.842 L 159.624,173.617 L 160.589,178.675 L 163.806,179.643 L 164.414,182.034 L 166.077,182.873 L 166.480,185.020 L 168.128,185.840 L 168.545,188.007 L 170.164,188.787 L 170.683,190.762 L 173.751,191.285 L 174.714,193.546 L 175.695,193.823 L 184.679,193.739 L 186.528,191.089 L 192.974,190.975 L 198.221,191.110 L 199.887,193.723 L 207.097,193.790 L 209.218,191.069 L 217.813,190.709 L 218.617,188.732 L 219.892,187.975 L 230.098,187.698 L 231.044,185.664 L 232.395,184.948 L 253.481,184.907 L 254.934,185.847 L 255.305,187.870 L 255.636,185.866 L 257.023,184.908 L 275.706,184.499 L 277.146,182.020 L 282.114,181.491 L 283.328,179.012 L 288.166,178.575 L 288.934,176.412 L 292.281,175.650 L 293.583,173.022 L 299.047,172.845 L 299.942,173.309 L 300.000,226.768 L 295.312,237.153 L 285.938,246.054 L 271.875,253.472 L 253.125,259.406 L 229.688,263.857 L 201.562,266.824 L 168.750,268.307 L 131.250,268.307 L 98.438,264.350 L 70.312,256.436 L 46.875,244.565 L 28.125,228.737 L 14.062,208.952 L 4.688,185.210 L 0.000,157.511 L 0.044,3.606 L 0.687,0.055 L 285.051,0.231 L 285.581,7.621 L 284.791,9.135 L 277.664,9.793 L 276.520,12.193 L 273.468,12.717 L 272.957,14.631 L 271.248,15.557 L 270.962,17.541 L 269.201,18.551 L 269.004,20.360 L 267.916,21.402 L 252.837,21.909 L 252.312,23.813 L 250.715,24.578 L 250.308,26.747 L 248.666,27.571 L 248.199,29.818 L 244.735,30.723 L 243.703,33.185 L 236.610,33.806 L 235.463,36.205 L 232.310,36.803 L 231.376,39.187 L 228.203,39.799 L 227.690,41.776 L 226.077,42.559 L 225.443,44.987 L 222.043,45.786 L 221.530,47.763 L 219.916,48.546 L 219.507,50.715 L 217.864,51.537 L 217.063,54.109 L 211.867,54.766 L 210.835,57.150 L 207.660,57.760 L 206.724,60.144 L 203.548,60.754 L 202.612,63.137 L 199.436,63.747 L 198.500,66.130 L 195.323,66.739 L 194.386,69.123 L 191.209,69.731 L 190.293,72.100 L 187.095,72.723 L 186.178,75.092 L 183.080,75.637 L 182.450,77.710 L 180.850,78.472 L 180.438,80.640 L 178.793,81.461 L 178.321,83.707 L 174.850,84.606 L 173.773,87.094 L 166.513,87.768 L 165.984,89.670 L 164.383,90.432 L 163.878,92.715 L 160.437,93.575 L 159.419,96.021 L 154.125,96.734 L 153.627,98.636 L 152.026,99.397 L 151.386,101.823 L 147.979,102.616 L 147.462,104.592 L 145.845,105.372 L 145.431,107.540 L 143.785,108.360 L 142.938,110.959 L 137.968,111.500 L 136.715,113.973 L 133.552,114.563 L 133.034,116.539 L 131.417,117.318 L 131.013,125.441 L 129.764,126.242 L 125.398,126.509 L 124.752,128.523 L 123.158,129.279 L 122.888,131.224 L 125.119,132.696 L 125.191,136.314 L 124.563,137.683 L 123.159,138.227 L 122.651,140.509 L 121.386,141.194 L 118.314,141.061 L 117.268,140.075 L 116.973,138.220 L 116.526,140.428 L 114.629,141.227 L 114.870,145.318 L 114.262,146.621 L 108.884,147.408 L 107.961,149.700 L 104.758,150.314 L 103.906,152.618 L 100.629,153.297 L 99.994,155.368 L 98.390,156.127 L 98.388,158.102 L 100.387,159.751 L 99.853,164.478 L 96.486,165.241 L 95.965,167.153 L 94.709,168.024 L 81.837,168.484 L 81.573,170.045 L 85.040,170.352 L 85.985,173.022 L 87.739,174.008 L 88.103,179.001 Z" fill="none" stroke="#0000FF" stroke-width="0.01mm" transform="translate(0.000,0.000)" /><path d="M 63.538,215.831 L 63.174,217.605 L 63.227,217.791 L 63.538,215.831 Z" fill="none" stroke="#0000FF" stroke-width="0.01mm" transform="translate(0.000,0.000)" /><path d="M 71.465,208.846 L 73.605,208.850 L 74.438,206.267 L 77.438,205.497 L 78.393,200.458 L 82.163,199.883 L 82.088,195.130 L 83.958,193.931 L 84.535,191.576 L 86.035,190.916 L 86.031,188.972 L 84.356,188.109 L 83.971,185.979 L 79.525,185.951 L 78.181,185.131 L 77.783,182.983 L 75.821,181.500 L 76.002,176.981 L 75.192,179.229 L 73.588,179.987 L 73.571,181.870 L 75.574,183.564 L 75.625,193.916 L 77.599,195.446 L 77.633,202.103 L 76.552,203.672 L 73.611,204.119 L 73.090,206.093 L 71.469,206.871 L 71.465,208.846 Z" fill="none" stroke="#0000FF" stroke-width="0.01mm" transform="translate(0.000,0.000)" /><path d="M 79.872,172.996 L 79.789,171.051 L 79.511,173.032 L 79.872,172.996 Z" fill="none" stroke="#0000FF" stroke-width="0.01mm" transform="translate(0.000,0.000)" /><path d="M 77.803,175.980 L 77.720,174.035 L 77.441,176.016 L 77.803,175.980 Z" fill="none" stroke="#0000FF" stroke-width="0.01mm" transform="translate(0.000,0.000)" /></g></svg>