<?xml version="1.0" encoding="utf-8" ?>
<svg baseProfile="full" height="175.71mm" version="1.1" viewBox="0 0 330.00 175.71" width="330.00mm" xmlns="http://www.w3.org/2000/svg" xmlns:ev="http://www.w3.org/2001/xml-events" xmlns:xlink="http://www.w3.org/1999/xlink"><defs /><title>topo2laser output</title><g id="layer-00-water-neg4290m-to-neg3217m"><path d="M 300.000,81.961 L 300.000,63.747 L 295.312,47.811 L 285.938,34.150 L 271.875,22.767 L 253.125,13.660 L 229.688,6.830 L 201.562,2.277 L 168.750,0.000 L 131.250,0.000 L 98.438,2.277 L 70.312,6.830 L 46.875,13.660 L 28.125,22.767 L 14.062,34.150 L 4.688,47.811 L 0.000,63.747 L 0.000,81.961 L 4.688,97.898 L 14.062,111.558 L 28.125,122.941 L 46.875,132.048 L 70.312,138.878 L 98.438,143.432 L 131.250,145.708 L 168.750,145.708 L 201.562,143.432 L 229.688,138.878 L 253.125,132.048 L 271.875,122.941 L 285.938,111.558 L 295.312,97.898 L 300.000,81.961 Z" fill="none" stroke="#FF0000" stroke-width="0.01mm" transform="translate(15.000,15.000)" /><path d="M 0.053,65.913 L 4.731,61.072 L 9.700,60.901 L 11.228,61.909 L 11.352,59.278 L 12.305,58.082 L 18.207,57.843 L 19.196,54.792 L 20.446,53.835 L 28.595,54.040 L 33.291,49.721 L 33.506,46.776 L 36.172,43.846 L 34.289,40.626 L 35.407,31.590 L 38.093,29.314 L 38.248,26.606 L 40.461,21.960 L 42.254,21.115 L 46.620,16.453 L 50.299,16.146 L 54.020,18.716 L 58.320,18.368 L 62.837,16.949 L 64.193,13.101 L 65.336,12.120 L 68.016,12.013 L 69.855,11.003 L 72.541,11.986 L 77.342,12.020 L 78.088,10.446 L 81.133,8.971 L 83.601,2.502 L 86.246,1.781 L 88.021,0.005 L 104.102,0.026 L 107.907,2.898 L 113.374,0.890 L 122.354,1.122 L 123.380,0.035 L 222.761,0.000 L 242.070,2.162 L 258.622,6.485 L 272.415,12.969 L 283.449,21.616 L 291.724,32.424 L 297.241,45.393 L 300.000,60.524 L 299.947,138.354 L 295.298,137.934 L 293.749,135.030 L 293.603,133.013 L 292.273,131.706 L 290.007,135.071 L 289.627,137.592 L 286.194,140.195 L 284.254,143.288 L 279.048,145.545 L 277.193,145.628 L 274.027,142.914 L 273.517,141.396 L 272.176,141.581 L 271.495,143.707 L 269.631,145.679 L 117.956,145.708 L 88.467,145.034 L 63.191,143.685 L 42.127,141.662 L 25.276,138.964 L 12.638,135.591 L 4.213,131.545 L 0.000,126.824 L 0.032,102.500 L 1.366,101.738 L 6.324,101.720 L 7.307,99.952 L 8.546,92.504 L 3.644,87.066 L 3.563,83.937 L 4.650,82.045 L 2.875,80.239 L 0.024,79.229 L 0.053,65.913 Z" fill="none" stroke="#0000FF" stroke-width="0.01mm" transform="translate(15.000,15.000)" /></g><g id="layer-01-water-neg3217m-to-neg2145m"><path d="M 0.053,65.913 L 4.731,61.072 L 9.700,60.901 L 11.228,61.909 L 11.352,59.278 L 12.305,58.082 L 18.207,57.843 L 19.196,54.792 L 20.446,53.835 L 28.595,54.040 L 33.291,49.721 L 33.506,46.776 L 36.172,43.846 L 34.289,40.626 L 35.407,31.590 L 38.093,29.314 L 38.248,26.606 L 40.461,21.960 L 42.254,21.115 L 46.620,16.453 L 50.299,16.146 L 54.020,18.716 L 58.320,18.368 L 62.837,16.949 L 64.193,13.101 L 65.336,12.120 L 68.016,12.013 L 69.855,11.003 L 72.541,11.986 L 77.342,12.020 L 78.088,10.446 L 81.133,8.971 L 83.601,2.502 L 86.246,1.781 L 88.021,0.005 L 104.102,0.026 L 107.907,2.898 L 113.374,0.890 L 122.354,1.122 L 123.380,0.035 L 222.761,0.000 L 242.070,2.162 L 258.622,6.485 L 272.415,12.969 L 283.449,21.616 L 291.724,32.424 L 297.241,45.393 L 300.000,60.524 L 299.947,138.354 L 295.298,137.934 L 293.749,135.030 L 293.603,133.013 L 292.273,131.706 L 290.007,135.071 L 289.627,137.592 L 286.194,140.195 L 284.254,143.288 L 279.048,145.545 L 277.193,145.628 L 274.027,142.914 L 273.517,141.396 L 272.176,141.581 L 271.495,143.707 L 269.631,145.679 L 117.956,145.708 L 88.467,145.034 L 63.191,143.685 L 42.127,141.662 L 25.276,138.964 L 12.638,135.591 L 4.213,131.545 L 0.000,126.824 L 0.032,102.500 L 1.366,101.738 L 6.324,101.720 L 7.307,99.952 L 8.546,92.504 L 3.644,87.066 L 3.563,83.937 L 4.650,82.045 L 2.875,80.239 L 0.024,79.229 L 0.053,65.913 Z" fill="none" stroke="#FF0000" stroke-width="0.01mm" transform="translate(15.000,15.000)" /><path d="M 8.397,129.346 L 11.940,130.543 L 13.288,127.149 L 14.842,126.288 L 17.372,122.796 L 20.867,121.188 L 23.438,118.485 L 29.464,118.167 L 32.089,115.436 L 34.317,115.087 L 32.155,112.265 L 32.182,97.672 L 29.585,95.652 L 25.378,94.198 L 21.086,89.610 L 17.020,79.827 L 17.216,76.220 L 19.806,73.486 L 20.313,71.845 L 21.580,71.164 L 23.850,71.459 L 24.814,73.185 L 26.759,73.200 L 28.896,71.262 L 31.435,71.182 L 32.919,71.888 L 33.921,74.086 L 39.155,74.273 L 40.052,73.467 L 42.160,69.069 L 44.441,66.601 L 43.811,62.623 L 45.973,58.930 L 43.064,57.798 L 41.905,55.101 L 42.226,51.678 L 46.654,48.040 L 49.153,43.255 L 51.450,41.923 L 52.572,36.797 L 54.023,35.025 L 58.169,33.458 L 63.338,33.488 L 65.154,34.448 L 71.554,25.625 L 71.951,22.084 L 75.664,19.357 L 77.891,19.253 L 80.342,20.500 L 83.228,24.294 L 85.002,24.537 L 89.778,27.647 L 94.690,24.532 L 96.670,24.344 L 101.427,26.718 L 103.227,28.691 L 104.329,27.383 L 104.274,23.416 L 106.659,21.759 L 101.314,16.763 L 101.410,14.238 L 103.506,12.199 L 108.341,12.124 L 111.602,14.079 L 113.795,14.108 L 115.488,13.126 L 115.706,10.234 L 117.257,9.056 L 120.780,9.075 L 122.332,10.060 L 123.965,9.058 L 136.734,9.003 L 138.458,8.030 L 144.307,9.017 L 149.646,7.039 L 155.930,6.947 L 160.268,4.976 L 177.773,4.920 L 179.072,4.000 L 181.704,3.868 L 182.925,1.473 L 185.413,0.031 L 297.028,0.059 L 298.089,3.618 L 299.800,4.824 L 299.811,7.442 L 298.110,8.661 L 297.915,10.515 L 296.195,13.081 L 297.228,27.449 L 299.973,33.563 L 299.991,87.436 L 299.272,90.026 L 293.997,95.980 L 291.774,97.259 L 291.418,98.717 L 289.249,101.091 L 285.880,103.518 L 284.499,106.201 L 282.240,107.513 L 280.657,112.380 L 276.193,113.016 L 272.694,115.722 L 268.887,122.887 L 267.608,127.372 L 265.733,128.351 L 262.211,132.105 L 260.943,136.569 L 257.171,140.439 L 254.118,140.138 L 251.449,134.180 L 247.631,132.457 L 245.564,134.379 L 240.816,134.581 L 236.103,137.421 L 234.143,137.648 L 232.544,138.623 L 232.255,140.648 L 230.903,141.656 L 228.951,141.611 L 222.351,139.069 L 221.024,139.671 L 215.643,139.082 L 212.609,139.585 L 210.375,137.411 L 208.003,137.603 L 205.434,136.307 L 201.946,132.616 L 198.783,132.269 L 197.808,130.523 L 194.033,130.257 L 189.484,126.501 L 184.344,126.116 L 183.501,124.923 L 183.439,122.374 L 180.938,120.503 L 180.514,118.271 L 177.010,116.275 L 176.998,113.201 L 175.906,111.935 L 170.617,112.101 L 168.063,110.119 L 165.105,111.135 L 152.665,110.175 L 148.441,114.730 L 141.197,119.343 L 136.812,124.031 L 133.546,125.460 L 131.728,127.272 L 129.675,127.539 L 128.087,129.205 L 124.907,130.574 L 121.417,134.281 L 111.757,139.734 L 110.444,142.932 L 107.741,145.678 L 47.130,145.708 L 25.248,144.943 L 10.099,143.157 L 5.050,141.881 L 1.683,140.350 L 0.000,138.564 L 0.070,129.362 L 8.397,129.346 Z" fill="none" stroke="#0000FF" stroke-width="0.01mm" transform="translate(15.000,15.000)" /></g><g id="layer-02-water-neg2145m-to-neg1072m"><path d="M 8.397,129.346 L 11.940,130.543 L 13.288,127.149 L 14.842,126.288 L 17.372,122.796 L 20.867,121.188 L 23.438,118.485 L 29.464,118.167 L 32.089,115.436 L 34.317,115.087 L 32.155,112.265 L 32.182,97.672 L 29.585,95.652 L 25.378,94.198 L 21.086,89.610 L 17.020,79.827 L 17.216,76.220 L 19.806,73.486 L 20.313,71.845 L 21.580,71.164 L 23.850,71.459 L 24.814,73.185 L 26.759,73.200 L 28.896,71.262 L 31.435,71.182 L 32.919,71.888 L 33.921,74.086 L 39.155,74.273 L 40.052,73.467 L 42.160,69.069 L 44.441,66.601 L 43.811,62.623 L 45.973,58.930 L 43.064,57.798 L 41.905,55.101 L 42.226,51.678 L 46.654,48.040 L 49.153,43.255 L 51.450,41.923 L 52.572,36.797 L 54.023,35.025 L 58.169,33.458 L 63.338,33.488 L 65.154,34.448 L 71.554,25.625 L 71.951,22.084 L 75.664,19.357 L 77.891,19.253 L 80.342,20.500 L 83.228,24.294 L 85.002,24.537 L 89.778,27.647 L 94.690,24.532 L 96.670,24.344 L 101.427,26.718 L 103.227,28.691 L 104.329,27.383 L 104.274,23.416 L 106.659,21.759 L 101.314,16.763 L 101.410,14.238 L 103.506,12.199 L 108.341,12.124 L 111.602,14.079 L 113.795,14.108 L 115.488,13.126 L 115.706,10.234 L 117.257,9.056 L 120.780,9.075 L 122.332,10.060 L 123.965,9.058 L 136.734,9.003 L 138.458,8.030 L 144.307,9.017 L 149.646,7.039 L 155.930,6.947 L 160.268,4.976 L 177.773,4.920 L 179.072,4.000 L 181.704,3.868 L 182.925,1.473 L 185.413,0.031 L 297.028,0.059 L 298.089,3.618 L 299.800,4.824 L 299.811,7.442 L 298.110,8.661 L 297.915,10.515 L 296.195,13.081 L 297.228,27.449 L 299.973,33.563 L 299.991,87.436 L 299.272,90.026 L 293.997,95.980 L 291.774,97.259 L 291.418,98.717 L 289.249,101.091 L 285.880,103.518 L 284.499,106.201 L 282.240,107.513 L 280.657,112.380 L 276.193,113.016 L 272.694,115.722 L 268.887,122.887 L 267.608,127.372 L 265.733,128.351 L 262.211,132.105 L 260.943,136.569 L 257.171,140.439 L 254.118,140.138 L 251.449,134.180 L 247.631,132.457 L 245.564,134.379 L 240.816,134.581 L 236.103,137.421 L 234.143,137.648 L 232.544,138.623 L 232.255,140.648 L 230.903,141.656 L 228.951,141.611 L 222.351,139.069 L 221.024,139.671 L 215.643,139.082 L 212.609,139.585 L 210.375,137.411 L 208.003,137.603 L 205.434,136.307 L 201.946,132.616 L 198.783,132.269 L 197.808,130.523 L 194.033,130.257 L 189.484,126.501 L 184.344,126.116 L 183.501,124.923 L 183.439,122.374 L 180.938,120.503 L 180.514,118.271 L 177.010,116.275 L 176.998,113.201 L 175.906,111.935 L 170.617,112.101 L 168.063,110.119 L 165.105,111.135 L 152.665,110.175 L 148.441,114.730 L 141.197,119.343 L 136.812,124.031 L 133.546,125.460 L 131.728,127.272 L 129.675,127.539 L 128.087,129.205 L 124.907,130.574 L 121.417,134.281 L 111.757,139.734 L 110.444,142.932 L 107.741,145.678 L 47.130,145.708 L 25.248,144.943 L 10.099,143.157 L 5.050,141.881 L 1.683,140.350 L 0.000,138.564 L 0.070,129.362 L 8.397,129.346 Z" fill="none" stroke="#FF0000" stroke-width="0.01mm" transform="translate(15.000,15.000)" /><path d="M 23.923,138.424 L 20.598,134.801 L 20.735,131.628 L 23.602,129.601 L 25.947,125.927 L 34.272,122.256 L 36.972,118.454 L 41.965,117.161 L 45.508,113.429 L 46.230,110.527 L 44.646,107.365 L 44.584,99.786 L 42.825,98.399 L 42.727,94.342 L 31.052,91.093 L 27.574,87.179 L 27.671,82.475 L 30.327,80.375 L 35.478,80.410 L 37.092,81.371 L 49.544,81.695 L 52.328,79.410 L 56.145,73.611 L 56.236,70.760 L 57.413,68.174 L 59.056,67.167 L 60.951,64.427 L 61.041,61.577 L 61.917,60.343 L 62.000,50.460 L 64.093,45.842 L 71.712,38.804 L 76.601,37.539 L 81.713,34.581 L 83.687,34.616 L 85.049,35.556 L 86.563,34.575 L 90.184,34.581 L 95.778,38.020 L 98.193,40.628 L 100.261,40.911 L 102.013,42.677 L 104.059,42.948 L 109.185,46.242 L 113.641,51.217 L 113.778,65.543 L 117.314,69.323 L 117.595,73.720 L 120.824,78.099 L 127.885,71.685 L 128.024,66.602 L 130.766,62.481 L 132.673,57.383 L 132.734,53.630 L 133.660,51.699 L 132.751,46.406 L 135.495,44.003 L 135.741,27.641 L 142.883,19.828 L 146.314,17.402 L 149.622,16.240 L 153.067,16.143 L 155.376,14.192 L 158.717,15.166 L 161.409,13.138 L 164.121,14.097 L 174.007,14.157 L 175.667,15.127 L 180.887,15.196 L 182.472,16.530 L 187.102,12.102 L 187.465,9.950 L 190.674,6.472 L 195.529,4.835 L 195.917,2.002 L 197.796,0.015 L 234.069,0.039 L 237.649,3.788 L 241.645,5.084 L 245.866,4.875 L 247.507,5.843 L 250.151,4.824 L 258.354,5.396 L 261.502,2.753 L 266.691,2.741 L 269.451,3.707 L 271.340,1.877 L 274.252,1.634 L 275.911,0.654 L 284.155,0.691 L 287.344,3.764 L 288.490,6.360 L 288.567,11.135 L 289.490,12.658 L 288.558,16.290 L 289.521,21.175 L 288.585,23.081 L 289.521,24.773 L 289.594,29.524 L 292.278,33.465 L 292.489,36.664 L 293.417,38.260 L 293.410,42.763 L 292.469,44.198 L 293.451,48.772 L 292.244,50.608 L 293.460,52.394 L 293.471,60.181 L 292.166,64.074 L 287.818,67.715 L 287.834,70.392 L 290.673,73.839 L 289.706,80.728 L 286.931,83.332 L 286.924,91.713 L 285.636,95.715 L 279.168,100.478 L 276.673,105.356 L 268.669,109.710 L 263.740,120.253 L 258.175,126.090 L 253.031,126.267 L 248.602,124.004 L 245.218,121.546 L 242.811,117.167 L 234.069,117.228 L 231.858,119.165 L 225.958,119.117 L 222.032,116.233 L 218.809,115.849 L 215.321,112.159 L 208.033,112.075 L 202.868,109.114 L 198.010,108.884 L 192.003,105.686 L 190.389,104.007 L 188.192,103.660 L 183.406,99.884 L 182.015,100.859 L 175.695,100.956 L 174.066,101.928 L 163.292,101.935 L 161.964,101.337 L 160.640,101.936 L 149.793,102.001 L 146.692,103.915 L 142.134,104.044 L 139.584,105.715 L 138.773,107.654 L 134.498,109.955 L 131.227,111.095 L 128.062,111.151 L 127.447,112.613 L 125.217,113.882 L 123.560,116.748 L 120.384,118.003 L 120.357,122.763 L 118.935,125.765 L 114.852,130.086 L 111.583,132.375 L 109.551,132.630 L 104.396,138.168 L 102.860,138.726 L 98.152,145.674 L 53.113,145.706 L 51.207,141.673 L 45.749,140.467 L 43.908,138.730 L 42.616,134.728 L 43.134,131.449 L 38.694,131.420 L 37.063,133.119 L 33.879,134.480 L 29.685,138.474 L 23.923,138.424 Z" fill="none" stroke="#0000FF" stroke-width="0.01mm" transform="translate(15.000,15.000)" /></g><g id="layer-03-water-neg1072m-to-0m"><path d="M 23.923,138.424 L 20.598,134.801 L 20.735,131.628 L 23.602,129.601 L 25.947,125.927 L 34.272,122.256 L 36.972,118.454 L 41.965,117.161 L 45.508,113.429 L 46.230,110.527 L 44.646,107.365 L 44.584,99.786 L 42.825,98.399 L 42.727,94.342 L 31.052,91.093 L 27.574,87.179 L 27.671,82.475 L 30.327,80.375 L 35.478,80.410 L 37.092,81.371 L 49.544,81.695 L 52.328,79.410 L 56.145,73.611 L 56.236,70.760 L 57.413,68.174 L 59.056,67.167 L 60.951,64.427 L 61.041,61.577 L 61.917,60.343 L 62.000,50.460 L 64.093,45.842 L 71.712,38.804 L 76.601,37.539 L 81.713,34.581 L 83.687,34.616 L 85.049,35.556 L 86.563,34.575 L 90.184,34.581 L 95.778,38.020 L 98.193,40.628 L 100.261,40.911 L 102.013,42.677 L 104.059,42.948 L 109.185,46.242 L 113.641,51.217 L 113.778,65.543 L 117.314,69.323 L 117.595,73.720 L 120.824,78.099 L 127.885,71.685 L 128.024,66.602 L 130.766,62.481 L 132.673,57.383 L 132.734,53.630 L 133.660,51.699 L 132.751,46.406 L 135.495,44.003 L 135.741,27.641 L 142.883,19.828 L 146.314,17.402 L 149.622,16.240 L 153.067,16.143 L 155.376,14.192 L 158.717,15.166 L 161.409,13.138 L 164.121,14.097 L 174.007,14.157 L 175.667,15.127 L 180.887,15.196 L 182.472,16.530 L 187.102,12.102 L 187.465,9.950 L 190.674,6.472 L 195.529,4.835 L 195.917,2.002 L 197.796,0.015 L 234.069,0.039 L 237.649,3.788 L 241.645,5.084 L 245.866,4.875 L 247.507,5.843 L 250.151,4.824 L 258.354,5.396 L 261.502,2.753 L 266.691,2.741 L 269.451,3.707 L 271.340,1.877 L 274.252,1.634 L 275.911,0.654 L 284.155,0.691 L 287.344,3.764 L 288.490,6.360 L 288.567,11.135 L 289.490,12.658 L 288.558,16.290 L 289.521,21.175 L 288.585,23.081 L 289.521,24.773 L 289.594,29.524 L 292.278,33.465 L 292.489,36.664 L 293.417,38.260 L 293.410,42.763 L 292.469,44.198 L 293.451,48.772 L 292.244,50.608 L 293.460,52.394 L 293.471,60.181 L 292.166,64.074 L 287.818,67.715 L 287.834,70.392 L 290.673,73.839 L 289.706,80.728 L 286.931,83.332 L 286.924,91.713 L 285.636,95.715 L 279.168,100.478 L 276.673,105.356 L 268.669,109.710 L 263.740,120.253 L 258.175,126.090 L 253.031,126.267 L 248.602,124.004 L 245.218,121.546 L 242.811,117.167 L 234.069,117.228 L 231.858,119.165 L 225.958,119.117 L 222.032,116.233 L 218.809,115.849 L 215.321,112.159 L 208.033,112.075 L 202.868,109.114 L 198.010,108.884 L 192.003,105.686 L 190.389,104.007 L 188.192,103.660 L 183.406,99.884 L 182.015,100.859 L 175.695,100.956 L 174.066,101.928 L 163.292,101.935 L 161.964,101.337 L 160.640,101.936 L 149.793,102.001 L 146.692,103.915 L 142.134,104.044 L 139.584,105.715 L 138.773,107.654 L 134.498,109.955 L 131.227,111.095 L 128.062,111.151 L 127.447,112.613 L 125.217,113.882 L 123.560,116.748 L 120.384,118.003 L 120.357,122.763 L 118.935,125.765 L 114.852,130.086 L 111.583,132.375 L 109.551,132.630 L 104.396,138.168 L 102.860,138.726 L 98.152,145.674 L 53.113,145.706 L 51.207,141.673 L 45.749,140.467 L 43.908,138.730 L 42.616,134.728 L 43.134,131.449 L 38.694,131.420 L 37.063,133.119 L 33.879,134.480 L 29.685,138.474 L 23.923,138.424 Z" fill="none" stroke="#FF0000" stroke-width="0.01mm" transform="translate(15.000,15.000)" /><path d="M 252.406,17.079 L 256.695,19.381 L 257.566,20.911 L 261.240,22.018 L 263.210,22.011 L 264.386,21.129 L 266.435,22.336 L 271.499,28.051 L 272.784,28.397 L 275.444,37.776 L 277.779,39.364 L 278.017,43.099 L 276.901,48.436 L 275.368,49.942 L 275.004,52.577 L 272.593,55.013 L 272.161,59.644 L 268.793,62.130 L 267.777,66.604 L 267.733,71.202 L 268.608,73.881 L 267.658,75.800 L 269.574,76.688 L 268.624,78.607 L 269.545,81.286 L 269.376,84.224 L 268.333,85.425 L 265.534,84.428 L 263.056,85.554 L 263.043,86.241 L 265.513,87.111 L 265.344,90.368 L 261.281,91.754 L 259.791,93.483 L 257.460,93.969 L 255.888,98.284 L 252.779,99.092 L 252.126,100.626 L 250.691,100.982 L 248.425,103.734 L 244.270,105.118 L 243.288,106.973 L 241.727,105.173 L 238.436,104.782 L 235.529,103.065 L 230.084,102.758 L 227.779,101.901 L 223.697,102.916 L 222.125,102.073 L 216.366,101.685 L 210.574,99.732 L 209.030,97.866 L 206.792,100.903 L 202.463,96.999 L 199.112,95.630 L 198.661,93.971 L 196.160,91.595 L 195.664,89.153 L 193.196,88.438 L 191.652,85.806 L 188.691,84.755 L 183.757,84.361 L 179.300,81.699 L 176.190,81.382 L 170.359,79.342 L 169.282,78.289 L 167.949,73.517 L 164.495,69.639 L 164.434,64.274 L 165.447,58.526 L 169.209,54.198 L 170.852,53.798 L 173.748,50.699 L 174.999,46.068 L 176.610,43.353 L 176.981,39.840 L 179.800,36.741 L 186.844,33.669 L 191.949,33.168 L 193.171,31.618 L 196.632,30.273 L 201.760,25.476 L 207.129,23.105 L 211.570,19.265 L 213.539,19.262 L 214.825,20.186 L 216.494,19.256 L 219.359,19.315 L 220.992,22.185 L 222.378,21.288 L 225.288,21.330 L 226.771,23.770 L 228.563,24.245 L 231.097,23.058 L 230.314,19.850 L 232.668,18.264 L 236.965,18.190 L 238.937,19.111 L 240.412,18.102 L 241.175,18.946 L 245.280,19.334 L 247.001,21.134 L 247.772,19.407 L 251.053,18.839 L 252.406,17.079 Z" fill="none" stroke="#0000FF" stroke-width="0.01mm" transform="translate(15.000,15.000)" /><path d="M 97.152,74.360 L 100.038,73.390 L 101.395,75.228 L 102.949,75.709 L 104.067,78.105 L 103.032,80.259 L 100.400,81.708 L 96.422,92.064 L 99.180,98.182 L 99.118,99.715 L 94.207,102.805 L 79.241,107.264 L 77.382,109.256 L 74.195,116.019 L 72.576,117.420 L 68.900,128.396 L 62.172,125.187 L 59.237,119.831 L 59.057,114.083 L 59.483,111.498 L 60.772,110.751 L 61.689,108.790 L 63.037,102.072 L 64.986,100.001 L 66.633,99.606 L 72.660,92.866 L 77.134,91.455 L 78.829,88.824 L 81.700,88.478 L 85.801,86.363 L 88.679,82.201 L 89.884,76.775 L 90.872,75.531 L 94.342,74.196 L 94.837,73.350 L 97.152,74.360 Z" fill="none" stroke="#0000FF" stroke-width="0.01mm" transform="translate(15.000,15.000)" /></g><g id="layer-04-land-0m-to-256m"><path d="M 252.406,17.079 L 256.695,19.381 L 257.566,20.911 L 261.240,22.018 L 263.210,22.011 L 264.386,21.129 L 266.435,22.336 L 271.499,28.051 L 272.784,28.397 L 275.444,37.776 L 277.779,39.364 L 278.017,43.099 L 276.901,48.436 L 275.368,49.942 L 275.004,52.577 L 272.593,55.013 L 272.161,59.644 L 268.793,62.130 L 267.777,66.604 L 267.733,71.202 L 268.608,73.881 L 267.658,75.800 L 269.574,76.688 L 268.624,78.607 L 269.545,81.286 L 269.376,84.224 L 268.333,85.425 L 265.534,84.428 L 263.056,85.554 L 263.043,86.241 L 265.513,87.111 L 265.344,90.368 L 261.281,91.754 L 259.791,93.483 L 257.460,93.969 L 255.888,98.284 L 252.779,99.092 L 252.126,100.626 L 250.691,100.982 L 248.425,103.734 L 244.270,105.118 L 243.288,106.973 L 241.727,105.173 L 238.436,104.782 L 235.529,103.065 L 230.084,102.758 L 227.779,101.901 L 223.697,102.916 L 222.125,102.073 L 216.366,101.685 L 210.574,99.732 L 209.030,97.866 L 206.792,100.903 L 202.463,96.999 L 199.112,95.630 L 198.661,93.971 L 196.160,91.595 L 195.664,89.153 L 193.196,88.438 L 191.652,85.806 L 188.691,84.755 L 183.757,84.361 L 179.300,81.699 L 176.190,81.382 L 170.359,79.342 L 169.282,78.289 L 167.949,73.517 L 164.495,69.639 L 164.434,64.274 L 165.447,58.526 L 169.209,54.198 L 170.852,53.798 L 173.748,50.699 L 174.999,46.068 L 176.610,43.353 L 176.981,39.840 L 179.800,36.741 L 186.844,33.669 L 191.949,33.168 L 193.171,31.618 L 196.632,30.273 L 201.760,25.476 L 207.129,23.105 L 211.570,19.265 L 213.539,19.262 L 214.825,20.186 L 216.494,19.256 L 219.359,19.315 L 220.992,22.185 L 222.378,21.288 L 225.288,21.330 L 226.771,23.770 L 228.563,24.245 L 231.097,23.058 L 230.314,19.850 L 232.668,18.264 L 236.965,18.190 L 238.937,19.111 L 240.412,18.102 L 241.175,18.946 L 245.280,19.334 L 247.001,21.134 L 247.772,19.407 L 251.053,18.839 L 252.406,17.079 Z" fill="none" stroke="#FF0000" stroke-width="0.01mm" transform="translate(15.000,15.000)" /><path d="M 97.152,74.360 L 100.038,73.390 L 101.395,75.228 L 102.949,75.709 L 104.067,78.105 L 103.032,80.259 L 100.400,81.708 L 96.422,92.064 L 99.180,98.182 L 99.118,99.715 L 94.207,102.805 L 79.241,107.264 L 77.382,109.256 L 74.195,116.019 L 72.576,117.420 L 68.900,128.396 L 62.172,125.187 L 59.237,119.831 L 59.057,114.083 L 59.483,111.498 L 60.772,110.751 L 61.689,108.790 L 63.037,102.072 L 64.986,100.001 L 66.633,99.606 L 72.660,92.866 L 77.134,91.455 L 78.829,88.824 L 81.700,88.478 L 85.801,86.363 L 88.679,82.201 L 89.884,76.775 L 90.872,75.531 L 94.342,74.196 L 94.837,73.350 L 97.152,74.360 Z" fill="none" stroke="#FF0000" stroke-width="0.01mm" transform="translate(15.000,15.000)" /><path d="M 247.259,71.296 L 249.481,75.154 L 248.306,77.089 L 244.495,77.243 L 242.011,76.004 L 242.051,74.375 L 245.380,72.930 L 246.093,71.299 L 247.259,71.296 Z" fill="none" stroke="#0000FF" stroke-width="0.01mm" transform="translate(15.000,15.000)" /><path d="M 185.891,36.575 L 190.144,34.543 L 192.698,35.450 L 192.173,33.743 L 195.530,32.493 L 198.278,33.400 L 198.710,32.122 L 197.857,30.670 L 199.498,30.269 L 201.808,27.408 L 203.272,28.283 L 203.717,26.431 L 206.668,24.303 L 208.809,28.370 L 210.320,21.407 L 212.621,23.255 L 213.215,21.530 L 214.110,21.209 L 215.679,22.467 L 215.865,26.139 L 214.739,30.260 L 212.279,32.068 L 212.553,35.325 L 213.927,35.275 L 213.148,33.632 L 217.532,31.229 L 218.007,29.695 L 218.902,29.374 L 221.810,35.307 L 223.260,36.486 L 223.556,35.144 L 222.625,32.464 L 223.019,28.344 L 224.232,30.289 L 225.979,30.285 L 226.962,29.357 L 229.114,30.534 L 230.899,34.441 L 234.244,28.638 L 235.677,28.411 L 235.127,35.374 L 236.156,41.119 L 236.964,42.043 L 236.027,43.306 L 238.245,46.685 L 238.867,44.640 L 237.952,42.950 L 239.831,42.035 L 238.095,40.475 L 238.052,35.111 L 240.120,32.408 L 242.152,38.517 L 243.575,34.809 L 247.515,34.511 L 249.489,35.432 L 252.890,34.416 L 254.788,35.400 L 257.418,31.321 L 259.231,33.343 L 261.661,32.378 L 267.156,32.791 L 267.473,33.876 L 266.611,35.044 L 269.166,35.690 L 270.398,37.985 L 268.937,38.389 L 261.163,35.413 L 258.151,36.588 L 257.021,38.028 L 259.804,39.808 L 259.749,41.341 L 257.992,43.006 L 259.759,44.789 L 259.765,46.449 L 258.693,47.506 L 256.230,47.913 L 254.012,50.586 L 252.580,50.941 L 251.022,54.809 L 250.076,52.992 L 248.041,51.784 L 247.196,53.798 L 246.013,52.812 L 244.731,53.997 L 246.410,56.068 L 246.474,57.600 L 243.455,56.906 L 242.143,57.867 L 241.497,62.467 L 239.886,63.493 L 240.756,64.863 L 240.586,68.376 L 237.989,69.628 L 239.760,72.625 L 239.782,75.371 L 237.185,76.814 L 235.955,81.160 L 234.285,82.952 L 235.072,87.101 L 231.430,89.792 L 232.301,91.227 L 231.225,91.676 L 228.587,88.617 L 226.109,90.618 L 223.804,89.649 L 222.416,90.657 L 221.352,89.654 L 220.008,90.582 L 218.914,88.972 L 221.758,83.075 L 220.573,81.529 L 219.424,82.505 L 218.077,81.678 L 216.758,87.428 L 214.534,89.667 L 213.306,88.360 L 212.837,85.631 L 210.731,86.512 L 209.980,84.758 L 205.581,82.370 L 206.294,79.655 L 204.756,80.392 L 204.379,78.636 L 202.463,76.500 L 201.806,76.692 L 201.361,79.183 L 199.926,79.313 L 200.847,75.672 L 203.547,71.980 L 202.379,70.321 L 199.886,72.512 L 198.562,76.314 L 197.532,77.337 L 196.366,77.290 L 195.959,75.088 L 196.869,73.793 L 195.254,72.965 L 194.996,70.220 L 197.667,67.023 L 197.500,65.203 L 193.215,67.540 L 190.323,73.642 L 190.266,75.941 L 192.048,78.701 L 191.645,79.436 L 190.479,79.389 L 189.042,77.603 L 183.569,75.166 L 182.521,73.490 L 183.461,71.653 L 182.294,70.345 L 179.980,72.327 L 175.869,70.989 L 176.749,69.616 L 175.045,68.962 L 173.908,66.089 L 176.775,63.597 L 174.174,62.992 L 172.291,61.939 L 171.992,60.982 L 173.243,55.457 L 174.826,54.306 L 173.928,52.247 L 175.780,51.576 L 174.853,50.315 L 175.659,49.484 L 176.075,46.419 L 178.672,45.331 L 176.939,44.438 L 176.849,43.033 L 178.966,38.817 L 184.219,36.417 L 184.621,35.603 L 185.891,36.575 Z" fill="none" stroke="#0000FF" stroke-width="0.01mm" transform="translate(15.000,15.000)" /><path d="M 223.589,36.852 L 224.516,37.202 L 224.216,36.532 L 223.589,36.852 Z" fill="none" stroke="#0000FF" stroke-width="0.01mm" transform="translate(15.000,15.000)" /><path d="M 238.903,47.035 L 239.830,47.384 L 239.530,46.714 L 238.903,47.035 Z" fill="none" stroke="#0000FF" stroke-width="0.01mm" transform="translate(15.000,15.000)" /><path d="M 242.705,38.851 L 243.632,39.200 L 243.331,38.530 L 242.705,38.851 Z" fill="none" stroke="#0000FF" stroke-width="0.01mm" transform="translate(15.000,15.000)" /><path d="M 217.912,81.151 L 216.984,80.802 L 217.285,81.472 L 217.912,81.151 Z" fill="none" stroke="#0000FF" stroke-width="0.01mm" transform="translate(15.000,15.000)" /><path d="M 204.842,78.428 L 205.170,77.437 L 204.542,77.758 L 204.842,78.428 Z" fill="none" stroke="#0000FF" stroke-width="0.01mm" transform="translate(15.000,15.000)" /><path d="M 203.875,71.277 L 204.202,70.287 L 203.575,70.607 L 203.875,71.277 Z" fill="none" stroke="#0000FF" stroke-width="0.01mm" transform="translate(15.000,15.000)" /><path d="M 206.428,69.820 L 205.590,69.247 L 204.515,69.695 L 205.353,70.269 L 206.428,69.820 Z" fill="none" stroke="#0000FF" stroke-width="0.01mm" transform="translate(15.000,15.000)" /><path d="M 198.232,65.170 L 198.676,61.721 L 198.227,61.083 L 198.232,65.170 Z" fill="none" stroke="#0000FF" stroke-width="0.01mm" transform="translate(15.000,15.000)" /><path d="M 199.078,61.066 L 199.406,60.076 L 198.779,60.396 L 199.078,61.066 Z" fill="none" stroke="#0000FF" stroke-width="0.01mm" transform="translate(15.000,15.000)" /><path d="M 198.748,59.726 L 197.821,59.376 L 198.121,60.046 L 198.748,59.726 Z" fill="none" stroke="#0000FF" stroke-width="0.01mm" transform="translate(15.000,15.000)" /><path d="M 197.790,58.705 L 196.864,58.355 L 197.163,59.025 L 197.790,58.705 Z" fill="none" stroke="#0000FF" stroke-width="0.01mm" transform="translate(15.000,15.000)" /><path d="M 186.324,36.910 L 187.250,37.261 L 186.951,36.590 L 186.324,36.910 Z" fill="none" stroke="#0000FF" stroke-width="0.01mm" transform="translate(15.000,15.000)" /><path d="M 214.334,37.541 L 214.661,36.550 L 214.034,36.871 L 214.334,37.541 Z" fill="none" stroke="#0000FF" stroke-width="0.01mm" transform="translate(15.000,15.000)" /><path d="M 223.973,77.371 L 224.300,76.381 L 223.673,76.701 L 223.973,77.371 Z" fill="none" stroke="#0000FF" stroke-width="0.01mm" transform="translate(15.000,15.000)" /><path d="M 222.824,78.411 L 221.928,78.573 L 221.839,79.196 L 223.484,79.272 L 222.824,78.411 Z" fill="none" stroke="#0000FF" stroke-width="0.01mm" transform="translate(15.000,15.000)" /><path d="M 221.436,79.452 L 221.109,80.442 L 221.737,80.122 L 221.436,79.452 Z" fill="none" stroke="#0000FF" stroke-width="0.01mm" transform="translate(15.000,15.000)" /><path d="M 244.199,89.600 L 254.822,91.774 L 255.257,92.299 L 254.022,94.490 L 253.036,94.669 L 250.997,92.807 L 242.828,91.201 L 244.199,89.600 Z" fill="none" stroke="#0000FF" stroke-width="0.01mm" transform="translate(15.000,15.000)" /><path d="M 93.964,86.616 L 95.759,85.597 L 97.373,86.493 L 95.450,92.621 L 97.310,98.403 L 96.711,98.865 L 96.099,97.954 L 94.933,97.953 L 94.062,99.899 L 89.700,96.954 L 90.150,95.901 L 92.153,96.831 L 93.486,95.572 L 90.887,93.668 L 89.710,91.143 L 91.326,90.507 L 91.927,88.848 L 93.512,88.324 L 92.632,87.157 L 92.814,85.688 L 93.964,86.616 Z" fill="none" stroke="#0000FF" stroke-width="0.01mm" transform="translate(15.000,15.000)" /></g><g id="layer-05-land-256m-to-513m"><path d="M 247.259,71.296 L 249.481,75.154 L 248.306,77.089 L 244.495,77.243 L 242.011,76.004 L 242.051,74.375 L 245.380,72.930 L 246.093,71.299 L 247.259,71.296 Z" fill="none" stroke="#FF0000" stroke-width="0.01mm" transform="translate(15.000,15.000)" /><path d="M 185.891,36.575 L 190.144,34.543 L 192.698,35.450 L 192.173,33.743 L 195.530,32.493 L 198.278,33.400 L 198.710,32.122 L 197.857,30.670 L 199.498,30.269 L 201.808,27.408 L 203.272,28.283 L 203.717,26.431 L 206.668,24.303 L 208.809,28.370 L 210.320,21.407 L 212.621,23.255 L 213.215,21.530 L 214.110,21.209 L 215.679,22.467 L 215.865,26.139 L 214.739,30.260 L 212.279,32.068 L 212.553,35.325 L 213.927,35.275 L 213.148,33.632 L 217.532,31.229 L 218.007,29.695 L 218.902,29.374 L 221.810,35.307 L 223.260,36.486 L 223.556,35.144 L 222.625,32.464 L 223.019,28.344 L 224.232,30.289 L 225.979,30.285 L 226.962,29.357 L 229.114,30.534 L 230.899,34.441 L 234.244,28.638 L 235.677,28.411 L 235.127,35.374 L 236.156,41.119 L 236.964,42.043 L 236.027,43.306 L 238.245,46.685 L 238.867,44.640 L 237.952,42.950 L 239.831,42.035 L 238.095,40.475 L 238.052,35.111 L 240.120,32.408 L 242.152,38.517 L 243.575,34.809 L 247.515,34.511 L 249.489,35.432 L 252.890,34.416 L 254.788,35.400 L 257.418,31.321 L 259.231,33.343 L 261.661,32.378 L 267.156,32.791 L 267.473,33.876 L 266.611,35.044 L 269.166,35.690 L 270.398,37.985 L 268.937,38.389 L 261.163,35.413 L 258.151,36.588 L 257.021,38.028 L 259.804,39.808 L 259.749,41.341 L 257.992,43.006 L 259.759,44.789 L 259.765,46.449 L 258.693,47.506 L 256.230,47.913 L 254.012,50.586 L 252.580,50.941 L 251.022,54.809 L 250.076,52.992 L 248.041,51.784 L 247.196,53.798 L 246.013,52.812 L 244.731,53.997 L 246.410,56.068 L 246.474,57.600 L 243.455,56.906 L 242.143,57.867 L 241.497,62.467 L 239.886,63.493 L 240.756,64.863 L 240.586,68.376 L 237.989,69.628 L 239.760,72.625 L 239.782,75.371 L 237.185,76.814 L 235.955,81.160 L 234.285,82.952 L 235.072,87.101 L 231.430,89.792 L 232.301,91.227 L 231.225,91.676 L 228.587,88.617 L 226.109,90.618 L 223.804,89.649 L 222.416,90.657 L 221.352,89.654 L 220.008,90.582 L 218.914,88.972 L 221.758,83.075 L 220.573,81.529 L 219.424,82.505 L 218.077,81.678 L 216.758,87.428 L 214.534,89.667 L 213.306,88.360 L 212.837,85.631 L 210.731,86.512 L 209.980,84.758 L 205.581,82.370 L 206.294,79.655 L 204.756,80.392 L 204.379,78.636 L 202.463,76.500 L 201.806,76.692 L 201.361,79.183 L 199.926,79.313 L 200.847,75.672 L 203.547,71.980 L 202.379,70.321 L 199.886,72.512 L 198.562,76.314 L 197.532,77.337 L 196.366,77.290 L 195.959,75.088 L 196.869,73.793 L 195.254,72.965 L 194.996,70.220 L 197.667,67.023 L 197.500,65.203 L 193.215,67.540 L 190.323,73.642 L 190.266,75.941 L 192.048,78.701 L 191.645,79.436 L 190.479,79.389 L 189.042,77.603 L 183.569,75.166 L 182.521,73.490 L 183.461,71.653 L 182.294,70.345 L 179.980,72.327 L 175.869,70.989 L 176.749,69.616 L 175.045,68.962 L 173.908,66.089 L 176.775,63.597 L 174.174,62.992 L 172.291,61.939 L 171.992,60.982 L 173.243,55.457 L 174.826,54.306 L 173.928,52.247 L 175.780,51.576 L 174.853,50.315 L 175.659,49.484 L 176.075,46.419 L 178.672,45.331 L 176.939,44.438 L 176.849,43.033 L 178.966,38.817 L 184.219,36.417 L 184.621,35.603 L 185.891,36.575 Z M 223.589,36.852 L 224.516,37.202 L 224.216,36.532 L 223.589,36.852 Z M 238.903,47.035 L 239.830,47.384 L 239.530,46.714 L 238.903,47.035 Z M 242.705,38.851 L 243.632,39.200 L 243.331,38.530 L 242.705,38.851 Z M 217.912,81.151 L 216.984,80.802 L 217.285,81.472 L 217.912,81.151 Z M 204.842,78.428 L 205.170,77.437 L 204.542,77.758 L 204.842,78.428 Z M 203.875,71.277 L 204.202,70.287 L 203.575,70.607 L 203.875,71.277 Z M 206.428,69.820 L 205.590,69.247 L 204.515,69.695 L 205.353,70.269 L 206.428,69.820 Z M 198.232,65.170 L 198.676,61.721 L 198.227,61.083 L 198.232,65.170 Z M 199.078,61.066 L 199.406,60.076 L 198.779,60.396 L 199.078,61.066 Z M 198.748,59.726 L 197.821,59.376 L 198.121,60.046 L 198.748,59.726 Z M 197.790,58.705 L 196.864,58.355 L 197.163,59.025 L 197.790,58.705 Z M 186.324,36.910 L 187.250,37.261 L 186.951,36.590 L 186.324,36.910 Z M 214.334,37.541 L 214.661,36.550 L 214.034,36.871 L 214.334,37.541 Z M 223.973,77.371 L 224.300,76.381 L 223.673,76.701 L 223.973,77.371 Z M 222.824,78.411 L 221.928,78.573 L 221.839,79.196 L 223.484,79.272 L 222.824,78.411 Z M 221.436,79.452 L 221.109,80.442 L 221.737,80.122 L 221.436,79.452 Z" fill="none" stroke="#FF0000" stroke-width="0.01mm" transform="translate(15.000,15.000)" /><path d="M 244.199,89.600 L 254.822,91.774 L 255.257,92.299 L 254.022,94.490 L 253.036,94.669 L 250.997,92.807 L 242.828,91.201 L 244.199,89.600 Z" fill="none" stroke="#FF0000" stroke-width="0.01mm" transform="translate(15.000,15.000)" /><path d="M 93.964,86.616 L 95.759,85.597 L 97.373,86.493 L 95.450,92.621 L 97.310,98.403 L 96.711,98.865 L 96.099,97.954 L 94.933,97.953 L 94.062,99.899 L 89.700,96.954 L 90.150,95.901 L 92.153,96.831 L 93.486,95.572 L 90.887,93.668 L 89.710,91.143 L 91.326,90.507 L 91.927,88.848 L 93.512,88.324 L 92.632,87.157 L 92.814,85.688 L 93.964,86.616 Z" fill="none" stroke="#FF0000" stroke-width="0.01mm" transform="translate(15.000,15.000)" /><path d="M 195.861,33.946 L 197.176,35.381 L 200.043,35.249 L 200.547,32.949 L 198.902,30.589 L 203.228,29.241 L 206.030,26.347 L 207.135,26.649 L 208.453,29.233 L 209.557,29.311 L 210.489,24.360 L 211.864,25.252 L 214.634,22.261 L 213.854,27.979 L 210.339,32.742 L 210.419,35.377 L 212.974,36.777 L 214.173,39.409 L 216.746,41.831 L 217.077,43.363 L 218.183,43.648 L 218.793,42.306 L 217.696,38.860 L 216.155,37.410 L 214.969,33.916 L 217.325,32.538 L 219.296,32.630 L 220.856,36.331 L 223.429,38.848 L 223.808,41.482 L 227.595,45.545 L 228.879,45.654 L 229.281,44.918 L 227.559,42.990 L 227.082,36.621 L 224.825,35.301 L 223.566,33.005 L 228.161,31.558 L 230.441,36.342 L 231.874,36.403 L 232.708,35.475 L 234.040,36.733 L 233.132,38.092 L 233.941,39.016 L 234.250,43.167 L 236.017,45.557 L 234.115,49.330 L 236.940,50.105 L 236.076,51.273 L 236.453,52.836 L 238.810,51.569 L 239.998,48.932 L 241.608,47.523 L 242.707,45.221 L 241.793,44.170 L 242.103,42.924 L 244.970,42.788 L 246.648,44.636 L 247.777,42.781 L 249.209,42.266 L 249.205,40.861 L 246.663,39.239 L 246.955,36.940 L 250.835,36.290 L 251.818,35.425 L 252.540,37.275 L 254.064,37.702 L 252.398,39.798 L 252.345,42.097 L 254.948,43.910 L 256.001,46.493 L 254.721,47.678 L 252.717,46.758 L 252.168,48.037 L 250.706,48.616 L 246.629,48.627 L 244.849,47.754 L 238.100,54.046 L 238.735,57.461 L 235.153,58.619 L 235.246,59.800 L 237.669,61.199 L 237.941,62.380 L 235.331,64.174 L 234.798,66.092 L 233.704,65.152 L 232.271,65.443 L 233.201,67.021 L 232.387,70.520 L 234.676,71.424 L 235.126,72.381 L 233.246,73.615 L 234.176,74.874 L 233.371,75.898 L 233.084,80.879 L 231.193,84.284 L 228.906,84.433 L 227.813,83.526 L 226.009,85.557 L 225.317,83.834 L 222.759,83.185 L 223.639,81.810 L 221.783,80.792 L 223.486,80.294 L 226.513,76.711 L 226.376,75.530 L 224.653,73.842 L 225.515,71.493 L 223.973,70.251 L 222.869,71.035 L 222.548,74.868 L 221.432,77.360 L 220.337,75.447 L 218.422,74.381 L 217.137,74.655 L 217.050,76.060 L 217.904,77.064 L 216.233,78.616 L 215.283,82.417 L 214.877,80.790 L 213.321,80.313 L 211.449,78.289 L 210.172,74.508 L 206.433,72.885 L 209.567,70.422 L 211.898,70.098 L 214.032,68.546 L 211.341,67.976 L 212.161,66.745 L 211.533,66.188 L 209.831,67.196 L 208.873,66.176 L 207.918,67.199 L 206.123,66.196 L 201.731,66.970 L 202.505,64.462 L 200.832,65.071 L 199.768,62.582 L 201.483,60.791 L 201.928,58.300 L 203.540,57.436 L 198.982,56.516 L 199.620,53.386 L 198.425,52.925 L 197.067,53.837 L 196.886,52.368 L 197.780,51.202 L 196.524,49.862 L 195.436,51.795 L 193.433,50.872 L 193.017,52.022 L 195.025,57.703 L 195.878,58.356 L 194.968,59.731 L 196.672,60.543 L 196.765,62.650 L 192.945,66.981 L 191.302,67.542 L 189.947,71.216 L 184.128,66.304 L 180.901,66.946 L 180.780,64.647 L 182.482,63.480 L 180.629,62.811 L 181.464,61.342 L 177.727,59.190 L 178.682,57.592 L 177.770,56.236 L 179.621,54.638 L 178.768,52.388 L 180.589,51.460 L 178.676,49.993 L 180.556,48.155 L 178.674,47.247 L 183.452,46.221 L 182.136,44.913 L 178.731,44.421 L 179.805,42.871 L 181.537,42.263 L 179.668,39.982 L 182.221,39.325 L 183.741,36.673 L 187.773,37.499 L 189.354,35.789 L 192.638,35.227 L 193.442,33.693 L 195.861,33.946 Z" fill="none" stroke="#0000FF" stroke-width="0.01mm" transform="translate(15.000,15.000)" /><path d="M 219.648,44.699 L 220.544,44.538 L 220.633,43.915 L 218.990,43.838 L 219.648,44.699 Z" fill="none" stroke="#0000FF" stroke-width="0.01mm" transform="translate(15.000,15.000)" /><path d="M 220.739,45.032 L 221.666,45.382 L 221.366,44.712 L 220.739,45.032 Z" fill="none" stroke="#0000FF" stroke-width="0.01mm" transform="translate(15.000,15.000)" /><path d="M 221.697,46.052 L 222.624,46.402 L 222.324,45.732 L 221.697,46.052 Z" fill="none" stroke="#0000FF" stroke-width="0.01mm" transform="translate(15.000,15.000)" /><path d="M 234.267,63.059 L 233.371,63.221 L 233.283,63.844 L 234.927,63.920 L 234.267,63.059 Z" fill="none" stroke="#0000FF" stroke-width="0.01mm" transform="translate(15.000,15.000)" /><path d="M 224.914,70.217 L 225.241,69.226 L 224.614,69.547 L 224.914,70.217 Z" fill="none" stroke="#0000FF" stroke-width="0.01mm" transform="translate(15.000,15.000)" /><path d="M 214.913,68.209 L 216.898,66.944 L 216.643,66.258 L 215.328,66.261 L 214.075,67.636 L 214.913,68.209 Z" fill="none" stroke="#0000FF" stroke-width="0.01mm" transform="translate(15.000,15.000)" /><path d="M 217.255,66.145 L 217.582,65.155 L 216.955,65.475 L 217.255,66.145 Z" fill="none" stroke="#0000FF" stroke-width="0.01mm" transform="translate(15.000,15.000)" /><path d="M 212.474,66.154 L 212.801,65.164 L 212.174,65.484 L 212.474,66.154 Z" fill="none" stroke="#0000FF" stroke-width="0.01mm" transform="translate(15.000,15.000)" /><path d="M 213.428,65.130 L 213.755,64.140 L 213.128,64.460 L 213.428,65.130 Z" fill="none" stroke="#0000FF" stroke-width="0.01mm" transform="translate(15.000,15.000)" /><path d="M 197.151,49.829 L 197.478,48.839 L 196.851,49.159 L 197.151,49.829 Z" fill="none" stroke="#0000FF" stroke-width="0.01mm" transform="translate(15.000,15.000)" /><path d="M 193.012,35.881 L 193.938,36.231 L 193.638,35.561 L 193.012,35.881 Z" fill="none" stroke="#0000FF" stroke-width="0.01mm" transform="translate(15.000,15.000)" /><path d="M 201.935,52.888 L 202.262,51.898 L 201.635,52.218 L 201.935,52.888 Z" fill="none" stroke="#0000FF" stroke-width="0.01mm" transform="translate(15.000,15.000)" /><path d="M 219.166,65.120 L 219.493,64.129 L 218.866,64.450 L 219.166,65.120 Z" fill="none" stroke="#0000FF" stroke-width="0.01mm" transform="translate(15.000,15.000)" /></g><g id="layer-06-land-513m-to-769m"><path d="M 195.861,33.946 L 197.176,35.381 L 200.043,35.249 L 200.547,32.949 L 198.902,30.589 L 203.228,29.241 L 206.030,26.347 L 207.135,26.649 L 208.453,29.233 L 209.557,29.311 L 210.489,24.360 L 211.864,25.252 L 214.634,22.261 L 213.854,27.979 L 210.339,32.742 L 210.419,35.377 L 212.974,36.777 L 214.173,39.409 L 216.746,41.831 L 217.077,43.363 L 218.183,43.648 L 218.793,42.306 L 217.696,38.860 L 216.155,37.410 L 214.969,33.916 L 217.325,32.538 L 219.296,32.630 L 220.856,36.331 L 223.429,38.848 L 223.808,41.482 L 227.595,45.545 L 228.879,45.654 L 229.281,44.918 L 227.559,42.990 L 227.082,36.621 L 224.825,35.301 L 223.566,33.005 L 228.161,31.558 L 230.441,36.342 L 231.874,36.403 L 232.708,35.475 L 234.040,36.733 L 233.132,38.092 L 233.941,39.016 L 234.250,43.167 L 236.017,45.557 L 234.115,49.330 L 236.940,50.105 L 236.076,51.273 L 236.453,52.836 L 238.810,51.569 L 239.998,48.932 L 241.608,47.523 L 242.707,45.221 L 241.793,44.170 L 242.103,42.924 L 244.970,42.788 L 246.648,44.636 L 247.777,42.781 L 249.209,42.266 L 249.205,40.861 L 246.663,39.239 L 246.955,36.940 L 250.835,36.290 L 251.818,35.425 L 252.540,37.275 L 254.064,37.702 L 252.398,39.798 L 252.345,42.097 L 254.948,43.910 L 256.001,46.493 L 254.721,47.678 L 252.717,46.758 L 252.168,48.037 L 250.706,48.616 L 246.629,48.627 L 244.849,47.754 L 238.100,54.046 L 238.735,57.461 L 235.153,58.619 L 235.246,59.800 L 237.669,61.199 L 237.941,62.380 L 235.331,64.174 L 234.798,66.092 L 233.704,65.152 L 232.271,65.443 L 233.201,67.021 L 232.387,70.520 L 234.676,71.424 L 235.126,72.381 L 233.246,73.615 L 234.176,74.874 L 233.371,75.898 L 233.084,80.879 L 231.193,84.284 L 228.906,84.433 L 227.813,83.526 L 226.009,85.557 L 225.317,83.834 L 222.759,83.185 L 223.639,81.810 L 221.783,80.792 L 223.486,80.294 L 226.513,76.711 L 226.376,75.530 L 224.653,73.842 L 225.515,71.493 L 223.973,70.251 L 222.869,71.035 L 222.548,74.868 L 221.432,77.360 L 220.337,75.447 L 218.422,74.381 L 217.137,74.655 L 217.050,76.060 L 217.904,77.064 L 216.233,78.616 L 215.283,82.417 L 214.877,80.790 L 213.321,80.313 L 211.449,78.289 L 210.172,74.508 L 206.433,72.885 L 209.567,70.422 L 211.898,70.098 L 214.032,68.546 L 211.341,67.976 L 212.161,66.745 L 211.533,66.188 L 209.831,67.196 L 208.873,66.176 L 207.918,67.199 L 206.123,66.196 L 201.731,66.970 L 202.505,64.462 L 200.832,65.071 L 199.768,62.582 L 201.483,60.791 L 201.928,58.300 L 203.540,57.436 L 198.982,56.516 L 199.620,53.386 L 198.425,52.925 L 197.067,53.837 L 196.886,52.368 L 197.780,51.202 L 196.524,49.862 L 195.436,51.795 L 193.433,50.872 L 193.017,52.022 L 195.025,57.703 L 195.878,58.356 L 194.968,59.731 L 196.672,60.543 L 196.765,62.650 L 192.945,66.981 L 191.302,67.542 L 189.947,71.216 L 184.128,66.304 L 180.901,66.946 L 180.780,64.647 L 182.482,63.480 L 180.629,62.811 L 181.464,61.342 L 177.727,59.190 L 178.682,57.592 L 177.770,56.236 L 179.621,54.638 L 178.768,52.388 L 180.589,51.460 L 178.676,49.993 L 180.556,48.155 L 178.674,47.247 L 183.452,46.221 L 182.136,44.913 L 178.731,44.421 L 179.805,42.871 L 181.537,42.263 L 179.668,39.982 L 182.221,39.325 L 183.741,36.673 L 187.773,37.499 L 189.354,35.789 L 192.638,35.227 L 193.442,33.693 L 195.861,33.946 Z M 219.648,44.699 L 220.544,44.538 L 220.633,43.915 L 218.990,43.838 L 219.648,44.699 Z M 220.739,45.032 L 221.666,45.382 L 221.366,44.712 L 220.739,45.032 Z M 221.697,46.052 L 222.624,46.402 L 222.324,45.732 L 221.697,46.052 Z M 234.267,63.059 L 233.371,63.221 L 233.283,63.844 L 234.927,63.920 L 234.267,63.059 Z M 224.914,70.217 L 225.241,69.226 L 224.614,69.547 L 224.914,70.217 Z M 214.913,68.209 L 216.898,66.944 L 216.643,66.258 L 215.328,66.261 L 214.075,67.636 L 214.913,68.209 Z M 217.255,66.145 L 217.582,65.155 L 216.955,65.475 L 217.255,66.145 Z M 212.474,66.154 L 212.801,65.164 L 212.174,65.484 L 212.474,66.154 Z M 213.428,65.130 L 213.755,64.140 L 213.128,64.460 L 213.428,65.130 Z M 197.151,49.829 L 197.478,48.839 L 196.851,49.159 L 197.151,49.829 Z M 193.012,35.881 L 193.938,36.231 L 193.638,35.561 L 193.012,35.881 Z M 201.935,52.888 L 202.262,51.898 L 201.635,52.218 L 201.935,52.888 Z M 219.166,65.120 L 219.493,64.129 L 218.866,64.450 L 219.166,65.120 Z" fill="none" stroke="#FF0000" stroke-width="0.01mm" transform="translate(15.000,15.000)" /><path d="M 224.159,58.995 L 221.448,62.928 L 217.565,64.101 L 216.937,63.543 L 217.756,62.313 L 215.694,62.125 L 210.933,64.991 L 208.602,64.995 L 206.598,63.817 L 204.649,59.765 L 204.586,57.466 L 205.361,56.204 L 201.926,56.991 L 200.670,56.099 L 201.757,54.165 L 204.445,53.587 L 203.577,52.423 L 203.829,51.049 L 208.307,49.254 L 204.841,48.972 L 199.379,51.838 L 198.897,49.109 L 201.612,46.327 L 200.147,45.802 L 194.627,49.753 L 192.385,48.846 L 191.191,49.310 L 194.926,61.758 L 194.763,62.812 L 193.329,63.325 L 192.390,65.146 L 191.775,63.327 L 188.547,61.925 L 188.022,60.170 L 185.555,58.736 L 183.475,54.634 L 185.348,46.123 L 184.420,44.065 L 186.165,41.397 L 186.491,39.097 L 188.133,38.377 L 190.354,35.597 L 191.534,36.473 L 193.281,36.471 L 194.578,34.554 L 195.683,34.680 L 197.133,36.546 L 198.192,35.539 L 199.178,36.464 L 200.925,36.365 L 201.595,34.768 L 200.932,30.618 L 204.273,29.240 L 206.241,27.353 L 209.007,30.366 L 210.480,27.537 L 212.731,26.368 L 212.870,28.906 L 210.410,30.507 L 209.325,32.936 L 210.377,37.245 L 211.931,37.721 L 213.935,39.761 L 216.990,44.465 L 218.633,44.861 L 220.639,46.901 L 222.737,50.584 L 225.637,51.839 L 227.333,48.930 L 225.328,46.891 L 223.893,46.543 L 223.293,44.883 L 221.858,44.535 L 219.030,41.491 L 218.651,38.858 L 217.036,37.360 L 215.971,34.728 L 218.564,32.536 L 219.901,36.333 L 222.474,38.850 L 223.738,43.478 L 228.167,47.651 L 232.123,47.067 L 231.056,43.972 L 229.411,43.178 L 228.374,39.939 L 228.949,36.984 L 231.816,36.818 L 232.985,39.019 L 233.369,43.408 L 235.061,45.113 L 233.243,47.033 L 232.298,51.346 L 233.974,53.034 L 234.442,54.853 L 235.530,53.908 L 236.995,54.304 L 236.041,55.328 L 236.941,56.587 L 233.536,57.090 L 232.239,58.291 L 233.959,59.292 L 235.102,62.163 L 234.566,63.059 L 233.847,62.134 L 232.532,62.138 L 231.430,63.545 L 230.338,69.902 L 231.999,77.050 L 230.654,77.373 L 229.666,76.417 L 228.426,69.906 L 229.377,67.605 L 227.994,64.096 L 226.325,65.983 L 224.772,66.465 L 223.552,68.974 L 222.029,69.504 L 221.422,72.236 L 220.239,71.264 L 219.553,72.128 L 217.223,72.451 L 214.315,76.336 L 213.177,74.886 L 214.084,72.170 L 213.154,70.591 L 217.722,68.044 L 220.898,64.350 L 223.183,63.818 L 224.074,61.326 L 226.448,60.698 L 224.159,58.995 Z" fill="none" stroke="#0000FF" stroke-width="0.01mm" transform="translate(15.000,15.000)" /><path d="M 226.805,59.995 L 227.132,59.005 L 226.505,59.325 L 226.805,59.995 Z" fill="none" stroke="#0000FF" stroke-width="0.01mm" transform="translate(15.000,15.000)" /></g><g id="layer-07-land-769m-to-1026m"><path d="M 224.159,58.995 L 221.448,62.928 L 217.565,64.101 L 216.937,63.543 L 217.756,62.313 L 215.694,62.125 L 210.933,64.991 L 208.602,64.995 L 206.598,63.817 L 204.649,59.765 L 204.586,57.466 L 205.361,56.204 L 201.926,56.991 L 200.670,56.099 L 201.757,54.165 L 204.445,53.587 L 203.577,52.423 L 203.829,51.049 L 208.307,49.254 L 204.841,48.972 L 199.379,51.838 L 198.897,49.109 L 201.612,46.327 L 200.147,45.802 L 194.627,49.753 L 192.385,48.846 L 191.191,49.310 L 194.926,61.758 L 194.763,62.812 L 193.329,63.325 L 192.390,65.146 L 191.775,63.327 L 188.547,61.925 L 188.022,60.170 L 185.555,58.736 L 183.475,54.634 L 185.348,46.123 L 184.420,44.065 L 186.165,41.397 L 186.491,39.097 L 188.133,38.377 L 190.354,35.597 L 191.534,36.473 L 193.281,36.471 L 194.578,34.554 L 195.683,34.680 L 197.133,36.546 L 198.192,35.539 L 199.178,36.464 L 200.925,36.365 L 201.595,34.768 L 200.932,30.618 L 204.273,29.240 L 206.241,27.353 L 209.007,30.366 L 210.480,27.537 L 212.731,26.368 L 212.870,28.906 L 210.410,30.507 L 209.325,32.936 L 210.377,37.245 L 211.931,37.721 L 213.935,39.761 L 216.990,44.465 L 218.633,44.861 L 220.639,46.901 L 222.737,50.584 L 225.637,51.839 L 227.333,48.930 L 225.328,46.891 L 223.893,46.543 L 223.293,44.883 L 221.858,44.535 L 219.030,41.491 L 218.651,38.858 L 217.036,37.360 L 215.971,34.728 L 218.564,32.536 L 219.901,36.333 L 222.474,38.850 L 223.738,43.478 L 228.167,47.651 L 232.123,47.067 L 231.056,43.972 L 229.411,43.178 L 228.374,39.939 L 228.949,36.984 L 231.816,36.818 L 232.985,39.019 L 233.369,43.408 L 235.061,45.113 L 233.243,47.033 L 232.298,51.346 L 233.974,53.034 L 234.442,54.853 L 235.530,53.908 L 236.995,54.304 L 236.041,55.328 L 236.941,56.587 L 233.536,57.090 L 232.239,58.291 L 233.959,59.292 L 235.102,62.163 L 234.566,63.059 L 233.847,62.134 L 232.532,62.138 L 231.430,63.545 L 230.338,69.902 L 231.999,77.050 L 230.654,77.373 L 229.666,76.417 L 228.426,69.906 L 229.377,67.605 L 227.994,64.096 L 226.325,65.983 L 224.772,66.465 L 223.552,68.974 L 222.029,69.504 L 221.422,72.236 L 220.239,71.264 L 219.553,72.128 L 217.223,72.451 L 214.315,76.336 L 213.177,74.886 L 214.084,72.170 L 213.154,70.591 L 217.722,68.044 L 220.898,64.350 L 223.183,63.818 L 224.074,61.326 L 226.448,60.698 L 224.159,58.995 Z M 226.805,59.995 L 227.132,59.005 L 226.505,59.325 L 226.805,59.995 Z" fill="none" stroke="#FF0000" stroke-width="0.01mm" transform="translate(15.000,15.000)" /><path d="M 205.862,51.876 L 211.830,48.609 L 211.947,47.076 L 203.839,48.032 L 202.035,49.838 L 201.792,47.252 L 203.523,46.196 L 201.909,45.464 L 201.428,43.166 L 200.531,42.688 L 199.400,45.468 L 197.967,45.917 L 196.655,47.643 L 192.726,46.833 L 190.563,48.832 L 190.141,44.809 L 191.180,40.114 L 192.971,39.298 L 192.178,37.830 L 194.641,37.268 L 195.325,35.543 L 199.180,37.485 L 201.464,37.338 L 202.536,35.549 L 201.739,31.638 L 202.961,30.423 L 204.232,31.347 L 204.602,29.591 L 205.944,28.375 L 207.620,31.246 L 209.203,31.770 L 208.369,32.937 L 208.508,35.380 L 215.717,42.759 L 216.992,45.487 L 218.635,45.883 L 220.641,47.922 L 221.990,50.634 L 227.014,52.858 L 228.648,49.087 L 230.574,48.907 L 232.363,53.676 L 235.086,55.458 L 231.357,58.117 L 231.449,58.819 L 233.003,59.295 L 233.141,60.540 L 230.176,63.995 L 226.946,63.172 L 225.008,65.124 L 224.808,62.203 L 228.404,60.135 L 227.954,59.178 L 225.083,58.019 L 223.709,58.214 L 221.266,62.018 L 220.101,61.877 L 219.380,60.026 L 214.394,62.063 L 212.271,61.061 L 210.524,62.038 L 208.462,61.850 L 205.599,55.581 L 205.862,51.876 Z" fill="none" stroke="#0000FF" stroke-width="0.01mm" transform="translate(15.000,15.000)" /><path d="M 207.008,31.455 L 206.682,32.445 L 207.308,32.125 L 207.008,31.455 Z" fill="none" stroke="#0000FF" stroke-width="0.01mm" transform="translate(15.000,15.000)" /><path d="M 206.720,55.946 L 207.047,54.956 L 206.420,55.276 L 206.720,55.946 Z" fill="none" stroke="#0000FF" stroke-width="0.01mm" transform="translate(15.000,15.000)" /></g><g id="layer-08-land-1026m-to-1282m"><path d="M 205.862,51.876 L 211.830,48.609 L 211.947,47.076 L 203.839,48.032 L 202.035,49.838 L 201.792,47.252 L 203.523,46.196 L 201.909,45.464 L 201.428,43.166 L 200.531,42.688 L 199.400,45.468 L 197.967,45.917 L 196.655,47.643 L 192.726,46.833 L 190.563,48.832 L 190.141,44.809 L 191.180,40.114 L 192.971,39.298 L 192.178,37.830 L 194.641,37.268 L 195.325,35.543 L 199.180,37.485 L 201.464,37.338 L 202.536,35.549 L 201.739,31.638 L 202.961,30.423 L 204.232,31.347 L 204.602,29.591 L 205.944,28.375 L 207.620,31.246 L 209.203,31.770 L 208.369,32.937 L 208.508,35.380 L 215.717,42.759 L 216.992,45.487 L 218.635,45.883 L 220.641,47.922 L 221.990,50.634 L 227.014,52.858 L 228.648,49.087 L 230.574,48.907 L 232.363,53.676 L 235.086,55.458 L 231.357,58.117 L 231.449,58.819 L 233.003,59.295 L 233.141,60.540 L 230.176,63.995 L 226.946,63.172 L 225.008,65.124 L 224.808,62.203 L 228.404,60.135 L 227.954,59.178 L 225.083,58.019 L 223.709,58.214 L 221.266,62.018 L 220.101,61.877 L 219.380,60.026 L 214.394,62.063 L 212.271,61.061 L 210.524,62.038 L 208.462,61.850 L 205.599,55.581 L 205.862,51.876 Z M 207.008,31.455 L 206.682,32.445 L 207.308,32.125 L 207.008,31.455 Z M 206.720,55.946 L 207.047,54.956 L 206.420,55.276 L 206.720,55.946 Z" fill="none" stroke="#FF0000" stroke-width="0.01mm" transform="translate(15.000,15.000)" /><path d="M 221.154,50.827 L 227.120,53.864 L 229.117,51.688 L 229.977,48.812 L 230.446,51.541 L 231.988,52.991 L 232.367,55.624 L 233.160,56.245 L 231.356,57.654 L 232.140,60.781 L 229.783,62.048 L 228.310,58.300 L 225.172,57.971 L 222.753,58.311 L 221.175,61.045 L 220.484,59.322 L 218.153,58.847 L 216.745,57.126 L 214.143,55.790 L 214.232,55.087 L 217.873,53.452 L 216.050,52.641 L 215.180,50.998 L 219.657,48.786 L 220.553,49.104 L 221.154,50.827 Z" fill="none" stroke="#0000FF" stroke-width="0.01mm" transform="translate(15.000,15.000)" /></g><g id="layer-09-land-1282m-to-1538m"><path d="M 221.154,50.827 L 227.120,53.864 L 229.117,51.688 L 229.977,48.812 L 230.446,51.541 L 231.988,52.991 L 232.367,55.624 L 233.160,56.245 L 231.356,57.654 L 232.140,60.781 L 229.783,62.048 L 228.310,58.300 L 225.172,57.971 L 222.753,58.311 L 221.175,61.045 L 220.484,59.322 L 218.153,58.847 L 216.745,57.126 L 214.143,55.790 L 214.232,55.087 L 217.873,53.452 L 216.050,52.641 L 215.180,50.998 L 219.657,48.786 L 220.553,49.104 L 221.154,50.827 Z" fill="none" stroke="#FF0000" stroke-width="0.01mm" transform="translate(15.000,15.000)" /></g><g id="frame"><path d="M -15.000,190.708 L -15.000,15.000 L 315.000,15.000 L 315.000,190.708 L -15.000,190.708 Z M 300.000,30.000 L 0.000,30.000 L 0.000,175.708 L 300.000,175.708 L 300.000,30.000 Z" fill="none" stroke="#FF0000" stroke-width="0.01mm" transform="translate(15.000,15.000)" /></g></svg>